%TF.GenerationSoftware,KiCad,Pcbnew,(5.1.6)-1*%
%TF.CreationDate,2020-10-09T22:59:05+02:00*%
%TF.ProjectId,zlpcba_f103c8,7a6c7063-6261-45f6-9631-303363382e6b,rev?*%
%TF.SameCoordinates,Original*%
%TF.FileFunction,Copper,L2,Bot*%
%TF.FilePolarity,Positive*%
%FSLAX46Y46*%
G04 Gerber Fmt 4.6, Leading zero omitted, Abs format (unit mm)*
G04 Created by KiCad (PCBNEW (5.1.6)-1) date 2020-10-09 22:59:05*
%MOMM*%
%LPD*%
G01*
G04 APERTURE LIST*
%TA.AperFunction,ComponentPad*%
%ADD10O,1.700000X1.700000*%
%TD*%
%TA.AperFunction,ComponentPad*%
%ADD11R,1.700000X1.700000*%
%TD*%
%TA.AperFunction,ViaPad*%
%ADD12C,0.600000*%
%TD*%
%TA.AperFunction,Conductor*%
%ADD13C,0.254000*%
%TD*%
G04 APERTURE END LIST*
D10*
%TO.P,J2,4*%
%TO.N,VDD*%
X106000000Y-100370000D03*
%TO.P,J2,3*%
%TO.N,/SW_DIO*%
X106000000Y-102910000D03*
%TO.P,J2,2*%
%TO.N,/SW_CLK*%
X106000000Y-105450000D03*
D11*
%TO.P,J2,1*%
%TO.N,GND*%
X106000000Y-107990000D03*
%TD*%
D12*
%TO.N,GND*%
X105000000Y-143990000D03*
X110000000Y-143990000D03*
X110000000Y-138990000D03*
X105000000Y-138990000D03*
X105000000Y-133990000D03*
X110000000Y-133990000D03*
X115000000Y-133990000D03*
X120000000Y-133990000D03*
X119400000Y-122940000D03*
X117100000Y-119990000D03*
X112400000Y-122340000D03*
X107200000Y-121540000D03*
X107225000Y-112515000D03*
X125000000Y-93990000D03*
X125000000Y-91990000D03*
X127000000Y-91990000D03*
X127000000Y-93990000D03*
X121000000Y-81240000D03*
X121000000Y-101240000D03*
X121000000Y-66240000D03*
X120600000Y-105090000D03*
X114600000Y-104690000D03*
X122500000Y-109590000D03*
%TD*%
D13*
%TO.N,GND*%
G36*
X124768083Y-53721173D02*
G01*
X125511891Y-53924656D01*
X126207905Y-54256638D01*
X126834130Y-54706626D01*
X127370777Y-55260403D01*
X127800871Y-55900451D01*
X128110829Y-56606553D01*
X128292065Y-57361457D01*
X128340000Y-58014207D01*
X128340001Y-141960597D01*
X128268827Y-142758083D01*
X128065344Y-143501890D01*
X127733363Y-144197904D01*
X127283374Y-144824130D01*
X126729597Y-145360777D01*
X126089549Y-145790871D01*
X125383447Y-146100829D01*
X124628543Y-146282065D01*
X123975793Y-146330000D01*
X106029392Y-146330000D01*
X105231917Y-146258827D01*
X104488110Y-146055344D01*
X103792096Y-145723363D01*
X103165870Y-145273374D01*
X102629223Y-144719597D01*
X102199129Y-144079549D01*
X101889171Y-143373447D01*
X101707935Y-142618543D01*
X101660000Y-141965793D01*
X101660000Y-136769872D01*
X112765000Y-136769872D01*
X112765000Y-137210128D01*
X112850890Y-137641925D01*
X113019369Y-138048669D01*
X113263962Y-138414729D01*
X113575271Y-138726038D01*
X113941331Y-138970631D01*
X114348075Y-139139110D01*
X114779872Y-139225000D01*
X115220128Y-139225000D01*
X115651925Y-139139110D01*
X116058669Y-138970631D01*
X116424729Y-138726038D01*
X116736038Y-138414729D01*
X116980631Y-138048669D01*
X117149110Y-137641925D01*
X117235000Y-137210128D01*
X117235000Y-136769872D01*
X117149110Y-136338075D01*
X116980631Y-135931331D01*
X116736038Y-135565271D01*
X116424729Y-135253962D01*
X116058669Y-135009369D01*
X115651925Y-134840890D01*
X115220128Y-134755000D01*
X114779872Y-134755000D01*
X114348075Y-134840890D01*
X113941331Y-135009369D01*
X113575271Y-135253962D01*
X113263962Y-135565271D01*
X113019369Y-135931331D01*
X112850890Y-136338075D01*
X112765000Y-136769872D01*
X101660000Y-136769872D01*
X101660000Y-108840000D01*
X104511928Y-108840000D01*
X104524188Y-108964482D01*
X104560498Y-109084180D01*
X104619463Y-109194494D01*
X104698815Y-109291185D01*
X104795506Y-109370537D01*
X104905820Y-109429502D01*
X105025518Y-109465812D01*
X105150000Y-109478072D01*
X105714250Y-109475000D01*
X105873000Y-109316250D01*
X105873000Y-108117000D01*
X106127000Y-108117000D01*
X106127000Y-109316250D01*
X106285750Y-109475000D01*
X106850000Y-109478072D01*
X106974482Y-109465812D01*
X107094180Y-109429502D01*
X107204494Y-109370537D01*
X107301185Y-109291185D01*
X107380537Y-109194494D01*
X107439502Y-109084180D01*
X107475812Y-108964482D01*
X107488072Y-108840000D01*
X107485000Y-108275750D01*
X107326250Y-108117000D01*
X106127000Y-108117000D01*
X105873000Y-108117000D01*
X104673750Y-108117000D01*
X104515000Y-108275750D01*
X104511928Y-108840000D01*
X101660000Y-108840000D01*
X101660000Y-107140000D01*
X104511928Y-107140000D01*
X104515000Y-107704250D01*
X104673750Y-107863000D01*
X105873000Y-107863000D01*
X105873000Y-107843000D01*
X106127000Y-107843000D01*
X106127000Y-107863000D01*
X107326250Y-107863000D01*
X107485000Y-107704250D01*
X107488072Y-107140000D01*
X107475812Y-107015518D01*
X107439502Y-106895820D01*
X107380537Y-106785506D01*
X107301185Y-106688815D01*
X107204494Y-106609463D01*
X107094180Y-106550498D01*
X107021620Y-106528487D01*
X107153475Y-106396632D01*
X107315990Y-106153411D01*
X107427932Y-105883158D01*
X107485000Y-105596260D01*
X107485000Y-105303740D01*
X107427932Y-105016842D01*
X107315990Y-104746589D01*
X107153475Y-104503368D01*
X106946632Y-104296525D01*
X106772240Y-104180000D01*
X106946632Y-104063475D01*
X107153475Y-103856632D01*
X107315990Y-103613411D01*
X107427932Y-103343158D01*
X107485000Y-103056260D01*
X107485000Y-102763740D01*
X107427932Y-102476842D01*
X107315990Y-102206589D01*
X107153475Y-101963368D01*
X106946632Y-101756525D01*
X106772240Y-101640000D01*
X106946632Y-101523475D01*
X107153475Y-101316632D01*
X107315990Y-101073411D01*
X107427932Y-100803158D01*
X107485000Y-100516260D01*
X107485000Y-100223740D01*
X107427932Y-99936842D01*
X107315990Y-99666589D01*
X107153475Y-99423368D01*
X106946632Y-99216525D01*
X106703411Y-99054010D01*
X106433158Y-98942068D01*
X106146260Y-98885000D01*
X105853740Y-98885000D01*
X105566842Y-98942068D01*
X105296589Y-99054010D01*
X105053368Y-99216525D01*
X104846525Y-99423368D01*
X104684010Y-99666589D01*
X104572068Y-99936842D01*
X104515000Y-100223740D01*
X104515000Y-100516260D01*
X104572068Y-100803158D01*
X104684010Y-101073411D01*
X104846525Y-101316632D01*
X105053368Y-101523475D01*
X105227760Y-101640000D01*
X105053368Y-101756525D01*
X104846525Y-101963368D01*
X104684010Y-102206589D01*
X104572068Y-102476842D01*
X104515000Y-102763740D01*
X104515000Y-103056260D01*
X104572068Y-103343158D01*
X104684010Y-103613411D01*
X104846525Y-103856632D01*
X105053368Y-104063475D01*
X105227760Y-104180000D01*
X105053368Y-104296525D01*
X104846525Y-104503368D01*
X104684010Y-104746589D01*
X104572068Y-105016842D01*
X104515000Y-105303740D01*
X104515000Y-105596260D01*
X104572068Y-105883158D01*
X104684010Y-106153411D01*
X104846525Y-106396632D01*
X104978380Y-106528487D01*
X104905820Y-106550498D01*
X104795506Y-106609463D01*
X104698815Y-106688815D01*
X104619463Y-106785506D01*
X104560498Y-106895820D01*
X104524188Y-107015518D01*
X104511928Y-107140000D01*
X101660000Y-107140000D01*
X101660000Y-71269872D01*
X112765000Y-71269872D01*
X112765000Y-71710128D01*
X112850890Y-72141925D01*
X113019369Y-72548669D01*
X113263962Y-72914729D01*
X113575271Y-73226038D01*
X113941331Y-73470631D01*
X114348075Y-73639110D01*
X114779872Y-73725000D01*
X115220128Y-73725000D01*
X115651925Y-73639110D01*
X116058669Y-73470631D01*
X116424729Y-73226038D01*
X116736038Y-72914729D01*
X116980631Y-72548669D01*
X117149110Y-72141925D01*
X117235000Y-71710128D01*
X117235000Y-71269872D01*
X117149110Y-70838075D01*
X116980631Y-70431331D01*
X116736038Y-70065271D01*
X116424729Y-69753962D01*
X116058669Y-69509369D01*
X115651925Y-69340890D01*
X115220128Y-69255000D01*
X114779872Y-69255000D01*
X114348075Y-69340890D01*
X113941331Y-69509369D01*
X113575271Y-69753962D01*
X113263962Y-70065271D01*
X113019369Y-70431331D01*
X112850890Y-70838075D01*
X112765000Y-71269872D01*
X101660000Y-71269872D01*
X101660000Y-58019392D01*
X101731173Y-57221917D01*
X101934656Y-56478109D01*
X102266638Y-55782095D01*
X102716626Y-55155870D01*
X103270403Y-54619223D01*
X103910451Y-54189129D01*
X104616553Y-53879171D01*
X105371457Y-53697935D01*
X106024207Y-53650000D01*
X123970608Y-53650000D01*
X124768083Y-53721173D01*
G37*
X124768083Y-53721173D02*
X125511891Y-53924656D01*
X126207905Y-54256638D01*
X126834130Y-54706626D01*
X127370777Y-55260403D01*
X127800871Y-55900451D01*
X128110829Y-56606553D01*
X128292065Y-57361457D01*
X128340000Y-58014207D01*
X128340001Y-141960597D01*
X128268827Y-142758083D01*
X128065344Y-143501890D01*
X127733363Y-144197904D01*
X127283374Y-144824130D01*
X126729597Y-145360777D01*
X126089549Y-145790871D01*
X125383447Y-146100829D01*
X124628543Y-146282065D01*
X123975793Y-146330000D01*
X106029392Y-146330000D01*
X105231917Y-146258827D01*
X104488110Y-146055344D01*
X103792096Y-145723363D01*
X103165870Y-145273374D01*
X102629223Y-144719597D01*
X102199129Y-144079549D01*
X101889171Y-143373447D01*
X101707935Y-142618543D01*
X101660000Y-141965793D01*
X101660000Y-136769872D01*
X112765000Y-136769872D01*
X112765000Y-137210128D01*
X112850890Y-137641925D01*
X113019369Y-138048669D01*
X113263962Y-138414729D01*
X113575271Y-138726038D01*
X113941331Y-138970631D01*
X114348075Y-139139110D01*
X114779872Y-139225000D01*
X115220128Y-139225000D01*
X115651925Y-139139110D01*
X116058669Y-138970631D01*
X116424729Y-138726038D01*
X116736038Y-138414729D01*
X116980631Y-138048669D01*
X117149110Y-137641925D01*
X117235000Y-137210128D01*
X117235000Y-136769872D01*
X117149110Y-136338075D01*
X116980631Y-135931331D01*
X116736038Y-135565271D01*
X116424729Y-135253962D01*
X116058669Y-135009369D01*
X115651925Y-134840890D01*
X115220128Y-134755000D01*
X114779872Y-134755000D01*
X114348075Y-134840890D01*
X113941331Y-135009369D01*
X113575271Y-135253962D01*
X113263962Y-135565271D01*
X113019369Y-135931331D01*
X112850890Y-136338075D01*
X112765000Y-136769872D01*
X101660000Y-136769872D01*
X101660000Y-108840000D01*
X104511928Y-108840000D01*
X104524188Y-108964482D01*
X104560498Y-109084180D01*
X104619463Y-109194494D01*
X104698815Y-109291185D01*
X104795506Y-109370537D01*
X104905820Y-109429502D01*
X105025518Y-109465812D01*
X105150000Y-109478072D01*
X105714250Y-109475000D01*
X105873000Y-109316250D01*
X105873000Y-108117000D01*
X106127000Y-108117000D01*
X106127000Y-109316250D01*
X106285750Y-109475000D01*
X106850000Y-109478072D01*
X106974482Y-109465812D01*
X107094180Y-109429502D01*
X107204494Y-109370537D01*
X107301185Y-109291185D01*
X107380537Y-109194494D01*
X107439502Y-109084180D01*
X107475812Y-108964482D01*
X107488072Y-108840000D01*
X107485000Y-108275750D01*
X107326250Y-108117000D01*
X106127000Y-108117000D01*
X105873000Y-108117000D01*
X104673750Y-108117000D01*
X104515000Y-108275750D01*
X104511928Y-108840000D01*
X101660000Y-108840000D01*
X101660000Y-107140000D01*
X104511928Y-107140000D01*
X104515000Y-107704250D01*
X104673750Y-107863000D01*
X105873000Y-107863000D01*
X105873000Y-107843000D01*
X106127000Y-107843000D01*
X106127000Y-107863000D01*
X107326250Y-107863000D01*
X107485000Y-107704250D01*
X107488072Y-107140000D01*
X107475812Y-107015518D01*
X107439502Y-106895820D01*
X107380537Y-106785506D01*
X107301185Y-106688815D01*
X107204494Y-106609463D01*
X107094180Y-106550498D01*
X107021620Y-106528487D01*
X107153475Y-106396632D01*
X107315990Y-106153411D01*
X107427932Y-105883158D01*
X107485000Y-105596260D01*
X107485000Y-105303740D01*
X107427932Y-105016842D01*
X107315990Y-104746589D01*
X107153475Y-104503368D01*
X106946632Y-104296525D01*
X106772240Y-104180000D01*
X106946632Y-104063475D01*
X107153475Y-103856632D01*
X107315990Y-103613411D01*
X107427932Y-103343158D01*
X107485000Y-103056260D01*
X107485000Y-102763740D01*
X107427932Y-102476842D01*
X107315990Y-102206589D01*
X107153475Y-101963368D01*
X106946632Y-101756525D01*
X106772240Y-101640000D01*
X106946632Y-101523475D01*
X107153475Y-101316632D01*
X107315990Y-101073411D01*
X107427932Y-100803158D01*
X107485000Y-100516260D01*
X107485000Y-100223740D01*
X107427932Y-99936842D01*
X107315990Y-99666589D01*
X107153475Y-99423368D01*
X106946632Y-99216525D01*
X106703411Y-99054010D01*
X106433158Y-98942068D01*
X106146260Y-98885000D01*
X105853740Y-98885000D01*
X105566842Y-98942068D01*
X105296589Y-99054010D01*
X105053368Y-99216525D01*
X104846525Y-99423368D01*
X104684010Y-99666589D01*
X104572068Y-99936842D01*
X104515000Y-100223740D01*
X104515000Y-100516260D01*
X104572068Y-100803158D01*
X104684010Y-101073411D01*
X104846525Y-101316632D01*
X105053368Y-101523475D01*
X105227760Y-101640000D01*
X105053368Y-101756525D01*
X104846525Y-101963368D01*
X104684010Y-102206589D01*
X104572068Y-102476842D01*
X104515000Y-102763740D01*
X104515000Y-103056260D01*
X104572068Y-103343158D01*
X104684010Y-103613411D01*
X104846525Y-103856632D01*
X105053368Y-104063475D01*
X105227760Y-104180000D01*
X105053368Y-104296525D01*
X104846525Y-104503368D01*
X104684010Y-104746589D01*
X104572068Y-105016842D01*
X104515000Y-105303740D01*
X104515000Y-105596260D01*
X104572068Y-105883158D01*
X104684010Y-106153411D01*
X104846525Y-106396632D01*
X104978380Y-106528487D01*
X104905820Y-106550498D01*
X104795506Y-106609463D01*
X104698815Y-106688815D01*
X104619463Y-106785506D01*
X104560498Y-106895820D01*
X104524188Y-107015518D01*
X104511928Y-107140000D01*
X101660000Y-107140000D01*
X101660000Y-71269872D01*
X112765000Y-71269872D01*
X112765000Y-71710128D01*
X112850890Y-72141925D01*
X113019369Y-72548669D01*
X113263962Y-72914729D01*
X113575271Y-73226038D01*
X113941331Y-73470631D01*
X114348075Y-73639110D01*
X114779872Y-73725000D01*
X115220128Y-73725000D01*
X115651925Y-73639110D01*
X116058669Y-73470631D01*
X116424729Y-73226038D01*
X116736038Y-72914729D01*
X116980631Y-72548669D01*
X117149110Y-72141925D01*
X117235000Y-71710128D01*
X117235000Y-71269872D01*
X117149110Y-70838075D01*
X116980631Y-70431331D01*
X116736038Y-70065271D01*
X116424729Y-69753962D01*
X116058669Y-69509369D01*
X115651925Y-69340890D01*
X115220128Y-69255000D01*
X114779872Y-69255000D01*
X114348075Y-69340890D01*
X113941331Y-69509369D01*
X113575271Y-69753962D01*
X113263962Y-70065271D01*
X113019369Y-70431331D01*
X112850890Y-70838075D01*
X112765000Y-71269872D01*
X101660000Y-71269872D01*
X101660000Y-58019392D01*
X101731173Y-57221917D01*
X101934656Y-56478109D01*
X102266638Y-55782095D01*
X102716626Y-55155870D01*
X103270403Y-54619223D01*
X103910451Y-54189129D01*
X104616553Y-53879171D01*
X105371457Y-53697935D01*
X106024207Y-53650000D01*
X123970608Y-53650000D01*
X124768083Y-53721173D01*
%TD*%
M02*
