M48
; DRILL file {KiCad (5.1.6)-1} date 10/09/20 22:59:08
; FORMAT={-:-/ absolute / inch / decimal}
; #@! TF.CreationDate,2020-10-09T22:59:08+02:00
; #@! TF.GenerationSoftware,Kicad,Pcbnew,(5.1.6)-1
; #@! TF.FileFunction,Plated,1,2,PTH
FMAT,2
INCH
T1C0.0118
T2C0.0394
%
G90
G05
T1
X4.1339Y-5.2752
X4.1339Y-5.472
X4.1339Y-5.6689
X4.2205Y-4.785
X4.2215Y-4.4297
X4.3307Y-5.2752
X4.3307Y-5.472
X4.3307Y-5.6689
X4.4252Y-4.8165
X4.5118Y-4.1217
X4.5276Y-5.2752
X4.6102Y-4.724
X4.7008Y-4.8402
X4.7244Y-5.2752
X4.748Y-4.1374
X4.7638Y-2.6079
X4.7638Y-3.1984
X4.7638Y-3.9858
X4.8228Y-4.3146
X4.9213Y-3.6217
X4.9213Y-3.7004
X5.0Y-3.6217
X5.0Y-3.7004
T2
X4.1732Y-3.9516
X4.1732Y-4.0516
X4.1732Y-4.1516
X4.1732Y-4.2516
T0
M30
