%TF.GenerationSoftware,KiCad,Pcbnew,(5.1.6)-1*%
%TF.CreationDate,2020-10-09T22:59:05+02:00*%
%TF.ProjectId,zlpcba_f103c8,7a6c7063-6261-45f6-9631-303363382e6b,rev?*%
%TF.SameCoordinates,Original*%
%TF.FileFunction,Copper,L1,Top*%
%TF.FilePolarity,Positive*%
%FSLAX46Y46*%
G04 Gerber Fmt 4.6, Leading zero omitted, Abs format (unit mm)*
G04 Created by KiCad (PCBNEW (5.1.6)-1) date 2020-10-09 22:59:05*
%MOMM*%
%LPD*%
G01*
G04 APERTURE LIST*
%TA.AperFunction,ComponentPad*%
%ADD10O,1.700000X1.700000*%
%TD*%
%TA.AperFunction,ComponentPad*%
%ADD11R,1.700000X1.700000*%
%TD*%
%TA.AperFunction,SMDPad,CuDef*%
%ADD12R,1.550000X1.300000*%
%TD*%
%TA.AperFunction,SMDPad,CuDef*%
%ADD13R,2.000000X1.500000*%
%TD*%
%TA.AperFunction,SMDPad,CuDef*%
%ADD14R,2.000000X3.800000*%
%TD*%
%TA.AperFunction,SMDPad,CuDef*%
%ADD15R,1.000000X1.800000*%
%TD*%
%TA.AperFunction,SMDPad,CuDef*%
%ADD16R,2.000000X2.400000*%
%TD*%
%TA.AperFunction,SMDPad,CuDef*%
%ADD17C,0.100000*%
%TD*%
%TA.AperFunction,ViaPad*%
%ADD18C,0.600000*%
%TD*%
%TA.AperFunction,Conductor*%
%ADD19C,0.200000*%
%TD*%
%TA.AperFunction,Conductor*%
%ADD20C,0.254000*%
%TD*%
G04 APERTURE END LIST*
%TO.P,J4,2*%
%TO.N,/FD_analog*%
%TA.AperFunction,SMDPad,CuDef*%
G36*
G01*
X115508000Y-56014000D02*
X115508000Y-53776000D01*
G75*
G02*
X115889000Y-53395000I381000J0D01*
G01*
X116651000Y-53395000D01*
G75*
G02*
X117032000Y-53776000I0J-381000D01*
G01*
X117032000Y-56014000D01*
G75*
G02*
X116651000Y-56395000I-381000J0D01*
G01*
X115889000Y-56395000D01*
G75*
G02*
X115508000Y-56014000I0J381000D01*
G01*
G37*
%TD.AperFunction*%
%TO.P,J4,1*%
%TO.N,VDD*%
%TA.AperFunction,SMDPad,CuDef*%
G36*
G01*
X112968000Y-56014000D02*
X112968000Y-53776000D01*
G75*
G02*
X113349000Y-53395000I381000J0D01*
G01*
X114111000Y-53395000D01*
G75*
G02*
X114492000Y-53776000I0J-381000D01*
G01*
X114492000Y-56014000D01*
G75*
G02*
X114111000Y-56395000I-381000J0D01*
G01*
X113349000Y-56395000D01*
G75*
G02*
X112968000Y-56014000I0J381000D01*
G01*
G37*
%TD.AperFunction*%
%TD*%
%TO.P,J3,3*%
%TO.N,+5V*%
%TA.AperFunction,SMDPad,CuDef*%
G36*
G01*
X126081000Y-100768000D02*
X128319000Y-100768000D01*
G75*
G02*
X128700000Y-101149000I0J-381000D01*
G01*
X128700000Y-101911000D01*
G75*
G02*
X128319000Y-102292000I-381000J0D01*
G01*
X126081000Y-102292000D01*
G75*
G02*
X125700000Y-101911000I0J381000D01*
G01*
X125700000Y-101149000D01*
G75*
G02*
X126081000Y-100768000I381000J0D01*
G01*
G37*
%TD.AperFunction*%
%TO.P,J3,2*%
%TO.N,/LED_DATA*%
%TA.AperFunction,SMDPad,CuDef*%
G36*
G01*
X126081000Y-98228000D02*
X128319000Y-98228000D01*
G75*
G02*
X128700000Y-98609000I0J-381000D01*
G01*
X128700000Y-99371000D01*
G75*
G02*
X128319000Y-99752000I-381000J0D01*
G01*
X126081000Y-99752000D01*
G75*
G02*
X125700000Y-99371000I0J381000D01*
G01*
X125700000Y-98609000D01*
G75*
G02*
X126081000Y-98228000I381000J0D01*
G01*
G37*
%TD.AperFunction*%
%TO.P,J3,1*%
%TO.N,GND*%
%TA.AperFunction,SMDPad,CuDef*%
G36*
G01*
X126081000Y-95688000D02*
X128319000Y-95688000D01*
G75*
G02*
X128700000Y-96069000I0J-381000D01*
G01*
X128700000Y-96831000D01*
G75*
G02*
X128319000Y-97212000I-381000J0D01*
G01*
X126081000Y-97212000D01*
G75*
G02*
X125700000Y-96831000I0J381000D01*
G01*
X125700000Y-96069000D01*
G75*
G02*
X126081000Y-95688000I381000J0D01*
G01*
G37*
%TD.AperFunction*%
%TD*%
%TO.P,J1,2*%
%TO.N,+5V*%
%TA.AperFunction,SMDPad,CuDef*%
G36*
G01*
X115508000Y-146109000D02*
X115508000Y-143871000D01*
G75*
G02*
X115889000Y-143490000I381000J0D01*
G01*
X116651000Y-143490000D01*
G75*
G02*
X117032000Y-143871000I0J-381000D01*
G01*
X117032000Y-146109000D01*
G75*
G02*
X116651000Y-146490000I-381000J0D01*
G01*
X115889000Y-146490000D01*
G75*
G02*
X115508000Y-146109000I0J381000D01*
G01*
G37*
%TD.AperFunction*%
%TO.P,J1,1*%
%TO.N,GND*%
%TA.AperFunction,SMDPad,CuDef*%
G36*
G01*
X112968000Y-146109000D02*
X112968000Y-143871000D01*
G75*
G02*
X113349000Y-143490000I381000J0D01*
G01*
X114111000Y-143490000D01*
G75*
G02*
X114492000Y-143871000I0J-381000D01*
G01*
X114492000Y-146109000D01*
G75*
G02*
X114111000Y-146490000I-381000J0D01*
G01*
X113349000Y-146490000D01*
G75*
G02*
X112968000Y-146109000I0J381000D01*
G01*
G37*
%TD.AperFunction*%
%TD*%
D10*
%TO.P,J2,4*%
%TO.N,VDD*%
X106000000Y-100370000D03*
%TO.P,J2,3*%
%TO.N,/SW_DIO*%
X106000000Y-102910000D03*
%TO.P,J2,2*%
%TO.N,/SW_CLK*%
X106000000Y-105450000D03*
D11*
%TO.P,J2,1*%
%TO.N,GND*%
X106000000Y-107990000D03*
%TD*%
D12*
%TO.P,SW3,2*%
%TO.N,GND*%
X118980000Y-101240000D03*
%TO.P,SW3,1*%
%TO.N,/SW_3*%
X118980000Y-96740000D03*
X111020000Y-96740000D03*
%TO.P,SW3,2*%
%TO.N,GND*%
X111020000Y-101240000D03*
%TD*%
%TO.P,SW2,2*%
%TO.N,GND*%
X118980000Y-81240000D03*
%TO.P,SW2,1*%
%TO.N,/SW_2*%
X118980000Y-76740000D03*
X111020000Y-76740000D03*
%TO.P,SW2,2*%
%TO.N,GND*%
X111020000Y-81240000D03*
%TD*%
%TO.P,SW1,2*%
%TO.N,GND*%
X118980000Y-66240000D03*
%TO.P,SW1,1*%
%TO.N,/SW_1*%
X118980000Y-61740000D03*
X111020000Y-61740000D03*
%TO.P,SW1,2*%
%TO.N,GND*%
X111020000Y-66240000D03*
%TD*%
%TO.P,R2,2*%
%TO.N,GND*%
%TA.AperFunction,SMDPad,CuDef*%
G36*
G01*
X121810000Y-104907500D02*
X121810000Y-105252500D01*
G75*
G02*
X121662500Y-105400000I-147500J0D01*
G01*
X121367500Y-105400000D01*
G75*
G02*
X121220000Y-105252500I0J147500D01*
G01*
X121220000Y-104907500D01*
G75*
G02*
X121367500Y-104760000I147500J0D01*
G01*
X121662500Y-104760000D01*
G75*
G02*
X121810000Y-104907500I0J-147500D01*
G01*
G37*
%TD.AperFunction*%
%TO.P,R2,1*%
%TO.N,/FD_analog*%
%TA.AperFunction,SMDPad,CuDef*%
G36*
G01*
X122780000Y-104907500D02*
X122780000Y-105252500D01*
G75*
G02*
X122632500Y-105400000I-147500J0D01*
G01*
X122337500Y-105400000D01*
G75*
G02*
X122190000Y-105252500I0J147500D01*
G01*
X122190000Y-104907500D01*
G75*
G02*
X122337500Y-104760000I147500J0D01*
G01*
X122632500Y-104760000D01*
G75*
G02*
X122780000Y-104907500I0J-147500D01*
G01*
G37*
%TD.AperFunction*%
%TD*%
D13*
%TO.P,U2,1*%
%TO.N,GND*%
X116310000Y-131090000D03*
%TO.P,U2,3*%
%TO.N,+5V*%
X116310000Y-126490000D03*
%TO.P,U2,2*%
%TO.N,VDD*%
X116310000Y-128790000D03*
D14*
X110010000Y-128790000D03*
%TD*%
%TO.P,C12,2*%
%TO.N,GND*%
%TA.AperFunction,SMDPad,CuDef*%
G36*
G01*
X122043750Y-128440000D02*
X122956250Y-128440000D01*
G75*
G02*
X123200000Y-128683750I0J-243750D01*
G01*
X123200000Y-129171250D01*
G75*
G02*
X122956250Y-129415000I-243750J0D01*
G01*
X122043750Y-129415000D01*
G75*
G02*
X121800000Y-129171250I0J243750D01*
G01*
X121800000Y-128683750D01*
G75*
G02*
X122043750Y-128440000I243750J0D01*
G01*
G37*
%TD.AperFunction*%
%TO.P,C12,1*%
%TO.N,+5V*%
%TA.AperFunction,SMDPad,CuDef*%
G36*
G01*
X122043750Y-126565000D02*
X122956250Y-126565000D01*
G75*
G02*
X123200000Y-126808750I0J-243750D01*
G01*
X123200000Y-127296250D01*
G75*
G02*
X122956250Y-127540000I-243750J0D01*
G01*
X122043750Y-127540000D01*
G75*
G02*
X121800000Y-127296250I0J243750D01*
G01*
X121800000Y-126808750D01*
G75*
G02*
X122043750Y-126565000I243750J0D01*
G01*
G37*
%TD.AperFunction*%
%TD*%
%TO.P,C11,2*%
%TO.N,GND*%
%TA.AperFunction,SMDPad,CuDef*%
G36*
G01*
X118754999Y-130865000D02*
X120605001Y-130865000D01*
G75*
G02*
X120855000Y-131114999I0J-249999D01*
G01*
X120855000Y-131940001D01*
G75*
G02*
X120605001Y-132190000I-249999J0D01*
G01*
X118754999Y-132190000D01*
G75*
G02*
X118505000Y-131940001I0J249999D01*
G01*
X118505000Y-131114999D01*
G75*
G02*
X118754999Y-130865000I249999J0D01*
G01*
G37*
%TD.AperFunction*%
%TO.P,C11,1*%
%TO.N,VDD*%
%TA.AperFunction,SMDPad,CuDef*%
G36*
G01*
X118754999Y-127790000D02*
X120605001Y-127790000D01*
G75*
G02*
X120855000Y-128039999I0J-249999D01*
G01*
X120855000Y-128865001D01*
G75*
G02*
X120605001Y-129115000I-249999J0D01*
G01*
X118754999Y-129115000D01*
G75*
G02*
X118505000Y-128865001I0J249999D01*
G01*
X118505000Y-128039999D01*
G75*
G02*
X118754999Y-127790000I249999J0D01*
G01*
G37*
%TD.AperFunction*%
%TD*%
D15*
%TO.P,Y2,2*%
%TO.N,Net-(C9-Pad1)*%
X105950000Y-119020000D03*
%TO.P,Y2,1*%
%TO.N,Net-(C10-Pad1)*%
X108450000Y-119020000D03*
%TD*%
D16*
%TO.P,Y1,2*%
%TO.N,Net-(C5-Pad1)*%
X110550000Y-119720000D03*
%TO.P,Y1,1*%
%TO.N,Net-(C6-Pad1)*%
X114250000Y-119720000D03*
%TD*%
%TO.P,U1,48*%
%TO.N,VDD*%
%TA.AperFunction,SMDPad,CuDef*%
G36*
G01*
X112600000Y-114320000D02*
X111275000Y-114320000D01*
G75*
G02*
X111200000Y-114245000I0J75000D01*
G01*
X111200000Y-114095000D01*
G75*
G02*
X111275000Y-114020000I75000J0D01*
G01*
X112600000Y-114020000D01*
G75*
G02*
X112675000Y-114095000I0J-75000D01*
G01*
X112675000Y-114245000D01*
G75*
G02*
X112600000Y-114320000I-75000J0D01*
G01*
G37*
%TD.AperFunction*%
%TO.P,U1,47*%
%TO.N,GND*%
%TA.AperFunction,SMDPad,CuDef*%
G36*
G01*
X112600000Y-113820000D02*
X111275000Y-113820000D01*
G75*
G02*
X111200000Y-113745000I0J75000D01*
G01*
X111200000Y-113595000D01*
G75*
G02*
X111275000Y-113520000I75000J0D01*
G01*
X112600000Y-113520000D01*
G75*
G02*
X112675000Y-113595000I0J-75000D01*
G01*
X112675000Y-113745000D01*
G75*
G02*
X112600000Y-113820000I-75000J0D01*
G01*
G37*
%TD.AperFunction*%
%TO.P,U1,46*%
%TO.N,Net-(U1-Pad46)*%
%TA.AperFunction,SMDPad,CuDef*%
G36*
G01*
X112600000Y-113320000D02*
X111275000Y-113320000D01*
G75*
G02*
X111200000Y-113245000I0J75000D01*
G01*
X111200000Y-113095000D01*
G75*
G02*
X111275000Y-113020000I75000J0D01*
G01*
X112600000Y-113020000D01*
G75*
G02*
X112675000Y-113095000I0J-75000D01*
G01*
X112675000Y-113245000D01*
G75*
G02*
X112600000Y-113320000I-75000J0D01*
G01*
G37*
%TD.AperFunction*%
%TO.P,U1,45*%
%TO.N,Net-(U1-Pad45)*%
%TA.AperFunction,SMDPad,CuDef*%
G36*
G01*
X112600000Y-112820000D02*
X111275000Y-112820000D01*
G75*
G02*
X111200000Y-112745000I0J75000D01*
G01*
X111200000Y-112595000D01*
G75*
G02*
X111275000Y-112520000I75000J0D01*
G01*
X112600000Y-112520000D01*
G75*
G02*
X112675000Y-112595000I0J-75000D01*
G01*
X112675000Y-112745000D01*
G75*
G02*
X112600000Y-112820000I-75000J0D01*
G01*
G37*
%TD.AperFunction*%
%TO.P,U1,44*%
%TO.N,GND*%
%TA.AperFunction,SMDPad,CuDef*%
G36*
G01*
X112600000Y-112320000D02*
X111275000Y-112320000D01*
G75*
G02*
X111200000Y-112245000I0J75000D01*
G01*
X111200000Y-112095000D01*
G75*
G02*
X111275000Y-112020000I75000J0D01*
G01*
X112600000Y-112020000D01*
G75*
G02*
X112675000Y-112095000I0J-75000D01*
G01*
X112675000Y-112245000D01*
G75*
G02*
X112600000Y-112320000I-75000J0D01*
G01*
G37*
%TD.AperFunction*%
%TO.P,U1,43*%
%TO.N,Net-(U1-Pad43)*%
%TA.AperFunction,SMDPad,CuDef*%
G36*
G01*
X112600000Y-111820000D02*
X111275000Y-111820000D01*
G75*
G02*
X111200000Y-111745000I0J75000D01*
G01*
X111200000Y-111595000D01*
G75*
G02*
X111275000Y-111520000I75000J0D01*
G01*
X112600000Y-111520000D01*
G75*
G02*
X112675000Y-111595000I0J-75000D01*
G01*
X112675000Y-111745000D01*
G75*
G02*
X112600000Y-111820000I-75000J0D01*
G01*
G37*
%TD.AperFunction*%
%TO.P,U1,42*%
%TO.N,Net-(U1-Pad42)*%
%TA.AperFunction,SMDPad,CuDef*%
G36*
G01*
X112600000Y-111320000D02*
X111275000Y-111320000D01*
G75*
G02*
X111200000Y-111245000I0J75000D01*
G01*
X111200000Y-111095000D01*
G75*
G02*
X111275000Y-111020000I75000J0D01*
G01*
X112600000Y-111020000D01*
G75*
G02*
X112675000Y-111095000I0J-75000D01*
G01*
X112675000Y-111245000D01*
G75*
G02*
X112600000Y-111320000I-75000J0D01*
G01*
G37*
%TD.AperFunction*%
%TO.P,U1,41*%
%TO.N,Net-(U1-Pad41)*%
%TA.AperFunction,SMDPad,CuDef*%
G36*
G01*
X112600000Y-110820000D02*
X111275000Y-110820000D01*
G75*
G02*
X111200000Y-110745000I0J75000D01*
G01*
X111200000Y-110595000D01*
G75*
G02*
X111275000Y-110520000I75000J0D01*
G01*
X112600000Y-110520000D01*
G75*
G02*
X112675000Y-110595000I0J-75000D01*
G01*
X112675000Y-110745000D01*
G75*
G02*
X112600000Y-110820000I-75000J0D01*
G01*
G37*
%TD.AperFunction*%
%TO.P,U1,40*%
%TO.N,Net-(U1-Pad40)*%
%TA.AperFunction,SMDPad,CuDef*%
G36*
G01*
X112600000Y-110320000D02*
X111275000Y-110320000D01*
G75*
G02*
X111200000Y-110245000I0J75000D01*
G01*
X111200000Y-110095000D01*
G75*
G02*
X111275000Y-110020000I75000J0D01*
G01*
X112600000Y-110020000D01*
G75*
G02*
X112675000Y-110095000I0J-75000D01*
G01*
X112675000Y-110245000D01*
G75*
G02*
X112600000Y-110320000I-75000J0D01*
G01*
G37*
%TD.AperFunction*%
%TO.P,U1,39*%
%TO.N,Net-(U1-Pad39)*%
%TA.AperFunction,SMDPad,CuDef*%
G36*
G01*
X112600000Y-109820000D02*
X111275000Y-109820000D01*
G75*
G02*
X111200000Y-109745000I0J75000D01*
G01*
X111200000Y-109595000D01*
G75*
G02*
X111275000Y-109520000I75000J0D01*
G01*
X112600000Y-109520000D01*
G75*
G02*
X112675000Y-109595000I0J-75000D01*
G01*
X112675000Y-109745000D01*
G75*
G02*
X112600000Y-109820000I-75000J0D01*
G01*
G37*
%TD.AperFunction*%
%TO.P,U1,38*%
%TO.N,Net-(U1-Pad38)*%
%TA.AperFunction,SMDPad,CuDef*%
G36*
G01*
X112600000Y-109320000D02*
X111275000Y-109320000D01*
G75*
G02*
X111200000Y-109245000I0J75000D01*
G01*
X111200000Y-109095000D01*
G75*
G02*
X111275000Y-109020000I75000J0D01*
G01*
X112600000Y-109020000D01*
G75*
G02*
X112675000Y-109095000I0J-75000D01*
G01*
X112675000Y-109245000D01*
G75*
G02*
X112600000Y-109320000I-75000J0D01*
G01*
G37*
%TD.AperFunction*%
%TO.P,U1,37*%
%TO.N,/SW_CLK*%
%TA.AperFunction,SMDPad,CuDef*%
G36*
G01*
X112600000Y-108820000D02*
X111275000Y-108820000D01*
G75*
G02*
X111200000Y-108745000I0J75000D01*
G01*
X111200000Y-108595000D01*
G75*
G02*
X111275000Y-108520000I75000J0D01*
G01*
X112600000Y-108520000D01*
G75*
G02*
X112675000Y-108595000I0J-75000D01*
G01*
X112675000Y-108745000D01*
G75*
G02*
X112600000Y-108820000I-75000J0D01*
G01*
G37*
%TD.AperFunction*%
%TO.P,U1,36*%
%TO.N,VDD*%
%TA.AperFunction,SMDPad,CuDef*%
G36*
G01*
X113425000Y-107995000D02*
X113275000Y-107995000D01*
G75*
G02*
X113200000Y-107920000I0J75000D01*
G01*
X113200000Y-106595000D01*
G75*
G02*
X113275000Y-106520000I75000J0D01*
G01*
X113425000Y-106520000D01*
G75*
G02*
X113500000Y-106595000I0J-75000D01*
G01*
X113500000Y-107920000D01*
G75*
G02*
X113425000Y-107995000I-75000J0D01*
G01*
G37*
%TD.AperFunction*%
%TO.P,U1,35*%
%TO.N,GND*%
%TA.AperFunction,SMDPad,CuDef*%
G36*
G01*
X113925000Y-107995000D02*
X113775000Y-107995000D01*
G75*
G02*
X113700000Y-107920000I0J75000D01*
G01*
X113700000Y-106595000D01*
G75*
G02*
X113775000Y-106520000I75000J0D01*
G01*
X113925000Y-106520000D01*
G75*
G02*
X114000000Y-106595000I0J-75000D01*
G01*
X114000000Y-107920000D01*
G75*
G02*
X113925000Y-107995000I-75000J0D01*
G01*
G37*
%TD.AperFunction*%
%TO.P,U1,34*%
%TO.N,/SW_DIO*%
%TA.AperFunction,SMDPad,CuDef*%
G36*
G01*
X114425000Y-107995000D02*
X114275000Y-107995000D01*
G75*
G02*
X114200000Y-107920000I0J75000D01*
G01*
X114200000Y-106595000D01*
G75*
G02*
X114275000Y-106520000I75000J0D01*
G01*
X114425000Y-106520000D01*
G75*
G02*
X114500000Y-106595000I0J-75000D01*
G01*
X114500000Y-107920000D01*
G75*
G02*
X114425000Y-107995000I-75000J0D01*
G01*
G37*
%TD.AperFunction*%
%TO.P,U1,33*%
%TO.N,Net-(U1-Pad33)*%
%TA.AperFunction,SMDPad,CuDef*%
G36*
G01*
X114925000Y-107995000D02*
X114775000Y-107995000D01*
G75*
G02*
X114700000Y-107920000I0J75000D01*
G01*
X114700000Y-106595000D01*
G75*
G02*
X114775000Y-106520000I75000J0D01*
G01*
X114925000Y-106520000D01*
G75*
G02*
X115000000Y-106595000I0J-75000D01*
G01*
X115000000Y-107920000D01*
G75*
G02*
X114925000Y-107995000I-75000J0D01*
G01*
G37*
%TD.AperFunction*%
%TO.P,U1,32*%
%TO.N,Net-(U1-Pad32)*%
%TA.AperFunction,SMDPad,CuDef*%
G36*
G01*
X115425000Y-107995000D02*
X115275000Y-107995000D01*
G75*
G02*
X115200000Y-107920000I0J75000D01*
G01*
X115200000Y-106595000D01*
G75*
G02*
X115275000Y-106520000I75000J0D01*
G01*
X115425000Y-106520000D01*
G75*
G02*
X115500000Y-106595000I0J-75000D01*
G01*
X115500000Y-107920000D01*
G75*
G02*
X115425000Y-107995000I-75000J0D01*
G01*
G37*
%TD.AperFunction*%
%TO.P,U1,31*%
%TO.N,/SW_1*%
%TA.AperFunction,SMDPad,CuDef*%
G36*
G01*
X115925000Y-107995000D02*
X115775000Y-107995000D01*
G75*
G02*
X115700000Y-107920000I0J75000D01*
G01*
X115700000Y-106595000D01*
G75*
G02*
X115775000Y-106520000I75000J0D01*
G01*
X115925000Y-106520000D01*
G75*
G02*
X116000000Y-106595000I0J-75000D01*
G01*
X116000000Y-107920000D01*
G75*
G02*
X115925000Y-107995000I-75000J0D01*
G01*
G37*
%TD.AperFunction*%
%TO.P,U1,30*%
%TO.N,/SW_2*%
%TA.AperFunction,SMDPad,CuDef*%
G36*
G01*
X116425000Y-107995000D02*
X116275000Y-107995000D01*
G75*
G02*
X116200000Y-107920000I0J75000D01*
G01*
X116200000Y-106595000D01*
G75*
G02*
X116275000Y-106520000I75000J0D01*
G01*
X116425000Y-106520000D01*
G75*
G02*
X116500000Y-106595000I0J-75000D01*
G01*
X116500000Y-107920000D01*
G75*
G02*
X116425000Y-107995000I-75000J0D01*
G01*
G37*
%TD.AperFunction*%
%TO.P,U1,29*%
%TO.N,/SW_3*%
%TA.AperFunction,SMDPad,CuDef*%
G36*
G01*
X116925000Y-107995000D02*
X116775000Y-107995000D01*
G75*
G02*
X116700000Y-107920000I0J75000D01*
G01*
X116700000Y-106595000D01*
G75*
G02*
X116775000Y-106520000I75000J0D01*
G01*
X116925000Y-106520000D01*
G75*
G02*
X117000000Y-106595000I0J-75000D01*
G01*
X117000000Y-107920000D01*
G75*
G02*
X116925000Y-107995000I-75000J0D01*
G01*
G37*
%TD.AperFunction*%
%TO.P,U1,28*%
%TO.N,Net-(U1-Pad28)*%
%TA.AperFunction,SMDPad,CuDef*%
G36*
G01*
X117425000Y-107995000D02*
X117275000Y-107995000D01*
G75*
G02*
X117200000Y-107920000I0J75000D01*
G01*
X117200000Y-106595000D01*
G75*
G02*
X117275000Y-106520000I75000J0D01*
G01*
X117425000Y-106520000D01*
G75*
G02*
X117500000Y-106595000I0J-75000D01*
G01*
X117500000Y-107920000D01*
G75*
G02*
X117425000Y-107995000I-75000J0D01*
G01*
G37*
%TD.AperFunction*%
%TO.P,U1,27*%
%TO.N,Net-(U1-Pad27)*%
%TA.AperFunction,SMDPad,CuDef*%
G36*
G01*
X117925000Y-107995000D02*
X117775000Y-107995000D01*
G75*
G02*
X117700000Y-107920000I0J75000D01*
G01*
X117700000Y-106595000D01*
G75*
G02*
X117775000Y-106520000I75000J0D01*
G01*
X117925000Y-106520000D01*
G75*
G02*
X118000000Y-106595000I0J-75000D01*
G01*
X118000000Y-107920000D01*
G75*
G02*
X117925000Y-107995000I-75000J0D01*
G01*
G37*
%TD.AperFunction*%
%TO.P,U1,26*%
%TO.N,Net-(U1-Pad26)*%
%TA.AperFunction,SMDPad,CuDef*%
G36*
G01*
X118425000Y-107995000D02*
X118275000Y-107995000D01*
G75*
G02*
X118200000Y-107920000I0J75000D01*
G01*
X118200000Y-106595000D01*
G75*
G02*
X118275000Y-106520000I75000J0D01*
G01*
X118425000Y-106520000D01*
G75*
G02*
X118500000Y-106595000I0J-75000D01*
G01*
X118500000Y-107920000D01*
G75*
G02*
X118425000Y-107995000I-75000J0D01*
G01*
G37*
%TD.AperFunction*%
%TO.P,U1,25*%
%TO.N,Net-(U1-Pad25)*%
%TA.AperFunction,SMDPad,CuDef*%
G36*
G01*
X118925000Y-107995000D02*
X118775000Y-107995000D01*
G75*
G02*
X118700000Y-107920000I0J75000D01*
G01*
X118700000Y-106595000D01*
G75*
G02*
X118775000Y-106520000I75000J0D01*
G01*
X118925000Y-106520000D01*
G75*
G02*
X119000000Y-106595000I0J-75000D01*
G01*
X119000000Y-107920000D01*
G75*
G02*
X118925000Y-107995000I-75000J0D01*
G01*
G37*
%TD.AperFunction*%
%TO.P,U1,24*%
%TO.N,VDD*%
%TA.AperFunction,SMDPad,CuDef*%
G36*
G01*
X120925000Y-108820000D02*
X119600000Y-108820000D01*
G75*
G02*
X119525000Y-108745000I0J75000D01*
G01*
X119525000Y-108595000D01*
G75*
G02*
X119600000Y-108520000I75000J0D01*
G01*
X120925000Y-108520000D01*
G75*
G02*
X121000000Y-108595000I0J-75000D01*
G01*
X121000000Y-108745000D01*
G75*
G02*
X120925000Y-108820000I-75000J0D01*
G01*
G37*
%TD.AperFunction*%
%TO.P,U1,23*%
%TO.N,GND*%
%TA.AperFunction,SMDPad,CuDef*%
G36*
G01*
X120925000Y-109320000D02*
X119600000Y-109320000D01*
G75*
G02*
X119525000Y-109245000I0J75000D01*
G01*
X119525000Y-109095000D01*
G75*
G02*
X119600000Y-109020000I75000J0D01*
G01*
X120925000Y-109020000D01*
G75*
G02*
X121000000Y-109095000I0J-75000D01*
G01*
X121000000Y-109245000D01*
G75*
G02*
X120925000Y-109320000I-75000J0D01*
G01*
G37*
%TD.AperFunction*%
%TO.P,U1,22*%
%TO.N,Net-(U1-Pad22)*%
%TA.AperFunction,SMDPad,CuDef*%
G36*
G01*
X120925000Y-109820000D02*
X119600000Y-109820000D01*
G75*
G02*
X119525000Y-109745000I0J75000D01*
G01*
X119525000Y-109595000D01*
G75*
G02*
X119600000Y-109520000I75000J0D01*
G01*
X120925000Y-109520000D01*
G75*
G02*
X121000000Y-109595000I0J-75000D01*
G01*
X121000000Y-109745000D01*
G75*
G02*
X120925000Y-109820000I-75000J0D01*
G01*
G37*
%TD.AperFunction*%
%TO.P,U1,21*%
%TO.N,Net-(U1-Pad21)*%
%TA.AperFunction,SMDPad,CuDef*%
G36*
G01*
X120925000Y-110320000D02*
X119600000Y-110320000D01*
G75*
G02*
X119525000Y-110245000I0J75000D01*
G01*
X119525000Y-110095000D01*
G75*
G02*
X119600000Y-110020000I75000J0D01*
G01*
X120925000Y-110020000D01*
G75*
G02*
X121000000Y-110095000I0J-75000D01*
G01*
X121000000Y-110245000D01*
G75*
G02*
X120925000Y-110320000I-75000J0D01*
G01*
G37*
%TD.AperFunction*%
%TO.P,U1,20*%
%TO.N,Net-(U1-Pad20)*%
%TA.AperFunction,SMDPad,CuDef*%
G36*
G01*
X120925000Y-110820000D02*
X119600000Y-110820000D01*
G75*
G02*
X119525000Y-110745000I0J75000D01*
G01*
X119525000Y-110595000D01*
G75*
G02*
X119600000Y-110520000I75000J0D01*
G01*
X120925000Y-110520000D01*
G75*
G02*
X121000000Y-110595000I0J-75000D01*
G01*
X121000000Y-110745000D01*
G75*
G02*
X120925000Y-110820000I-75000J0D01*
G01*
G37*
%TD.AperFunction*%
%TO.P,U1,19*%
%TO.N,/FD_analog*%
%TA.AperFunction,SMDPad,CuDef*%
G36*
G01*
X120925000Y-111320000D02*
X119600000Y-111320000D01*
G75*
G02*
X119525000Y-111245000I0J75000D01*
G01*
X119525000Y-111095000D01*
G75*
G02*
X119600000Y-111020000I75000J0D01*
G01*
X120925000Y-111020000D01*
G75*
G02*
X121000000Y-111095000I0J-75000D01*
G01*
X121000000Y-111245000D01*
G75*
G02*
X120925000Y-111320000I-75000J0D01*
G01*
G37*
%TD.AperFunction*%
%TO.P,U1,18*%
%TO.N,Net-(U1-Pad18)*%
%TA.AperFunction,SMDPad,CuDef*%
G36*
G01*
X120925000Y-111820000D02*
X119600000Y-111820000D01*
G75*
G02*
X119525000Y-111745000I0J75000D01*
G01*
X119525000Y-111595000D01*
G75*
G02*
X119600000Y-111520000I75000J0D01*
G01*
X120925000Y-111520000D01*
G75*
G02*
X121000000Y-111595000I0J-75000D01*
G01*
X121000000Y-111745000D01*
G75*
G02*
X120925000Y-111820000I-75000J0D01*
G01*
G37*
%TD.AperFunction*%
%TO.P,U1,17*%
%TO.N,/LED_DATA*%
%TA.AperFunction,SMDPad,CuDef*%
G36*
G01*
X120925000Y-112320000D02*
X119600000Y-112320000D01*
G75*
G02*
X119525000Y-112245000I0J75000D01*
G01*
X119525000Y-112095000D01*
G75*
G02*
X119600000Y-112020000I75000J0D01*
G01*
X120925000Y-112020000D01*
G75*
G02*
X121000000Y-112095000I0J-75000D01*
G01*
X121000000Y-112245000D01*
G75*
G02*
X120925000Y-112320000I-75000J0D01*
G01*
G37*
%TD.AperFunction*%
%TO.P,U1,16*%
%TO.N,Net-(U1-Pad16)*%
%TA.AperFunction,SMDPad,CuDef*%
G36*
G01*
X120925000Y-112820000D02*
X119600000Y-112820000D01*
G75*
G02*
X119525000Y-112745000I0J75000D01*
G01*
X119525000Y-112595000D01*
G75*
G02*
X119600000Y-112520000I75000J0D01*
G01*
X120925000Y-112520000D01*
G75*
G02*
X121000000Y-112595000I0J-75000D01*
G01*
X121000000Y-112745000D01*
G75*
G02*
X120925000Y-112820000I-75000J0D01*
G01*
G37*
%TD.AperFunction*%
%TO.P,U1,15*%
%TO.N,Net-(U1-Pad15)*%
%TA.AperFunction,SMDPad,CuDef*%
G36*
G01*
X120925000Y-113320000D02*
X119600000Y-113320000D01*
G75*
G02*
X119525000Y-113245000I0J75000D01*
G01*
X119525000Y-113095000D01*
G75*
G02*
X119600000Y-113020000I75000J0D01*
G01*
X120925000Y-113020000D01*
G75*
G02*
X121000000Y-113095000I0J-75000D01*
G01*
X121000000Y-113245000D01*
G75*
G02*
X120925000Y-113320000I-75000J0D01*
G01*
G37*
%TD.AperFunction*%
%TO.P,U1,14*%
%TO.N,Net-(U1-Pad14)*%
%TA.AperFunction,SMDPad,CuDef*%
G36*
G01*
X120925000Y-113820000D02*
X119600000Y-113820000D01*
G75*
G02*
X119525000Y-113745000I0J75000D01*
G01*
X119525000Y-113595000D01*
G75*
G02*
X119600000Y-113520000I75000J0D01*
G01*
X120925000Y-113520000D01*
G75*
G02*
X121000000Y-113595000I0J-75000D01*
G01*
X121000000Y-113745000D01*
G75*
G02*
X120925000Y-113820000I-75000J0D01*
G01*
G37*
%TD.AperFunction*%
%TO.P,U1,13*%
%TO.N,Net-(U1-Pad13)*%
%TA.AperFunction,SMDPad,CuDef*%
G36*
G01*
X120925000Y-114320000D02*
X119600000Y-114320000D01*
G75*
G02*
X119525000Y-114245000I0J75000D01*
G01*
X119525000Y-114095000D01*
G75*
G02*
X119600000Y-114020000I75000J0D01*
G01*
X120925000Y-114020000D01*
G75*
G02*
X121000000Y-114095000I0J-75000D01*
G01*
X121000000Y-114245000D01*
G75*
G02*
X120925000Y-114320000I-75000J0D01*
G01*
G37*
%TD.AperFunction*%
%TO.P,U1,12*%
%TO.N,Net-(U1-Pad12)*%
%TA.AperFunction,SMDPad,CuDef*%
G36*
G01*
X118925000Y-116320000D02*
X118775000Y-116320000D01*
G75*
G02*
X118700000Y-116245000I0J75000D01*
G01*
X118700000Y-114920000D01*
G75*
G02*
X118775000Y-114845000I75000J0D01*
G01*
X118925000Y-114845000D01*
G75*
G02*
X119000000Y-114920000I0J-75000D01*
G01*
X119000000Y-116245000D01*
G75*
G02*
X118925000Y-116320000I-75000J0D01*
G01*
G37*
%TD.AperFunction*%
%TO.P,U1,11*%
%TO.N,Net-(U1-Pad11)*%
%TA.AperFunction,SMDPad,CuDef*%
G36*
G01*
X118425000Y-116320000D02*
X118275000Y-116320000D01*
G75*
G02*
X118200000Y-116245000I0J75000D01*
G01*
X118200000Y-114920000D01*
G75*
G02*
X118275000Y-114845000I75000J0D01*
G01*
X118425000Y-114845000D01*
G75*
G02*
X118500000Y-114920000I0J-75000D01*
G01*
X118500000Y-116245000D01*
G75*
G02*
X118425000Y-116320000I-75000J0D01*
G01*
G37*
%TD.AperFunction*%
%TO.P,U1,10*%
%TO.N,Net-(U1-Pad10)*%
%TA.AperFunction,SMDPad,CuDef*%
G36*
G01*
X117925000Y-116320000D02*
X117775000Y-116320000D01*
G75*
G02*
X117700000Y-116245000I0J75000D01*
G01*
X117700000Y-114920000D01*
G75*
G02*
X117775000Y-114845000I75000J0D01*
G01*
X117925000Y-114845000D01*
G75*
G02*
X118000000Y-114920000I0J-75000D01*
G01*
X118000000Y-116245000D01*
G75*
G02*
X117925000Y-116320000I-75000J0D01*
G01*
G37*
%TD.AperFunction*%
%TO.P,U1,9*%
%TO.N,VDD*%
%TA.AperFunction,SMDPad,CuDef*%
G36*
G01*
X117425000Y-116320000D02*
X117275000Y-116320000D01*
G75*
G02*
X117200000Y-116245000I0J75000D01*
G01*
X117200000Y-114920000D01*
G75*
G02*
X117275000Y-114845000I75000J0D01*
G01*
X117425000Y-114845000D01*
G75*
G02*
X117500000Y-114920000I0J-75000D01*
G01*
X117500000Y-116245000D01*
G75*
G02*
X117425000Y-116320000I-75000J0D01*
G01*
G37*
%TD.AperFunction*%
%TO.P,U1,8*%
%TO.N,GND*%
%TA.AperFunction,SMDPad,CuDef*%
G36*
G01*
X116925000Y-116320000D02*
X116775000Y-116320000D01*
G75*
G02*
X116700000Y-116245000I0J75000D01*
G01*
X116700000Y-114920000D01*
G75*
G02*
X116775000Y-114845000I75000J0D01*
G01*
X116925000Y-114845000D01*
G75*
G02*
X117000000Y-114920000I0J-75000D01*
G01*
X117000000Y-116245000D01*
G75*
G02*
X116925000Y-116320000I-75000J0D01*
G01*
G37*
%TD.AperFunction*%
%TO.P,U1,7*%
%TO.N,Net-(JP1-Pad2)*%
%TA.AperFunction,SMDPad,CuDef*%
G36*
G01*
X116425000Y-116320000D02*
X116275000Y-116320000D01*
G75*
G02*
X116200000Y-116245000I0J75000D01*
G01*
X116200000Y-114920000D01*
G75*
G02*
X116275000Y-114845000I75000J0D01*
G01*
X116425000Y-114845000D01*
G75*
G02*
X116500000Y-114920000I0J-75000D01*
G01*
X116500000Y-116245000D01*
G75*
G02*
X116425000Y-116320000I-75000J0D01*
G01*
G37*
%TD.AperFunction*%
%TO.P,U1,6*%
%TO.N,Net-(C6-Pad1)*%
%TA.AperFunction,SMDPad,CuDef*%
G36*
G01*
X115925000Y-116320000D02*
X115775000Y-116320000D01*
G75*
G02*
X115700000Y-116245000I0J75000D01*
G01*
X115700000Y-114920000D01*
G75*
G02*
X115775000Y-114845000I75000J0D01*
G01*
X115925000Y-114845000D01*
G75*
G02*
X116000000Y-114920000I0J-75000D01*
G01*
X116000000Y-116245000D01*
G75*
G02*
X115925000Y-116320000I-75000J0D01*
G01*
G37*
%TD.AperFunction*%
%TO.P,U1,5*%
%TO.N,Net-(C5-Pad1)*%
%TA.AperFunction,SMDPad,CuDef*%
G36*
G01*
X115425000Y-116320000D02*
X115275000Y-116320000D01*
G75*
G02*
X115200000Y-116245000I0J75000D01*
G01*
X115200000Y-114920000D01*
G75*
G02*
X115275000Y-114845000I75000J0D01*
G01*
X115425000Y-114845000D01*
G75*
G02*
X115500000Y-114920000I0J-75000D01*
G01*
X115500000Y-116245000D01*
G75*
G02*
X115425000Y-116320000I-75000J0D01*
G01*
G37*
%TD.AperFunction*%
%TO.P,U1,4*%
%TO.N,Net-(C10-Pad1)*%
%TA.AperFunction,SMDPad,CuDef*%
G36*
G01*
X114925000Y-116320000D02*
X114775000Y-116320000D01*
G75*
G02*
X114700000Y-116245000I0J75000D01*
G01*
X114700000Y-114920000D01*
G75*
G02*
X114775000Y-114845000I75000J0D01*
G01*
X114925000Y-114845000D01*
G75*
G02*
X115000000Y-114920000I0J-75000D01*
G01*
X115000000Y-116245000D01*
G75*
G02*
X114925000Y-116320000I-75000J0D01*
G01*
G37*
%TD.AperFunction*%
%TO.P,U1,3*%
%TO.N,Net-(C9-Pad1)*%
%TA.AperFunction,SMDPad,CuDef*%
G36*
G01*
X114425000Y-116320000D02*
X114275000Y-116320000D01*
G75*
G02*
X114200000Y-116245000I0J75000D01*
G01*
X114200000Y-114920000D01*
G75*
G02*
X114275000Y-114845000I75000J0D01*
G01*
X114425000Y-114845000D01*
G75*
G02*
X114500000Y-114920000I0J-75000D01*
G01*
X114500000Y-116245000D01*
G75*
G02*
X114425000Y-116320000I-75000J0D01*
G01*
G37*
%TD.AperFunction*%
%TO.P,U1,2*%
%TO.N,Net-(U1-Pad2)*%
%TA.AperFunction,SMDPad,CuDef*%
G36*
G01*
X113925000Y-116320000D02*
X113775000Y-116320000D01*
G75*
G02*
X113700000Y-116245000I0J75000D01*
G01*
X113700000Y-114920000D01*
G75*
G02*
X113775000Y-114845000I75000J0D01*
G01*
X113925000Y-114845000D01*
G75*
G02*
X114000000Y-114920000I0J-75000D01*
G01*
X114000000Y-116245000D01*
G75*
G02*
X113925000Y-116320000I-75000J0D01*
G01*
G37*
%TD.AperFunction*%
%TO.P,U1,1*%
%TO.N,Net-(U1-Pad1)*%
%TA.AperFunction,SMDPad,CuDef*%
G36*
G01*
X113425000Y-116320000D02*
X113275000Y-116320000D01*
G75*
G02*
X113200000Y-116245000I0J75000D01*
G01*
X113200000Y-114920000D01*
G75*
G02*
X113275000Y-114845000I75000J0D01*
G01*
X113425000Y-114845000D01*
G75*
G02*
X113500000Y-114920000I0J-75000D01*
G01*
X113500000Y-116245000D01*
G75*
G02*
X113425000Y-116320000I-75000J0D01*
G01*
G37*
%TD.AperFunction*%
%TD*%
%TO.P,R1,2*%
%TO.N,Net-(JP1-Pad2)*%
%TA.AperFunction,SMDPad,CuDef*%
G36*
G01*
X117240000Y-120887500D02*
X117240000Y-121232500D01*
G75*
G02*
X117092500Y-121380000I-147500J0D01*
G01*
X116797500Y-121380000D01*
G75*
G02*
X116650000Y-121232500I0J147500D01*
G01*
X116650000Y-120887500D01*
G75*
G02*
X116797500Y-120740000I147500J0D01*
G01*
X117092500Y-120740000D01*
G75*
G02*
X117240000Y-120887500I0J-147500D01*
G01*
G37*
%TD.AperFunction*%
%TO.P,R1,1*%
%TO.N,VDD*%
%TA.AperFunction,SMDPad,CuDef*%
G36*
G01*
X118210000Y-120887500D02*
X118210000Y-121232500D01*
G75*
G02*
X118062500Y-121380000I-147500J0D01*
G01*
X117767500Y-121380000D01*
G75*
G02*
X117620000Y-121232500I0J147500D01*
G01*
X117620000Y-120887500D01*
G75*
G02*
X117767500Y-120740000I147500J0D01*
G01*
X118062500Y-120740000D01*
G75*
G02*
X118210000Y-120887500I0J-147500D01*
G01*
G37*
%TD.AperFunction*%
%TD*%
%TA.AperFunction,SMDPad,CuDef*%
D17*
%TO.P,JP1,2*%
%TO.N,Net-(JP1-Pad2)*%
G36*
X116770000Y-123689398D02*
G01*
X116745466Y-123689398D01*
X116696635Y-123684588D01*
X116648510Y-123675016D01*
X116601555Y-123660772D01*
X116556222Y-123641995D01*
X116512949Y-123618864D01*
X116472150Y-123591604D01*
X116434221Y-123560476D01*
X116399524Y-123525779D01*
X116368396Y-123487850D01*
X116341136Y-123447051D01*
X116318005Y-123403778D01*
X116299228Y-123358445D01*
X116284984Y-123311490D01*
X116275412Y-123263365D01*
X116270602Y-123214534D01*
X116270602Y-123190000D01*
X116270000Y-123190000D01*
X116270000Y-122690000D01*
X116270602Y-122690000D01*
X116270602Y-122665466D01*
X116275412Y-122616635D01*
X116284984Y-122568510D01*
X116299228Y-122521555D01*
X116318005Y-122476222D01*
X116341136Y-122432949D01*
X116368396Y-122392150D01*
X116399524Y-122354221D01*
X116434221Y-122319524D01*
X116472150Y-122288396D01*
X116512949Y-122261136D01*
X116556222Y-122238005D01*
X116601555Y-122219228D01*
X116648510Y-122204984D01*
X116696635Y-122195412D01*
X116745466Y-122190602D01*
X116770000Y-122190602D01*
X116770000Y-122190000D01*
X117270000Y-122190000D01*
X117270000Y-123690000D01*
X116770000Y-123690000D01*
X116770000Y-123689398D01*
G37*
%TD.AperFunction*%
%TA.AperFunction,SMDPad,CuDef*%
%TO.P,JP1,1*%
%TO.N,GND*%
G36*
X117570000Y-122190000D02*
G01*
X118070000Y-122190000D01*
X118070000Y-122190602D01*
X118094534Y-122190602D01*
X118143365Y-122195412D01*
X118191490Y-122204984D01*
X118238445Y-122219228D01*
X118283778Y-122238005D01*
X118327051Y-122261136D01*
X118367850Y-122288396D01*
X118405779Y-122319524D01*
X118440476Y-122354221D01*
X118471604Y-122392150D01*
X118498864Y-122432949D01*
X118521995Y-122476222D01*
X118540772Y-122521555D01*
X118555016Y-122568510D01*
X118564588Y-122616635D01*
X118569398Y-122665466D01*
X118569398Y-122690000D01*
X118570000Y-122690000D01*
X118570000Y-123190000D01*
X118569398Y-123190000D01*
X118569398Y-123214534D01*
X118564588Y-123263365D01*
X118555016Y-123311490D01*
X118540772Y-123358445D01*
X118521995Y-123403778D01*
X118498864Y-123447051D01*
X118471604Y-123487850D01*
X118440476Y-123525779D01*
X118405779Y-123560476D01*
X118367850Y-123591604D01*
X118327051Y-123618864D01*
X118283778Y-123641995D01*
X118238445Y-123660772D01*
X118191490Y-123675016D01*
X118143365Y-123684588D01*
X118094534Y-123689398D01*
X118070000Y-123689398D01*
X118070000Y-123690000D01*
X117570000Y-123690000D01*
X117570000Y-122190000D01*
G37*
%TD.AperFunction*%
%TD*%
%TO.P,C10,2*%
%TO.N,GND*%
%TA.AperFunction,SMDPad,CuDef*%
G36*
G01*
X108010000Y-120647500D02*
X108010000Y-120992500D01*
G75*
G02*
X107862500Y-121140000I-147500J0D01*
G01*
X107567500Y-121140000D01*
G75*
G02*
X107420000Y-120992500I0J147500D01*
G01*
X107420000Y-120647500D01*
G75*
G02*
X107567500Y-120500000I147500J0D01*
G01*
X107862500Y-120500000D01*
G75*
G02*
X108010000Y-120647500I0J-147500D01*
G01*
G37*
%TD.AperFunction*%
%TO.P,C10,1*%
%TO.N,Net-(C10-Pad1)*%
%TA.AperFunction,SMDPad,CuDef*%
G36*
G01*
X108980000Y-120647500D02*
X108980000Y-120992500D01*
G75*
G02*
X108832500Y-121140000I-147500J0D01*
G01*
X108537500Y-121140000D01*
G75*
G02*
X108390000Y-120992500I0J147500D01*
G01*
X108390000Y-120647500D01*
G75*
G02*
X108537500Y-120500000I147500J0D01*
G01*
X108832500Y-120500000D01*
G75*
G02*
X108980000Y-120647500I0J-147500D01*
G01*
G37*
%TD.AperFunction*%
%TD*%
%TO.P,C9,2*%
%TO.N,GND*%
%TA.AperFunction,SMDPad,CuDef*%
G36*
G01*
X106390000Y-120992500D02*
X106390000Y-120647500D01*
G75*
G02*
X106537500Y-120500000I147500J0D01*
G01*
X106832500Y-120500000D01*
G75*
G02*
X106980000Y-120647500I0J-147500D01*
G01*
X106980000Y-120992500D01*
G75*
G02*
X106832500Y-121140000I-147500J0D01*
G01*
X106537500Y-121140000D01*
G75*
G02*
X106390000Y-120992500I0J147500D01*
G01*
G37*
%TD.AperFunction*%
%TO.P,C9,1*%
%TO.N,Net-(C9-Pad1)*%
%TA.AperFunction,SMDPad,CuDef*%
G36*
G01*
X105420000Y-120992500D02*
X105420000Y-120647500D01*
G75*
G02*
X105567500Y-120500000I147500J0D01*
G01*
X105862500Y-120500000D01*
G75*
G02*
X106010000Y-120647500I0J-147500D01*
G01*
X106010000Y-120992500D01*
G75*
G02*
X105862500Y-121140000I-147500J0D01*
G01*
X105567500Y-121140000D01*
G75*
G02*
X105420000Y-120992500I0J147500D01*
G01*
G37*
%TD.AperFunction*%
%TD*%
%TO.P,C8,2*%
%TO.N,GND*%
%TA.AperFunction,SMDPad,CuDef*%
G36*
G01*
X117350000Y-118293750D02*
X117350000Y-119206250D01*
G75*
G02*
X117106250Y-119450000I-243750J0D01*
G01*
X116618750Y-119450000D01*
G75*
G02*
X116375000Y-119206250I0J243750D01*
G01*
X116375000Y-118293750D01*
G75*
G02*
X116618750Y-118050000I243750J0D01*
G01*
X117106250Y-118050000D01*
G75*
G02*
X117350000Y-118293750I0J-243750D01*
G01*
G37*
%TD.AperFunction*%
%TO.P,C8,1*%
%TO.N,VDD*%
%TA.AperFunction,SMDPad,CuDef*%
G36*
G01*
X119225000Y-118293750D02*
X119225000Y-119206250D01*
G75*
G02*
X118981250Y-119450000I-243750J0D01*
G01*
X118493750Y-119450000D01*
G75*
G02*
X118250000Y-119206250I0J243750D01*
G01*
X118250000Y-118293750D01*
G75*
G02*
X118493750Y-118050000I243750J0D01*
G01*
X118981250Y-118050000D01*
G75*
G02*
X119225000Y-118293750I0J-243750D01*
G01*
G37*
%TD.AperFunction*%
%TD*%
%TO.P,C7,2*%
%TO.N,GND*%
%TA.AperFunction,SMDPad,CuDef*%
G36*
G01*
X117210000Y-117047500D02*
X117210000Y-117392500D01*
G75*
G02*
X117062500Y-117540000I-147500J0D01*
G01*
X116767500Y-117540000D01*
G75*
G02*
X116620000Y-117392500I0J147500D01*
G01*
X116620000Y-117047500D01*
G75*
G02*
X116767500Y-116900000I147500J0D01*
G01*
X117062500Y-116900000D01*
G75*
G02*
X117210000Y-117047500I0J-147500D01*
G01*
G37*
%TD.AperFunction*%
%TO.P,C7,1*%
%TO.N,VDD*%
%TA.AperFunction,SMDPad,CuDef*%
G36*
G01*
X118180000Y-117047500D02*
X118180000Y-117392500D01*
G75*
G02*
X118032500Y-117540000I-147500J0D01*
G01*
X117737500Y-117540000D01*
G75*
G02*
X117590000Y-117392500I0J147500D01*
G01*
X117590000Y-117047500D01*
G75*
G02*
X117737500Y-116900000I147500J0D01*
G01*
X118032500Y-116900000D01*
G75*
G02*
X118180000Y-117047500I0J-147500D01*
G01*
G37*
%TD.AperFunction*%
%TD*%
%TO.P,C6,2*%
%TO.N,GND*%
%TA.AperFunction,SMDPad,CuDef*%
G36*
G01*
X113710000Y-122147500D02*
X113710000Y-122492500D01*
G75*
G02*
X113562500Y-122640000I-147500J0D01*
G01*
X113267500Y-122640000D01*
G75*
G02*
X113120000Y-122492500I0J147500D01*
G01*
X113120000Y-122147500D01*
G75*
G02*
X113267500Y-122000000I147500J0D01*
G01*
X113562500Y-122000000D01*
G75*
G02*
X113710000Y-122147500I0J-147500D01*
G01*
G37*
%TD.AperFunction*%
%TO.P,C6,1*%
%TO.N,Net-(C6-Pad1)*%
%TA.AperFunction,SMDPad,CuDef*%
G36*
G01*
X114680000Y-122147500D02*
X114680000Y-122492500D01*
G75*
G02*
X114532500Y-122640000I-147500J0D01*
G01*
X114237500Y-122640000D01*
G75*
G02*
X114090000Y-122492500I0J147500D01*
G01*
X114090000Y-122147500D01*
G75*
G02*
X114237500Y-122000000I147500J0D01*
G01*
X114532500Y-122000000D01*
G75*
G02*
X114680000Y-122147500I0J-147500D01*
G01*
G37*
%TD.AperFunction*%
%TD*%
%TO.P,C5,2*%
%TO.N,GND*%
%TA.AperFunction,SMDPad,CuDef*%
G36*
G01*
X111090000Y-122492500D02*
X111090000Y-122147500D01*
G75*
G02*
X111237500Y-122000000I147500J0D01*
G01*
X111532500Y-122000000D01*
G75*
G02*
X111680000Y-122147500I0J-147500D01*
G01*
X111680000Y-122492500D01*
G75*
G02*
X111532500Y-122640000I-147500J0D01*
G01*
X111237500Y-122640000D01*
G75*
G02*
X111090000Y-122492500I0J147500D01*
G01*
G37*
%TD.AperFunction*%
%TO.P,C5,1*%
%TO.N,Net-(C5-Pad1)*%
%TA.AperFunction,SMDPad,CuDef*%
G36*
G01*
X110120000Y-122492500D02*
X110120000Y-122147500D01*
G75*
G02*
X110267500Y-122000000I147500J0D01*
G01*
X110562500Y-122000000D01*
G75*
G02*
X110710000Y-122147500I0J-147500D01*
G01*
X110710000Y-122492500D01*
G75*
G02*
X110562500Y-122640000I-147500J0D01*
G01*
X110267500Y-122640000D01*
G75*
G02*
X110120000Y-122492500I0J147500D01*
G01*
G37*
%TD.AperFunction*%
%TD*%
%TO.P,C4,2*%
%TO.N,GND*%
%TA.AperFunction,SMDPad,CuDef*%
G36*
G01*
X110572500Y-113730000D02*
X110227500Y-113730000D01*
G75*
G02*
X110080000Y-113582500I0J147500D01*
G01*
X110080000Y-113287500D01*
G75*
G02*
X110227500Y-113140000I147500J0D01*
G01*
X110572500Y-113140000D01*
G75*
G02*
X110720000Y-113287500I0J-147500D01*
G01*
X110720000Y-113582500D01*
G75*
G02*
X110572500Y-113730000I-147500J0D01*
G01*
G37*
%TD.AperFunction*%
%TO.P,C4,1*%
%TO.N,VDD*%
%TA.AperFunction,SMDPad,CuDef*%
G36*
G01*
X110572500Y-114700000D02*
X110227500Y-114700000D01*
G75*
G02*
X110080000Y-114552500I0J147500D01*
G01*
X110080000Y-114257500D01*
G75*
G02*
X110227500Y-114110000I147500J0D01*
G01*
X110572500Y-114110000D01*
G75*
G02*
X110720000Y-114257500I0J-147500D01*
G01*
X110720000Y-114552500D01*
G75*
G02*
X110572500Y-114700000I-147500J0D01*
G01*
G37*
%TD.AperFunction*%
%TD*%
%TO.P,C3,2*%
%TO.N,GND*%
%TA.AperFunction,SMDPad,CuDef*%
G36*
G01*
X113790000Y-105872500D02*
X113790000Y-105527500D01*
G75*
G02*
X113937500Y-105380000I147500J0D01*
G01*
X114232500Y-105380000D01*
G75*
G02*
X114380000Y-105527500I0J-147500D01*
G01*
X114380000Y-105872500D01*
G75*
G02*
X114232500Y-106020000I-147500J0D01*
G01*
X113937500Y-106020000D01*
G75*
G02*
X113790000Y-105872500I0J147500D01*
G01*
G37*
%TD.AperFunction*%
%TO.P,C3,1*%
%TO.N,VDD*%
%TA.AperFunction,SMDPad,CuDef*%
G36*
G01*
X112820000Y-105872500D02*
X112820000Y-105527500D01*
G75*
G02*
X112967500Y-105380000I147500J0D01*
G01*
X113262500Y-105380000D01*
G75*
G02*
X113410000Y-105527500I0J-147500D01*
G01*
X113410000Y-105872500D01*
G75*
G02*
X113262500Y-106020000I-147500J0D01*
G01*
X112967500Y-106020000D01*
G75*
G02*
X112820000Y-105872500I0J147500D01*
G01*
G37*
%TD.AperFunction*%
%TD*%
%TO.P,C2,2*%
%TO.N,GND*%
%TA.AperFunction,SMDPad,CuDef*%
G36*
G01*
X121657500Y-109110000D02*
X122002500Y-109110000D01*
G75*
G02*
X122150000Y-109257500I0J-147500D01*
G01*
X122150000Y-109552500D01*
G75*
G02*
X122002500Y-109700000I-147500J0D01*
G01*
X121657500Y-109700000D01*
G75*
G02*
X121510000Y-109552500I0J147500D01*
G01*
X121510000Y-109257500D01*
G75*
G02*
X121657500Y-109110000I147500J0D01*
G01*
G37*
%TD.AperFunction*%
%TO.P,C2,1*%
%TO.N,VDD*%
%TA.AperFunction,SMDPad,CuDef*%
G36*
G01*
X121657500Y-108140000D02*
X122002500Y-108140000D01*
G75*
G02*
X122150000Y-108287500I0J-147500D01*
G01*
X122150000Y-108582500D01*
G75*
G02*
X122002500Y-108730000I-147500J0D01*
G01*
X121657500Y-108730000D01*
G75*
G02*
X121510000Y-108582500I0J147500D01*
G01*
X121510000Y-108287500D01*
G75*
G02*
X121657500Y-108140000I147500J0D01*
G01*
G37*
%TD.AperFunction*%
%TD*%
%TO.P,C1,2*%
%TO.N,GND*%
%TA.AperFunction,SMDPad,CuDef*%
G36*
G01*
X109295000Y-113145000D02*
X108045000Y-113145000D01*
G75*
G02*
X107795000Y-112895000I0J250000D01*
G01*
X107795000Y-112145000D01*
G75*
G02*
X108045000Y-111895000I250000J0D01*
G01*
X109295000Y-111895000D01*
G75*
G02*
X109545000Y-112145000I0J-250000D01*
G01*
X109545000Y-112895000D01*
G75*
G02*
X109295000Y-113145000I-250000J0D01*
G01*
G37*
%TD.AperFunction*%
%TO.P,C1,1*%
%TO.N,VDD*%
%TA.AperFunction,SMDPad,CuDef*%
G36*
G01*
X109295000Y-115945000D02*
X108045000Y-115945000D01*
G75*
G02*
X107795000Y-115695000I0J250000D01*
G01*
X107795000Y-114945000D01*
G75*
G02*
X108045000Y-114695000I250000J0D01*
G01*
X109295000Y-114695000D01*
G75*
G02*
X109545000Y-114945000I0J-250000D01*
G01*
X109545000Y-115695000D01*
G75*
G02*
X109295000Y-115945000I-250000J0D01*
G01*
G37*
%TD.AperFunction*%
%TD*%
D18*
%TO.N,GND*%
X105000000Y-143990000D03*
X110000000Y-143990000D03*
X110000000Y-138990000D03*
X105000000Y-138990000D03*
X105000000Y-133990000D03*
X110000000Y-133990000D03*
X115000000Y-133990000D03*
X120000000Y-133990000D03*
X119400000Y-122940000D03*
X117100000Y-119990000D03*
X112400000Y-122340000D03*
X107200000Y-121540000D03*
X107225000Y-112515000D03*
X125000000Y-93990000D03*
X125000000Y-91990000D03*
X127000000Y-91990000D03*
X127000000Y-93990000D03*
X121000000Y-81240000D03*
X121000000Y-101240000D03*
X121000000Y-66240000D03*
X120600000Y-105090000D03*
X114600000Y-104690000D03*
X122500000Y-109590000D03*
%TD*%
D19*
%TO.N,GND*%
X116850000Y-117155000D02*
X116915000Y-117220000D01*
X116850000Y-115582500D02*
X116850000Y-117155000D01*
X113850000Y-105935000D02*
X114085000Y-105700000D01*
X113850000Y-107257500D02*
X113850000Y-105935000D01*
X110635000Y-113670000D02*
X110400000Y-113435000D01*
X111937500Y-113670000D02*
X110635000Y-113670000D01*
X121595000Y-109170000D02*
X121830000Y-109405000D01*
X120262500Y-109170000D02*
X121595000Y-109170000D01*
X118980000Y-101240000D02*
X111020000Y-101240000D01*
X111020000Y-81240000D02*
X118980000Y-81240000D01*
X111020000Y-66240000D02*
X118980000Y-66240000D01*
X118070000Y-122940000D02*
X119400000Y-122940000D01*
X116915000Y-118697500D02*
X116862500Y-118750000D01*
X116915000Y-117220000D02*
X116915000Y-118697500D01*
X116862500Y-118750000D02*
X116862500Y-119752500D01*
X116862500Y-119752500D02*
X117100000Y-119990000D01*
X112430000Y-122320000D02*
X112420000Y-122320000D01*
X112420000Y-122320000D02*
X112400000Y-122340000D01*
X112430000Y-122320000D02*
X111385000Y-122320000D01*
X113415000Y-122320000D02*
X112430000Y-122320000D01*
X107205000Y-120820000D02*
X107715000Y-120820000D01*
X107205000Y-121535000D02*
X107200000Y-121540000D01*
X107205000Y-120820000D02*
X107205000Y-121535000D01*
X106685000Y-120820000D02*
X107205000Y-120820000D01*
X110400000Y-113435000D02*
X110020000Y-113435000D01*
X109105000Y-112520000D02*
X108670000Y-112520000D01*
X110020000Y-113435000D02*
X109105000Y-112520000D01*
X108670000Y-112520000D02*
X107230000Y-112520000D01*
X107230000Y-112520000D02*
X107225000Y-112515000D01*
X118980000Y-81240000D02*
X121000000Y-81240000D01*
X118980000Y-101240000D02*
X121000000Y-101240000D01*
X118980000Y-66240000D02*
X121000000Y-66240000D01*
X121515000Y-105080000D02*
X120610000Y-105080000D01*
X120610000Y-105080000D02*
X120600000Y-105090000D01*
X111937500Y-112170000D02*
X110820000Y-112170000D01*
X110400000Y-112590000D02*
X110400000Y-113435000D01*
X110820000Y-112170000D02*
X110400000Y-112590000D01*
X114085000Y-105700000D02*
X114085000Y-105205000D01*
X114085000Y-105205000D02*
X114600000Y-104690000D01*
X121830000Y-109405000D02*
X122315000Y-109405000D01*
X122315000Y-109405000D02*
X122500000Y-109590000D01*
%TO.N,VDD*%
X117350000Y-115582500D02*
X117350000Y-116480000D01*
X117885000Y-117015000D02*
X117885000Y-117220000D01*
X117350000Y-116480000D02*
X117885000Y-117015000D01*
X113350000Y-105935000D02*
X113115000Y-105700000D01*
X113350000Y-107257500D02*
X113350000Y-105935000D01*
X110635000Y-114170000D02*
X110400000Y-114405000D01*
X111937500Y-114170000D02*
X110635000Y-114170000D01*
X121595000Y-108670000D02*
X121830000Y-108435000D01*
X120262500Y-108670000D02*
X121595000Y-108670000D01*
X116310000Y-128790000D02*
X117700000Y-128790000D01*
X118037500Y-128452500D02*
X119680000Y-128452500D01*
X117700000Y-128790000D02*
X118037500Y-128452500D01*
%TO.N,Net-(C5-Pad1)*%
X110415000Y-122320000D02*
X110415000Y-121425000D01*
X110550000Y-121290000D02*
X110550000Y-119720000D01*
X110415000Y-121425000D02*
X110550000Y-121290000D01*
X110550000Y-118340000D02*
X110550000Y-119720000D01*
X114600000Y-117890000D02*
X111000000Y-117890000D01*
X115350000Y-115582500D02*
X115350000Y-117140000D01*
X111000000Y-117890000D02*
X110550000Y-118340000D01*
X115350000Y-117140000D02*
X114600000Y-117890000D01*
%TO.N,Net-(C6-Pad1)*%
X114385000Y-122320000D02*
X114385000Y-121655000D01*
X114250000Y-121520000D02*
X114250000Y-119720000D01*
X114385000Y-121655000D02*
X114250000Y-121520000D01*
X115850000Y-115582500D02*
X115850000Y-117390000D01*
X114250000Y-118990000D02*
X114250000Y-119720000D01*
X115850000Y-117390000D02*
X114250000Y-118990000D01*
%TO.N,Net-(JP1-Pad2)*%
X116350000Y-115582500D02*
X116350000Y-116490010D01*
X116350000Y-116490010D02*
X116250010Y-116590000D01*
X116250010Y-116590000D02*
X116250010Y-117639990D01*
X116250010Y-117639990D02*
X115800000Y-118090000D01*
X115800000Y-118090000D02*
X115800000Y-120190000D01*
X116670000Y-121060000D02*
X116945000Y-121060000D01*
X115800000Y-120190000D02*
X116670000Y-121060000D01*
X116945000Y-122765000D02*
X116770000Y-122940000D01*
X116945000Y-121060000D02*
X116945000Y-122765000D01*
%TO.N,/SW_CLK*%
X111937500Y-108670000D02*
X110680000Y-108670000D01*
X107460000Y-105450000D02*
X106000000Y-105450000D01*
X110680000Y-108670000D02*
X107460000Y-105450000D01*
%TO.N,/SW_DIO*%
X106000000Y-102910000D02*
X110980000Y-107890000D01*
X110980000Y-107890000D02*
X112600000Y-107890000D01*
X112600000Y-107890000D02*
X113200000Y-108490000D01*
X113200000Y-108490000D02*
X114200000Y-108490000D01*
X114350000Y-108340000D02*
X114350000Y-107257500D01*
X114200000Y-108490000D02*
X114350000Y-108340000D01*
%TO.N,/LED_DATA*%
X120262500Y-112170000D02*
X123170000Y-112170000D01*
X123170000Y-112170000D02*
X124000000Y-111340000D01*
X124000000Y-111340000D02*
X124000000Y-99915000D01*
X124925000Y-98990000D02*
X127750000Y-98990000D01*
X124000000Y-99915000D02*
X124925000Y-98990000D01*
%TO.N,Net-(C9-Pad1)*%
X105715000Y-120820000D02*
X105715000Y-120425000D01*
X105950000Y-120190000D02*
X105950000Y-119020000D01*
X105715000Y-120425000D02*
X105950000Y-120190000D01*
X114350000Y-115582500D02*
X114350000Y-116839980D01*
X114350000Y-116839980D02*
X114100000Y-117089980D01*
X114100000Y-117089980D02*
X106500020Y-117089980D01*
X105950000Y-117640000D02*
X105950000Y-119020000D01*
X106500020Y-117089980D02*
X105950000Y-117640000D01*
%TO.N,Net-(C10-Pad1)*%
X108685000Y-120820000D02*
X108685000Y-120355000D01*
X108450000Y-120120000D02*
X108450000Y-119020000D01*
X108685000Y-120355000D02*
X108450000Y-120120000D01*
X108450000Y-117940000D02*
X108450000Y-119020000D01*
X108900010Y-117489990D02*
X108450000Y-117940000D01*
X114400010Y-117489990D02*
X108900010Y-117489990D01*
X114850000Y-115582500D02*
X114850000Y-117040000D01*
X114850000Y-117040000D02*
X114400010Y-117489990D01*
%TO.N,/FD_analog*%
X120262500Y-111170000D02*
X122720000Y-111170000D01*
X122720000Y-111170000D02*
X123300000Y-110590000D01*
X123290000Y-105080000D02*
X123300000Y-105090000D01*
X123300000Y-110590000D02*
X123300000Y-105090000D01*
X122485000Y-105080000D02*
X123290000Y-105080000D01*
X123300000Y-105090000D02*
X123300000Y-55790000D01*
X122405000Y-54895000D02*
X116270000Y-54895000D01*
X123300000Y-55790000D02*
X122405000Y-54895000D01*
%TO.N,/SW_1*%
X111020000Y-61740000D02*
X118980000Y-61740000D01*
X111020000Y-61740000D02*
X109350000Y-61740000D01*
X109350000Y-61740000D02*
X108699980Y-62390020D01*
X108699980Y-62390020D02*
X108699980Y-102521377D01*
X108699980Y-102521377D02*
X109568623Y-103390020D01*
X109568623Y-103390020D02*
X115268624Y-103390020D01*
X115850000Y-103971396D02*
X115850000Y-107257500D01*
X115268624Y-103390020D02*
X115850000Y-103971396D01*
%TO.N,/SW_2*%
X111020000Y-76740000D02*
X118980000Y-76740000D01*
X111020000Y-76740000D02*
X109350000Y-76740000D01*
X109350000Y-76740000D02*
X109099990Y-76990010D01*
X109099990Y-76990010D02*
X109099990Y-102355689D01*
X109099990Y-102355689D02*
X109734311Y-102990010D01*
X109734311Y-102990010D02*
X115434312Y-102990010D01*
X116350000Y-103905698D02*
X116350000Y-107257500D01*
X115434312Y-102990010D02*
X116350000Y-103905698D01*
%TO.N,/SW_3*%
X111020000Y-96740000D02*
X118980000Y-96740000D01*
X111020000Y-96740000D02*
X109950000Y-96740000D01*
X109950000Y-96740000D02*
X109500000Y-97190000D01*
X109500000Y-97190000D02*
X109500000Y-102190000D01*
X109500000Y-102190000D02*
X109900000Y-102590000D01*
X109900000Y-102590000D02*
X115600000Y-102590000D01*
X116850000Y-103840000D02*
X116850000Y-107257500D01*
X115600000Y-102590000D02*
X116850000Y-103840000D01*
%TD*%
D20*
%TO.N,+5V*%
G36*
X127573000Y-101157000D02*
G01*
X127593000Y-101157000D01*
X127593000Y-101903000D01*
X127573000Y-101903000D01*
X127573000Y-102768250D01*
X127731750Y-102927000D01*
X128340001Y-102928930D01*
X128340001Y-141960597D01*
X128268827Y-142758083D01*
X128065344Y-143501890D01*
X127733363Y-144197904D01*
X127283374Y-144824130D01*
X126729597Y-145360777D01*
X126089549Y-145790871D01*
X125383447Y-146100829D01*
X124628543Y-146282065D01*
X123975793Y-146330000D01*
X117669564Y-146330000D01*
X117667000Y-145521750D01*
X117508250Y-145363000D01*
X116643000Y-145363000D01*
X116643000Y-145383000D01*
X115897000Y-145383000D01*
X115897000Y-145363000D01*
X115877000Y-145363000D01*
X115877000Y-144617000D01*
X115897000Y-144617000D01*
X115897000Y-143013750D01*
X116643000Y-143013750D01*
X116643000Y-144617000D01*
X117508250Y-144617000D01*
X117667000Y-144458250D01*
X117670072Y-143490000D01*
X117657812Y-143365518D01*
X117621502Y-143245820D01*
X117562537Y-143135506D01*
X117483185Y-143038815D01*
X117386494Y-142959463D01*
X117276180Y-142900498D01*
X117156482Y-142864188D01*
X117032000Y-142851928D01*
X116801750Y-142855000D01*
X116643000Y-143013750D01*
X115897000Y-143013750D01*
X115738250Y-142855000D01*
X115627000Y-142853516D01*
X115627000Y-139144068D01*
X115651925Y-139139110D01*
X116058669Y-138970631D01*
X116424729Y-138726038D01*
X116736038Y-138414729D01*
X116980631Y-138048669D01*
X117149110Y-137641925D01*
X117235000Y-137210128D01*
X117235000Y-137117000D01*
X124500000Y-137117000D01*
X124524776Y-137114560D01*
X124548601Y-137107333D01*
X124570557Y-137095597D01*
X124589803Y-137079803D01*
X125089803Y-136579803D01*
X125105597Y-136560557D01*
X125117333Y-136538601D01*
X125124560Y-136514776D01*
X125127000Y-136490000D01*
X125127000Y-127990000D01*
X125124560Y-127965224D01*
X125117333Y-127941399D01*
X125105597Y-127919443D01*
X125089803Y-127900197D01*
X124589803Y-127400197D01*
X124570557Y-127384403D01*
X124548601Y-127372667D01*
X124524776Y-127365440D01*
X124500000Y-127363000D01*
X121173209Y-127363000D01*
X121098387Y-127301595D01*
X120944851Y-127219528D01*
X120778255Y-127168992D01*
X120605001Y-127151928D01*
X118754999Y-127151928D01*
X118581745Y-127168992D01*
X118415149Y-127219528D01*
X118261613Y-127301595D01*
X118186791Y-127363000D01*
X117935958Y-127363000D01*
X117948072Y-127240000D01*
X117945000Y-127021750D01*
X117786250Y-126863000D01*
X116683000Y-126863000D01*
X116683000Y-126883000D01*
X115937000Y-126883000D01*
X115937000Y-126863000D01*
X115917000Y-126863000D01*
X115917000Y-126533250D01*
X121165000Y-126533250D01*
X121323750Y-126692000D01*
X122127000Y-126692000D01*
X122127000Y-126088750D01*
X122873000Y-126088750D01*
X122873000Y-126692000D01*
X123676250Y-126692000D01*
X123835000Y-126533250D01*
X123823794Y-126430771D01*
X123785621Y-126311654D01*
X123724943Y-126202273D01*
X123644092Y-126106831D01*
X123546174Y-126028997D01*
X123434954Y-125971761D01*
X123314704Y-125937323D01*
X123190046Y-125927006D01*
X123031750Y-125930000D01*
X122873000Y-126088750D01*
X122127000Y-126088750D01*
X121968250Y-125930000D01*
X121809954Y-125927006D01*
X121685296Y-125937323D01*
X121565046Y-125971761D01*
X121453826Y-126028997D01*
X121355908Y-126106831D01*
X121275057Y-126202273D01*
X121214379Y-126311654D01*
X121176206Y-126430771D01*
X121165000Y-126533250D01*
X115917000Y-126533250D01*
X115917000Y-126117000D01*
X115937000Y-126117000D01*
X115937000Y-126097000D01*
X116683000Y-126097000D01*
X116683000Y-126117000D01*
X117786250Y-126117000D01*
X117945000Y-125958250D01*
X117948072Y-125740000D01*
X117945807Y-125717000D01*
X124500000Y-125717000D01*
X124524776Y-125714560D01*
X124548601Y-125707333D01*
X124570557Y-125695597D01*
X124589803Y-125679803D01*
X125089803Y-125179803D01*
X125105597Y-125160557D01*
X125117333Y-125138601D01*
X125124560Y-125114776D01*
X125127000Y-125090000D01*
X125127000Y-102567053D01*
X125169463Y-102646494D01*
X125248815Y-102743185D01*
X125345506Y-102822537D01*
X125455820Y-102881502D01*
X125575518Y-102917812D01*
X125700000Y-102930072D01*
X126668250Y-102927000D01*
X126827000Y-102768250D01*
X126827000Y-101903000D01*
X126807000Y-101903000D01*
X126807000Y-101157000D01*
X126827000Y-101157000D01*
X126827000Y-101137000D01*
X127573000Y-101137000D01*
X127573000Y-101157000D01*
G37*
X127573000Y-101157000D02*
X127593000Y-101157000D01*
X127593000Y-101903000D01*
X127573000Y-101903000D01*
X127573000Y-102768250D01*
X127731750Y-102927000D01*
X128340001Y-102928930D01*
X128340001Y-141960597D01*
X128268827Y-142758083D01*
X128065344Y-143501890D01*
X127733363Y-144197904D01*
X127283374Y-144824130D01*
X126729597Y-145360777D01*
X126089549Y-145790871D01*
X125383447Y-146100829D01*
X124628543Y-146282065D01*
X123975793Y-146330000D01*
X117669564Y-146330000D01*
X117667000Y-145521750D01*
X117508250Y-145363000D01*
X116643000Y-145363000D01*
X116643000Y-145383000D01*
X115897000Y-145383000D01*
X115897000Y-145363000D01*
X115877000Y-145363000D01*
X115877000Y-144617000D01*
X115897000Y-144617000D01*
X115897000Y-143013750D01*
X116643000Y-143013750D01*
X116643000Y-144617000D01*
X117508250Y-144617000D01*
X117667000Y-144458250D01*
X117670072Y-143490000D01*
X117657812Y-143365518D01*
X117621502Y-143245820D01*
X117562537Y-143135506D01*
X117483185Y-143038815D01*
X117386494Y-142959463D01*
X117276180Y-142900498D01*
X117156482Y-142864188D01*
X117032000Y-142851928D01*
X116801750Y-142855000D01*
X116643000Y-143013750D01*
X115897000Y-143013750D01*
X115738250Y-142855000D01*
X115627000Y-142853516D01*
X115627000Y-139144068D01*
X115651925Y-139139110D01*
X116058669Y-138970631D01*
X116424729Y-138726038D01*
X116736038Y-138414729D01*
X116980631Y-138048669D01*
X117149110Y-137641925D01*
X117235000Y-137210128D01*
X117235000Y-137117000D01*
X124500000Y-137117000D01*
X124524776Y-137114560D01*
X124548601Y-137107333D01*
X124570557Y-137095597D01*
X124589803Y-137079803D01*
X125089803Y-136579803D01*
X125105597Y-136560557D01*
X125117333Y-136538601D01*
X125124560Y-136514776D01*
X125127000Y-136490000D01*
X125127000Y-127990000D01*
X125124560Y-127965224D01*
X125117333Y-127941399D01*
X125105597Y-127919443D01*
X125089803Y-127900197D01*
X124589803Y-127400197D01*
X124570557Y-127384403D01*
X124548601Y-127372667D01*
X124524776Y-127365440D01*
X124500000Y-127363000D01*
X121173209Y-127363000D01*
X121098387Y-127301595D01*
X120944851Y-127219528D01*
X120778255Y-127168992D01*
X120605001Y-127151928D01*
X118754999Y-127151928D01*
X118581745Y-127168992D01*
X118415149Y-127219528D01*
X118261613Y-127301595D01*
X118186791Y-127363000D01*
X117935958Y-127363000D01*
X117948072Y-127240000D01*
X117945000Y-127021750D01*
X117786250Y-126863000D01*
X116683000Y-126863000D01*
X116683000Y-126883000D01*
X115937000Y-126883000D01*
X115937000Y-126863000D01*
X115917000Y-126863000D01*
X115917000Y-126533250D01*
X121165000Y-126533250D01*
X121323750Y-126692000D01*
X122127000Y-126692000D01*
X122127000Y-126088750D01*
X122873000Y-126088750D01*
X122873000Y-126692000D01*
X123676250Y-126692000D01*
X123835000Y-126533250D01*
X123823794Y-126430771D01*
X123785621Y-126311654D01*
X123724943Y-126202273D01*
X123644092Y-126106831D01*
X123546174Y-126028997D01*
X123434954Y-125971761D01*
X123314704Y-125937323D01*
X123190046Y-125927006D01*
X123031750Y-125930000D01*
X122873000Y-126088750D01*
X122127000Y-126088750D01*
X121968250Y-125930000D01*
X121809954Y-125927006D01*
X121685296Y-125937323D01*
X121565046Y-125971761D01*
X121453826Y-126028997D01*
X121355908Y-126106831D01*
X121275057Y-126202273D01*
X121214379Y-126311654D01*
X121176206Y-126430771D01*
X121165000Y-126533250D01*
X115917000Y-126533250D01*
X115917000Y-126117000D01*
X115937000Y-126117000D01*
X115937000Y-126097000D01*
X116683000Y-126097000D01*
X116683000Y-126117000D01*
X117786250Y-126117000D01*
X117945000Y-125958250D01*
X117948072Y-125740000D01*
X117945807Y-125717000D01*
X124500000Y-125717000D01*
X124524776Y-125714560D01*
X124548601Y-125707333D01*
X124570557Y-125695597D01*
X124589803Y-125679803D01*
X125089803Y-125179803D01*
X125105597Y-125160557D01*
X125117333Y-125138601D01*
X125124560Y-125114776D01*
X125127000Y-125090000D01*
X125127000Y-102567053D01*
X125169463Y-102646494D01*
X125248815Y-102743185D01*
X125345506Y-102822537D01*
X125455820Y-102881502D01*
X125575518Y-102917812D01*
X125700000Y-102930072D01*
X126668250Y-102927000D01*
X126827000Y-102768250D01*
X126827000Y-101903000D01*
X126807000Y-101903000D01*
X126807000Y-101157000D01*
X126827000Y-101157000D01*
X126827000Y-101137000D01*
X127573000Y-101137000D01*
X127573000Y-101157000D01*
%TO.N,VDD*%
G36*
X112333000Y-54609250D02*
G01*
X112491750Y-54768000D01*
X113603000Y-54768000D01*
X113603000Y-54748000D01*
X113857000Y-54748000D01*
X113857000Y-54768000D01*
X113877000Y-54768000D01*
X113877000Y-55022000D01*
X113857000Y-55022000D01*
X113857000Y-56871250D01*
X114015750Y-57030000D01*
X114492000Y-57033072D01*
X114616482Y-57020812D01*
X114736180Y-56984502D01*
X114846494Y-56925537D01*
X114943185Y-56846185D01*
X115022537Y-56749494D01*
X115081502Y-56639180D01*
X115083824Y-56631527D01*
X115168407Y-56734593D01*
X115322834Y-56861327D01*
X115499018Y-56955500D01*
X115690189Y-57013491D01*
X115889000Y-57033072D01*
X116651000Y-57033072D01*
X116849811Y-57013491D01*
X117040982Y-56955500D01*
X117217166Y-56861327D01*
X117371593Y-56734593D01*
X117498327Y-56580166D01*
X117592500Y-56403982D01*
X117650491Y-56212811D01*
X117670072Y-56014000D01*
X117670072Y-55630000D01*
X122100554Y-55630000D01*
X122565001Y-56094448D01*
X122565000Y-104121928D01*
X122337500Y-104121928D01*
X122184243Y-104137023D01*
X122036875Y-104181726D01*
X122000000Y-104201436D01*
X121963125Y-104181726D01*
X121815757Y-104137023D01*
X121662500Y-104121928D01*
X121367500Y-104121928D01*
X121214243Y-104137023D01*
X121066875Y-104181726D01*
X120972408Y-104232220D01*
X120872729Y-104190932D01*
X120692089Y-104155000D01*
X120507911Y-104155000D01*
X120327271Y-104190932D01*
X120157111Y-104261414D01*
X120003972Y-104363738D01*
X119873738Y-104493972D01*
X119771414Y-104647111D01*
X119700932Y-104817271D01*
X119665000Y-104997911D01*
X119665000Y-105182089D01*
X119700932Y-105362729D01*
X119771414Y-105532889D01*
X119873738Y-105686028D01*
X120003972Y-105816262D01*
X120157111Y-105918586D01*
X120327271Y-105989068D01*
X120507911Y-106025000D01*
X120692089Y-106025000D01*
X120872729Y-105989068D01*
X120993489Y-105939048D01*
X121066875Y-105978274D01*
X121214243Y-106022977D01*
X121367500Y-106038072D01*
X121662500Y-106038072D01*
X121815757Y-106022977D01*
X121963125Y-105978274D01*
X122000000Y-105958564D01*
X122036875Y-105978274D01*
X122184243Y-106022977D01*
X122337500Y-106038072D01*
X122565001Y-106038072D01*
X122565001Y-107659119D01*
X122504494Y-107609463D01*
X122394180Y-107550498D01*
X122274482Y-107514188D01*
X122150000Y-107501928D01*
X122115750Y-107505000D01*
X121957000Y-107663750D01*
X121957000Y-108308000D01*
X121977000Y-108308000D01*
X121977000Y-108471928D01*
X121825762Y-108471928D01*
X121739085Y-108445635D01*
X121683000Y-108440111D01*
X121683000Y-108308000D01*
X121703000Y-108308000D01*
X121703000Y-107663750D01*
X121544250Y-107505000D01*
X121510000Y-107501928D01*
X121385518Y-107514188D01*
X121265820Y-107550498D01*
X121155506Y-107609463D01*
X121058815Y-107688815D01*
X120979463Y-107785506D01*
X120927658Y-107882426D01*
X120548250Y-107885000D01*
X120389500Y-108043750D01*
X120389500Y-108381928D01*
X120135500Y-108381928D01*
X120135500Y-108043750D01*
X119976750Y-107885000D01*
X119638072Y-107882702D01*
X119638072Y-106595000D01*
X119624371Y-106455887D01*
X119583793Y-106322119D01*
X119517898Y-106198838D01*
X119429218Y-106090782D01*
X119321162Y-106002102D01*
X119197881Y-105936207D01*
X119064113Y-105895629D01*
X118925000Y-105881928D01*
X118775000Y-105881928D01*
X118635887Y-105895629D01*
X118600000Y-105906515D01*
X118564113Y-105895629D01*
X118425000Y-105881928D01*
X118275000Y-105881928D01*
X118135887Y-105895629D01*
X118100000Y-105906515D01*
X118064113Y-105895629D01*
X117925000Y-105881928D01*
X117775000Y-105881928D01*
X117635887Y-105895629D01*
X117600000Y-105906515D01*
X117585000Y-105901965D01*
X117585000Y-103876105D01*
X117588556Y-103840000D01*
X117574365Y-103695915D01*
X117572195Y-103688762D01*
X117532337Y-103557367D01*
X117464087Y-103429680D01*
X117404693Y-103357309D01*
X117395253Y-103345806D01*
X117395250Y-103345803D01*
X117372237Y-103317762D01*
X117344197Y-103294750D01*
X116145258Y-102095812D01*
X116122238Y-102067762D01*
X116010320Y-101975913D01*
X116008612Y-101975000D01*
X117575299Y-101975000D01*
X117579188Y-102014482D01*
X117615498Y-102134180D01*
X117674463Y-102244494D01*
X117753815Y-102341185D01*
X117850506Y-102420537D01*
X117960820Y-102479502D01*
X118080518Y-102515812D01*
X118205000Y-102528072D01*
X119755000Y-102528072D01*
X119879482Y-102515812D01*
X119999180Y-102479502D01*
X120109494Y-102420537D01*
X120206185Y-102341185D01*
X120285537Y-102244494D01*
X120344502Y-102134180D01*
X120380812Y-102014482D01*
X120384701Y-101975000D01*
X120417049Y-101975000D01*
X120557111Y-102068586D01*
X120727271Y-102139068D01*
X120907911Y-102175000D01*
X121092089Y-102175000D01*
X121272729Y-102139068D01*
X121442889Y-102068586D01*
X121596028Y-101966262D01*
X121726262Y-101836028D01*
X121828586Y-101682889D01*
X121899068Y-101512729D01*
X121935000Y-101332089D01*
X121935000Y-101147911D01*
X121899068Y-100967271D01*
X121828586Y-100797111D01*
X121726262Y-100643972D01*
X121596028Y-100513738D01*
X121442889Y-100411414D01*
X121272729Y-100340932D01*
X121092089Y-100305000D01*
X120907911Y-100305000D01*
X120727271Y-100340932D01*
X120557111Y-100411414D01*
X120417049Y-100505000D01*
X120384701Y-100505000D01*
X120380812Y-100465518D01*
X120344502Y-100345820D01*
X120285537Y-100235506D01*
X120206185Y-100138815D01*
X120109494Y-100059463D01*
X119999180Y-100000498D01*
X119879482Y-99964188D01*
X119755000Y-99951928D01*
X118205000Y-99951928D01*
X118080518Y-99964188D01*
X117960820Y-100000498D01*
X117850506Y-100059463D01*
X117753815Y-100138815D01*
X117674463Y-100235506D01*
X117615498Y-100345820D01*
X117579188Y-100465518D01*
X117575299Y-100505000D01*
X112424701Y-100505000D01*
X112420812Y-100465518D01*
X112384502Y-100345820D01*
X112325537Y-100235506D01*
X112246185Y-100138815D01*
X112149494Y-100059463D01*
X112039180Y-100000498D01*
X111919482Y-99964188D01*
X111795000Y-99951928D01*
X110245000Y-99951928D01*
X110235000Y-99952913D01*
X110235000Y-98027087D01*
X110245000Y-98028072D01*
X111795000Y-98028072D01*
X111919482Y-98015812D01*
X112039180Y-97979502D01*
X112149494Y-97920537D01*
X112246185Y-97841185D01*
X112325537Y-97744494D01*
X112384502Y-97634180D01*
X112420812Y-97514482D01*
X112424701Y-97475000D01*
X117575299Y-97475000D01*
X117579188Y-97514482D01*
X117615498Y-97634180D01*
X117674463Y-97744494D01*
X117753815Y-97841185D01*
X117850506Y-97920537D01*
X117960820Y-97979502D01*
X118080518Y-98015812D01*
X118205000Y-98028072D01*
X119755000Y-98028072D01*
X119879482Y-98015812D01*
X119999180Y-97979502D01*
X120109494Y-97920537D01*
X120206185Y-97841185D01*
X120285537Y-97744494D01*
X120344502Y-97634180D01*
X120380812Y-97514482D01*
X120393072Y-97390000D01*
X120393072Y-96090000D01*
X120380812Y-95965518D01*
X120344502Y-95845820D01*
X120285537Y-95735506D01*
X120206185Y-95638815D01*
X120109494Y-95559463D01*
X119999180Y-95500498D01*
X119879482Y-95464188D01*
X119755000Y-95451928D01*
X118205000Y-95451928D01*
X118080518Y-95464188D01*
X117960820Y-95500498D01*
X117850506Y-95559463D01*
X117753815Y-95638815D01*
X117674463Y-95735506D01*
X117615498Y-95845820D01*
X117579188Y-95965518D01*
X117575299Y-96005000D01*
X112424701Y-96005000D01*
X112420812Y-95965518D01*
X112384502Y-95845820D01*
X112325537Y-95735506D01*
X112246185Y-95638815D01*
X112149494Y-95559463D01*
X112039180Y-95500498D01*
X111919482Y-95464188D01*
X111795000Y-95451928D01*
X110245000Y-95451928D01*
X110120518Y-95464188D01*
X110000820Y-95500498D01*
X109890506Y-95559463D01*
X109834990Y-95605024D01*
X109834990Y-82374976D01*
X109890506Y-82420537D01*
X110000820Y-82479502D01*
X110120518Y-82515812D01*
X110245000Y-82528072D01*
X111795000Y-82528072D01*
X111919482Y-82515812D01*
X112039180Y-82479502D01*
X112149494Y-82420537D01*
X112246185Y-82341185D01*
X112325537Y-82244494D01*
X112384502Y-82134180D01*
X112420812Y-82014482D01*
X112424701Y-81975000D01*
X117575299Y-81975000D01*
X117579188Y-82014482D01*
X117615498Y-82134180D01*
X117674463Y-82244494D01*
X117753815Y-82341185D01*
X117850506Y-82420537D01*
X117960820Y-82479502D01*
X118080518Y-82515812D01*
X118205000Y-82528072D01*
X119755000Y-82528072D01*
X119879482Y-82515812D01*
X119999180Y-82479502D01*
X120109494Y-82420537D01*
X120206185Y-82341185D01*
X120285537Y-82244494D01*
X120344502Y-82134180D01*
X120380812Y-82014482D01*
X120384701Y-81975000D01*
X120417049Y-81975000D01*
X120557111Y-82068586D01*
X120727271Y-82139068D01*
X120907911Y-82175000D01*
X121092089Y-82175000D01*
X121272729Y-82139068D01*
X121442889Y-82068586D01*
X121596028Y-81966262D01*
X121726262Y-81836028D01*
X121828586Y-81682889D01*
X121899068Y-81512729D01*
X121935000Y-81332089D01*
X121935000Y-81147911D01*
X121899068Y-80967271D01*
X121828586Y-80797111D01*
X121726262Y-80643972D01*
X121596028Y-80513738D01*
X121442889Y-80411414D01*
X121272729Y-80340932D01*
X121092089Y-80305000D01*
X120907911Y-80305000D01*
X120727271Y-80340932D01*
X120557111Y-80411414D01*
X120417049Y-80505000D01*
X120384701Y-80505000D01*
X120380812Y-80465518D01*
X120344502Y-80345820D01*
X120285537Y-80235506D01*
X120206185Y-80138815D01*
X120109494Y-80059463D01*
X119999180Y-80000498D01*
X119879482Y-79964188D01*
X119755000Y-79951928D01*
X118205000Y-79951928D01*
X118080518Y-79964188D01*
X117960820Y-80000498D01*
X117850506Y-80059463D01*
X117753815Y-80138815D01*
X117674463Y-80235506D01*
X117615498Y-80345820D01*
X117579188Y-80465518D01*
X117575299Y-80505000D01*
X112424701Y-80505000D01*
X112420812Y-80465518D01*
X112384502Y-80345820D01*
X112325537Y-80235506D01*
X112246185Y-80138815D01*
X112149494Y-80059463D01*
X112039180Y-80000498D01*
X111919482Y-79964188D01*
X111795000Y-79951928D01*
X110245000Y-79951928D01*
X110120518Y-79964188D01*
X110000820Y-80000498D01*
X109890506Y-80059463D01*
X109834990Y-80105024D01*
X109834990Y-77874976D01*
X109890506Y-77920537D01*
X110000820Y-77979502D01*
X110120518Y-78015812D01*
X110245000Y-78028072D01*
X111795000Y-78028072D01*
X111919482Y-78015812D01*
X112039180Y-77979502D01*
X112149494Y-77920537D01*
X112246185Y-77841185D01*
X112325537Y-77744494D01*
X112384502Y-77634180D01*
X112420812Y-77514482D01*
X112424701Y-77475000D01*
X117575299Y-77475000D01*
X117579188Y-77514482D01*
X117615498Y-77634180D01*
X117674463Y-77744494D01*
X117753815Y-77841185D01*
X117850506Y-77920537D01*
X117960820Y-77979502D01*
X118080518Y-78015812D01*
X118205000Y-78028072D01*
X119755000Y-78028072D01*
X119879482Y-78015812D01*
X119999180Y-77979502D01*
X120109494Y-77920537D01*
X120206185Y-77841185D01*
X120285537Y-77744494D01*
X120344502Y-77634180D01*
X120380812Y-77514482D01*
X120393072Y-77390000D01*
X120393072Y-76090000D01*
X120380812Y-75965518D01*
X120344502Y-75845820D01*
X120285537Y-75735506D01*
X120206185Y-75638815D01*
X120109494Y-75559463D01*
X119999180Y-75500498D01*
X119879482Y-75464188D01*
X119755000Y-75451928D01*
X118205000Y-75451928D01*
X118080518Y-75464188D01*
X117960820Y-75500498D01*
X117850506Y-75559463D01*
X117753815Y-75638815D01*
X117674463Y-75735506D01*
X117615498Y-75845820D01*
X117579188Y-75965518D01*
X117575299Y-76005000D01*
X112424701Y-76005000D01*
X112420812Y-75965518D01*
X112384502Y-75845820D01*
X112325537Y-75735506D01*
X112246185Y-75638815D01*
X112149494Y-75559463D01*
X112039180Y-75500498D01*
X111919482Y-75464188D01*
X111795000Y-75451928D01*
X110245000Y-75451928D01*
X110120518Y-75464188D01*
X110000820Y-75500498D01*
X109890506Y-75559463D01*
X109793815Y-75638815D01*
X109714463Y-75735506D01*
X109655498Y-75845820D01*
X109619188Y-75965518D01*
X109615299Y-76005000D01*
X109434980Y-76005000D01*
X109434980Y-71269872D01*
X112765000Y-71269872D01*
X112765000Y-71710128D01*
X112850890Y-72141925D01*
X113019369Y-72548669D01*
X113263962Y-72914729D01*
X113575271Y-73226038D01*
X113941331Y-73470631D01*
X114348075Y-73639110D01*
X114779872Y-73725000D01*
X115220128Y-73725000D01*
X115651925Y-73639110D01*
X116058669Y-73470631D01*
X116424729Y-73226038D01*
X116736038Y-72914729D01*
X116980631Y-72548669D01*
X117149110Y-72141925D01*
X117235000Y-71710128D01*
X117235000Y-71269872D01*
X117149110Y-70838075D01*
X116980631Y-70431331D01*
X116736038Y-70065271D01*
X116424729Y-69753962D01*
X116058669Y-69509369D01*
X115651925Y-69340890D01*
X115220128Y-69255000D01*
X114779872Y-69255000D01*
X114348075Y-69340890D01*
X113941331Y-69509369D01*
X113575271Y-69753962D01*
X113263962Y-70065271D01*
X113019369Y-70431331D01*
X112850890Y-70838075D01*
X112765000Y-71269872D01*
X109434980Y-71269872D01*
X109434980Y-65590000D01*
X109606928Y-65590000D01*
X109606928Y-66890000D01*
X109619188Y-67014482D01*
X109655498Y-67134180D01*
X109714463Y-67244494D01*
X109793815Y-67341185D01*
X109890506Y-67420537D01*
X110000820Y-67479502D01*
X110120518Y-67515812D01*
X110245000Y-67528072D01*
X111795000Y-67528072D01*
X111919482Y-67515812D01*
X112039180Y-67479502D01*
X112149494Y-67420537D01*
X112246185Y-67341185D01*
X112325537Y-67244494D01*
X112384502Y-67134180D01*
X112420812Y-67014482D01*
X112424701Y-66975000D01*
X117575299Y-66975000D01*
X117579188Y-67014482D01*
X117615498Y-67134180D01*
X117674463Y-67244494D01*
X117753815Y-67341185D01*
X117850506Y-67420537D01*
X117960820Y-67479502D01*
X118080518Y-67515812D01*
X118205000Y-67528072D01*
X119755000Y-67528072D01*
X119879482Y-67515812D01*
X119999180Y-67479502D01*
X120109494Y-67420537D01*
X120206185Y-67341185D01*
X120285537Y-67244494D01*
X120344502Y-67134180D01*
X120380812Y-67014482D01*
X120384701Y-66975000D01*
X120417049Y-66975000D01*
X120557111Y-67068586D01*
X120727271Y-67139068D01*
X120907911Y-67175000D01*
X121092089Y-67175000D01*
X121272729Y-67139068D01*
X121442889Y-67068586D01*
X121596028Y-66966262D01*
X121726262Y-66836028D01*
X121828586Y-66682889D01*
X121899068Y-66512729D01*
X121935000Y-66332089D01*
X121935000Y-66147911D01*
X121899068Y-65967271D01*
X121828586Y-65797111D01*
X121726262Y-65643972D01*
X121596028Y-65513738D01*
X121442889Y-65411414D01*
X121272729Y-65340932D01*
X121092089Y-65305000D01*
X120907911Y-65305000D01*
X120727271Y-65340932D01*
X120557111Y-65411414D01*
X120417049Y-65505000D01*
X120384701Y-65505000D01*
X120380812Y-65465518D01*
X120344502Y-65345820D01*
X120285537Y-65235506D01*
X120206185Y-65138815D01*
X120109494Y-65059463D01*
X119999180Y-65000498D01*
X119879482Y-64964188D01*
X119755000Y-64951928D01*
X118205000Y-64951928D01*
X118080518Y-64964188D01*
X117960820Y-65000498D01*
X117850506Y-65059463D01*
X117753815Y-65138815D01*
X117674463Y-65235506D01*
X117615498Y-65345820D01*
X117579188Y-65465518D01*
X117575299Y-65505000D01*
X112424701Y-65505000D01*
X112420812Y-65465518D01*
X112384502Y-65345820D01*
X112325537Y-65235506D01*
X112246185Y-65138815D01*
X112149494Y-65059463D01*
X112039180Y-65000498D01*
X111919482Y-64964188D01*
X111795000Y-64951928D01*
X110245000Y-64951928D01*
X110120518Y-64964188D01*
X110000820Y-65000498D01*
X109890506Y-65059463D01*
X109793815Y-65138815D01*
X109714463Y-65235506D01*
X109655498Y-65345820D01*
X109619188Y-65465518D01*
X109606928Y-65590000D01*
X109434980Y-65590000D01*
X109434980Y-62694466D01*
X109618809Y-62510637D01*
X109619188Y-62514482D01*
X109655498Y-62634180D01*
X109714463Y-62744494D01*
X109793815Y-62841185D01*
X109890506Y-62920537D01*
X110000820Y-62979502D01*
X110120518Y-63015812D01*
X110245000Y-63028072D01*
X111795000Y-63028072D01*
X111919482Y-63015812D01*
X112039180Y-62979502D01*
X112149494Y-62920537D01*
X112246185Y-62841185D01*
X112325537Y-62744494D01*
X112384502Y-62634180D01*
X112420812Y-62514482D01*
X112424701Y-62475000D01*
X117575299Y-62475000D01*
X117579188Y-62514482D01*
X117615498Y-62634180D01*
X117674463Y-62744494D01*
X117753815Y-62841185D01*
X117850506Y-62920537D01*
X117960820Y-62979502D01*
X118080518Y-63015812D01*
X118205000Y-63028072D01*
X119755000Y-63028072D01*
X119879482Y-63015812D01*
X119999180Y-62979502D01*
X120109494Y-62920537D01*
X120206185Y-62841185D01*
X120285537Y-62744494D01*
X120344502Y-62634180D01*
X120380812Y-62514482D01*
X120393072Y-62390000D01*
X120393072Y-61090000D01*
X120380812Y-60965518D01*
X120344502Y-60845820D01*
X120285537Y-60735506D01*
X120206185Y-60638815D01*
X120109494Y-60559463D01*
X119999180Y-60500498D01*
X119879482Y-60464188D01*
X119755000Y-60451928D01*
X118205000Y-60451928D01*
X118080518Y-60464188D01*
X117960820Y-60500498D01*
X117850506Y-60559463D01*
X117753815Y-60638815D01*
X117674463Y-60735506D01*
X117615498Y-60845820D01*
X117579188Y-60965518D01*
X117575299Y-61005000D01*
X112424701Y-61005000D01*
X112420812Y-60965518D01*
X112384502Y-60845820D01*
X112325537Y-60735506D01*
X112246185Y-60638815D01*
X112149494Y-60559463D01*
X112039180Y-60500498D01*
X111919482Y-60464188D01*
X111795000Y-60451928D01*
X110245000Y-60451928D01*
X110120518Y-60464188D01*
X110000820Y-60500498D01*
X109890506Y-60559463D01*
X109793815Y-60638815D01*
X109714463Y-60735506D01*
X109655498Y-60845820D01*
X109619188Y-60965518D01*
X109615299Y-61005000D01*
X109386096Y-61005000D01*
X109349999Y-61001445D01*
X109313902Y-61005000D01*
X109313895Y-61005000D01*
X109220132Y-61014235D01*
X109205914Y-61015635D01*
X109163886Y-61028384D01*
X109067367Y-61057663D01*
X108939680Y-61125913D01*
X108827762Y-61217762D01*
X108804746Y-61245807D01*
X108205788Y-61844766D01*
X108177742Y-61867783D01*
X108085893Y-61979701D01*
X108017643Y-62107388D01*
X108004620Y-62150320D01*
X107975615Y-62245935D01*
X107961424Y-62390020D01*
X107964980Y-62426125D01*
X107964981Y-102485262D01*
X107961424Y-102521377D01*
X107975615Y-102665462D01*
X108009127Y-102775933D01*
X108017644Y-102804010D01*
X108085894Y-102931697D01*
X108177743Y-103043615D01*
X108205788Y-103066631D01*
X109023369Y-103884213D01*
X109046385Y-103912258D01*
X109110651Y-103965000D01*
X109158303Y-104004107D01*
X109285989Y-104072357D01*
X109424538Y-104114385D01*
X109568623Y-104128576D01*
X109604728Y-104125020D01*
X113852992Y-104125020D01*
X113771414Y-104247111D01*
X113700932Y-104417271D01*
X113668068Y-104582485D01*
X113590808Y-104659746D01*
X113562763Y-104682762D01*
X113506413Y-104751424D01*
X113410000Y-104741928D01*
X113400750Y-104745000D01*
X113242000Y-104903750D01*
X113242000Y-105170237D01*
X113211726Y-105226875D01*
X113167023Y-105374243D01*
X113151928Y-105527500D01*
X113151928Y-105704240D01*
X113125635Y-105790915D01*
X113120111Y-105847000D01*
X112988000Y-105847000D01*
X112988000Y-105827000D01*
X112343750Y-105827000D01*
X112185000Y-105985750D01*
X112181928Y-106020000D01*
X112194188Y-106144482D01*
X112230498Y-106264180D01*
X112289463Y-106374494D01*
X112368815Y-106471185D01*
X112465506Y-106550537D01*
X112562494Y-106602379D01*
X112565000Y-106971750D01*
X112723748Y-107130498D01*
X112565000Y-107130498D01*
X112565000Y-107154891D01*
X112563895Y-107155000D01*
X111284447Y-107155000D01*
X109509447Y-105380000D01*
X112181928Y-105380000D01*
X112185000Y-105414250D01*
X112343750Y-105573000D01*
X112988000Y-105573000D01*
X112988000Y-104903750D01*
X112829250Y-104745000D01*
X112820000Y-104741928D01*
X112695518Y-104754188D01*
X112575820Y-104790498D01*
X112465506Y-104849463D01*
X112368815Y-104928815D01*
X112289463Y-105025506D01*
X112230498Y-105135820D01*
X112194188Y-105255518D01*
X112181928Y-105380000D01*
X109509447Y-105380000D01*
X107435344Y-103305897D01*
X107485000Y-103056260D01*
X107485000Y-102763740D01*
X107427932Y-102476842D01*
X107315990Y-102206589D01*
X107153475Y-101963368D01*
X106946632Y-101756525D01*
X106764466Y-101634805D01*
X106881355Y-101565178D01*
X107097588Y-101370269D01*
X107271641Y-101136920D01*
X107396825Y-100874099D01*
X107441476Y-100726890D01*
X107320155Y-100497000D01*
X106127000Y-100497000D01*
X106127000Y-100517000D01*
X105873000Y-100517000D01*
X105873000Y-100497000D01*
X104679845Y-100497000D01*
X104558524Y-100726890D01*
X104603175Y-100874099D01*
X104728359Y-101136920D01*
X104902412Y-101370269D01*
X105118645Y-101565178D01*
X105235534Y-101634805D01*
X105053368Y-101756525D01*
X104846525Y-101963368D01*
X104684010Y-102206589D01*
X104572068Y-102476842D01*
X104515000Y-102763740D01*
X104515000Y-103056260D01*
X104572068Y-103343158D01*
X104684010Y-103613411D01*
X104846525Y-103856632D01*
X105053368Y-104063475D01*
X105227760Y-104180000D01*
X105053368Y-104296525D01*
X104846525Y-104503368D01*
X104684010Y-104746589D01*
X104572068Y-105016842D01*
X104515000Y-105303740D01*
X104515000Y-105596260D01*
X104572068Y-105883158D01*
X104684010Y-106153411D01*
X104846525Y-106396632D01*
X104978380Y-106528487D01*
X104905820Y-106550498D01*
X104795506Y-106609463D01*
X104698815Y-106688815D01*
X104619463Y-106785506D01*
X104560498Y-106895820D01*
X104524188Y-107015518D01*
X104511928Y-107140000D01*
X104511928Y-108840000D01*
X104524188Y-108964482D01*
X104560498Y-109084180D01*
X104619463Y-109194494D01*
X104698815Y-109291185D01*
X104795506Y-109370537D01*
X104905820Y-109429502D01*
X105025518Y-109465812D01*
X105150000Y-109478072D01*
X106850000Y-109478072D01*
X106974482Y-109465812D01*
X107094180Y-109429502D01*
X107204494Y-109370537D01*
X107301185Y-109291185D01*
X107380537Y-109194494D01*
X107439502Y-109084180D01*
X107475812Y-108964482D01*
X107488072Y-108840000D01*
X107488072Y-107140000D01*
X107475812Y-107015518D01*
X107439502Y-106895820D01*
X107380537Y-106785506D01*
X107301185Y-106688815D01*
X107204494Y-106609463D01*
X107094180Y-106550498D01*
X107021620Y-106528487D01*
X107153475Y-106396632D01*
X107239076Y-106268522D01*
X110134746Y-109164193D01*
X110157762Y-109192238D01*
X110227192Y-109249218D01*
X110269680Y-109284087D01*
X110397366Y-109352337D01*
X110535915Y-109394365D01*
X110580058Y-109398713D01*
X110586515Y-109420000D01*
X110575629Y-109455887D01*
X110561928Y-109595000D01*
X110561928Y-109745000D01*
X110575629Y-109884113D01*
X110586515Y-109920000D01*
X110575629Y-109955887D01*
X110561928Y-110095000D01*
X110561928Y-110245000D01*
X110575629Y-110384113D01*
X110586515Y-110420000D01*
X110575629Y-110455887D01*
X110561928Y-110595000D01*
X110561928Y-110745000D01*
X110575629Y-110884113D01*
X110586515Y-110920000D01*
X110575629Y-110955887D01*
X110561928Y-111095000D01*
X110561928Y-111245000D01*
X110575629Y-111384113D01*
X110586515Y-111420000D01*
X110575629Y-111455887D01*
X110573581Y-111476677D01*
X110537366Y-111487663D01*
X110409680Y-111555913D01*
X110297762Y-111647762D01*
X110274741Y-111675813D01*
X110122438Y-111828116D01*
X110115472Y-111805150D01*
X110033405Y-111651614D01*
X109922962Y-111517038D01*
X109788386Y-111406595D01*
X109634850Y-111324528D01*
X109468254Y-111273992D01*
X109295000Y-111256928D01*
X108045000Y-111256928D01*
X107871746Y-111273992D01*
X107705150Y-111324528D01*
X107551614Y-111406595D01*
X107417038Y-111517038D01*
X107358592Y-111588256D01*
X107317089Y-111580000D01*
X107132911Y-111580000D01*
X106952271Y-111615932D01*
X106782111Y-111686414D01*
X106628972Y-111788738D01*
X106498738Y-111918972D01*
X106396414Y-112072111D01*
X106325932Y-112242271D01*
X106290000Y-112422911D01*
X106290000Y-112607089D01*
X106325932Y-112787729D01*
X106396414Y-112957889D01*
X106498738Y-113111028D01*
X106628972Y-113241262D01*
X106782111Y-113343586D01*
X106952271Y-113414068D01*
X107132911Y-113450000D01*
X107317089Y-113450000D01*
X107351537Y-113443148D01*
X107417038Y-113522962D01*
X107551614Y-113633405D01*
X107705150Y-113715472D01*
X107871746Y-113766008D01*
X108045000Y-113783072D01*
X109295000Y-113783072D01*
X109325610Y-113780057D01*
X109472082Y-113926529D01*
X109454188Y-113985518D01*
X109447105Y-114057438D01*
X108955750Y-114060000D01*
X108797000Y-114218750D01*
X108797000Y-115193000D01*
X109679767Y-115193000D01*
X109725506Y-115230537D01*
X109835820Y-115289502D01*
X109955518Y-115325812D01*
X110080000Y-115338072D01*
X110114250Y-115335000D01*
X110273000Y-115176250D01*
X110273000Y-114532000D01*
X110253000Y-114532000D01*
X110253000Y-114368072D01*
X110404238Y-114368072D01*
X110457119Y-114384113D01*
X110490914Y-114394365D01*
X110505132Y-114395765D01*
X110547000Y-114399889D01*
X110547000Y-114532000D01*
X110527000Y-114532000D01*
X110527000Y-115176250D01*
X110685750Y-115335000D01*
X110720000Y-115338072D01*
X110844482Y-115325812D01*
X110964180Y-115289502D01*
X111074494Y-115230537D01*
X111171185Y-115151185D01*
X111250537Y-115054494D01*
X111302452Y-114957370D01*
X111651750Y-114955000D01*
X111810500Y-114796250D01*
X111810500Y-114458072D01*
X112064500Y-114458072D01*
X112064500Y-114796250D01*
X112223250Y-114955000D01*
X112561928Y-114957298D01*
X112561928Y-116245000D01*
X112572760Y-116354980D01*
X110030001Y-116354980D01*
X110075537Y-116299494D01*
X110134502Y-116189180D01*
X110170812Y-116069482D01*
X110183072Y-115945000D01*
X110180000Y-115605750D01*
X110021250Y-115447000D01*
X108797000Y-115447000D01*
X108797000Y-115467000D01*
X108543000Y-115467000D01*
X108543000Y-115447000D01*
X107318750Y-115447000D01*
X107160000Y-115605750D01*
X107156928Y-115945000D01*
X107169188Y-116069482D01*
X107205498Y-116189180D01*
X107264463Y-116299494D01*
X107309999Y-116354980D01*
X106536125Y-116354980D01*
X106500020Y-116351424D01*
X106355935Y-116365615D01*
X106217386Y-116407643D01*
X106166108Y-116435052D01*
X106089700Y-116475893D01*
X105977782Y-116567742D01*
X105954766Y-116595787D01*
X105455808Y-117094746D01*
X105427762Y-117117763D01*
X105335913Y-117229681D01*
X105267663Y-117357368D01*
X105246812Y-117426105D01*
X105225635Y-117495915D01*
X105222734Y-117525367D01*
X105205820Y-117530498D01*
X105095506Y-117589463D01*
X104998815Y-117668815D01*
X104919463Y-117765506D01*
X104860498Y-117875820D01*
X104824188Y-117995518D01*
X104811928Y-118120000D01*
X104811928Y-119920000D01*
X104824188Y-120044482D01*
X104860498Y-120164180D01*
X104899939Y-120237967D01*
X104841726Y-120346875D01*
X104797023Y-120494243D01*
X104781928Y-120647500D01*
X104781928Y-120992500D01*
X104797023Y-121145757D01*
X104841726Y-121293125D01*
X104914321Y-121428940D01*
X105012017Y-121547983D01*
X105131060Y-121645679D01*
X105266875Y-121718274D01*
X105414243Y-121762977D01*
X105567500Y-121778072D01*
X105862500Y-121778072D01*
X106015757Y-121762977D01*
X106163125Y-121718274D01*
X106200000Y-121698564D01*
X106236875Y-121718274D01*
X106285050Y-121732888D01*
X106300932Y-121812729D01*
X106371414Y-121982889D01*
X106473738Y-122136028D01*
X106603972Y-122266262D01*
X106757111Y-122368586D01*
X106927271Y-122439068D01*
X107107911Y-122475000D01*
X107292089Y-122475000D01*
X107472729Y-122439068D01*
X107642889Y-122368586D01*
X107796028Y-122266262D01*
X107926262Y-122136028D01*
X108028586Y-121982889D01*
X108099068Y-121812729D01*
X108114950Y-121732888D01*
X108163125Y-121718274D01*
X108200000Y-121698564D01*
X108236875Y-121718274D01*
X108384243Y-121762977D01*
X108537500Y-121778072D01*
X108832500Y-121778072D01*
X108985757Y-121762977D01*
X109133125Y-121718274D01*
X109268940Y-121645679D01*
X109387983Y-121547983D01*
X109396891Y-121537128D01*
X109425518Y-121545812D01*
X109550000Y-121558072D01*
X109680000Y-121558072D01*
X109680000Y-121631030D01*
X109614321Y-121711060D01*
X109541726Y-121846875D01*
X109497023Y-121994243D01*
X109481928Y-122147500D01*
X109481928Y-122492500D01*
X109497023Y-122645757D01*
X109541726Y-122793125D01*
X109614321Y-122928940D01*
X109712017Y-123047983D01*
X109831060Y-123145679D01*
X109966875Y-123218274D01*
X110114243Y-123262977D01*
X110267500Y-123278072D01*
X110562500Y-123278072D01*
X110715757Y-123262977D01*
X110863125Y-123218274D01*
X110900000Y-123198564D01*
X110936875Y-123218274D01*
X111084243Y-123262977D01*
X111237500Y-123278072D01*
X111532500Y-123278072D01*
X111685757Y-123262977D01*
X111833125Y-123218274D01*
X111943322Y-123159372D01*
X111957111Y-123168586D01*
X112127271Y-123239068D01*
X112307911Y-123275000D01*
X112492089Y-123275000D01*
X112672729Y-123239068D01*
X112842889Y-123168586D01*
X112856678Y-123159372D01*
X112966875Y-123218274D01*
X113114243Y-123262977D01*
X113267500Y-123278072D01*
X113562500Y-123278072D01*
X113715757Y-123262977D01*
X113863125Y-123218274D01*
X113900000Y-123198564D01*
X113936875Y-123218274D01*
X114084243Y-123262977D01*
X114237500Y-123278072D01*
X114532500Y-123278072D01*
X114685757Y-123262977D01*
X114833125Y-123218274D01*
X114968940Y-123145679D01*
X115087983Y-123047983D01*
X115185679Y-122928940D01*
X115258274Y-122793125D01*
X115302977Y-122645757D01*
X115318072Y-122492500D01*
X115318072Y-122147500D01*
X115302977Y-121994243D01*
X115258274Y-121846875D01*
X115185679Y-121711060D01*
X115121358Y-121632685D01*
X115116390Y-121582238D01*
X115114010Y-121558072D01*
X115250000Y-121558072D01*
X115374482Y-121545812D01*
X115494180Y-121509502D01*
X115604494Y-121450537D01*
X115701185Y-121371185D01*
X115780537Y-121274494D01*
X115803008Y-121232455D01*
X116057813Y-121487260D01*
X116071726Y-121533125D01*
X116144321Y-121668940D01*
X116183414Y-121716575D01*
X116179808Y-121718502D01*
X116098309Y-121772958D01*
X116001618Y-121852310D01*
X115932310Y-121921618D01*
X115852958Y-122018309D01*
X115798502Y-122099808D01*
X115739536Y-122210125D01*
X115702027Y-122300681D01*
X115665718Y-122420377D01*
X115646596Y-122516510D01*
X115634336Y-122640991D01*
X115634336Y-122665550D01*
X115631928Y-122690000D01*
X115631928Y-123190000D01*
X115634336Y-123214450D01*
X115634336Y-123239009D01*
X115646596Y-123363490D01*
X115665718Y-123459623D01*
X115702027Y-123579319D01*
X115739536Y-123669875D01*
X115798502Y-123780192D01*
X115852958Y-123861691D01*
X115932310Y-123958382D01*
X116001618Y-124027690D01*
X116098309Y-124107042D01*
X116179808Y-124161498D01*
X116290125Y-124220464D01*
X116380681Y-124257973D01*
X116500377Y-124294282D01*
X116596510Y-124313404D01*
X116720991Y-124325664D01*
X116745550Y-124325664D01*
X116770000Y-124328072D01*
X117270000Y-124328072D01*
X117394482Y-124315812D01*
X117420000Y-124308071D01*
X117445518Y-124315812D01*
X117570000Y-124328072D01*
X118070000Y-124328072D01*
X118094450Y-124325664D01*
X118119009Y-124325664D01*
X118243490Y-124313404D01*
X118339623Y-124294282D01*
X118459319Y-124257973D01*
X118549875Y-124220464D01*
X118660192Y-124161498D01*
X118741691Y-124107042D01*
X118838382Y-124027690D01*
X118907690Y-123958382D01*
X118987042Y-123861691D01*
X119029279Y-123798479D01*
X119127271Y-123839068D01*
X119307911Y-123875000D01*
X119492089Y-123875000D01*
X119672729Y-123839068D01*
X119842889Y-123768586D01*
X119996028Y-123666262D01*
X120126262Y-123536028D01*
X120228586Y-123382889D01*
X120299068Y-123212729D01*
X120335000Y-123032089D01*
X120335000Y-122847911D01*
X120299068Y-122667271D01*
X120228586Y-122497111D01*
X120126262Y-122343972D01*
X119996028Y-122213738D01*
X119842889Y-122111414D01*
X119672729Y-122040932D01*
X119492089Y-122005000D01*
X119307911Y-122005000D01*
X119127271Y-122040932D01*
X119029279Y-122081521D01*
X118987042Y-122018309D01*
X118907690Y-121921618D01*
X118838382Y-121852310D01*
X118741691Y-121772958D01*
X118720559Y-121758838D01*
X118740537Y-121734494D01*
X118799502Y-121624180D01*
X118835812Y-121504482D01*
X118848072Y-121380000D01*
X118845000Y-121345750D01*
X118686250Y-121187000D01*
X118042000Y-121187000D01*
X118042000Y-121207000D01*
X117878072Y-121207000D01*
X117878072Y-120913000D01*
X118042000Y-120913000D01*
X118042000Y-120933000D01*
X118686250Y-120933000D01*
X118845000Y-120774250D01*
X118848072Y-120740000D01*
X118835812Y-120615518D01*
X118799502Y-120495820D01*
X118740537Y-120385506D01*
X118661185Y-120288815D01*
X118564494Y-120209463D01*
X118454180Y-120150498D01*
X118334482Y-120114188D01*
X118210000Y-120101928D01*
X118200750Y-120105000D01*
X118042002Y-120263748D01*
X118042002Y-120105000D01*
X118030443Y-120105000D01*
X118035000Y-120082089D01*
X118035000Y-120048354D01*
X118125518Y-120075812D01*
X118250000Y-120088072D01*
X118451750Y-120085000D01*
X118610500Y-119926250D01*
X118610500Y-118877000D01*
X118864500Y-118877000D01*
X118864500Y-119926250D01*
X119023250Y-120085000D01*
X119225000Y-120088072D01*
X119349482Y-120075812D01*
X119469180Y-120039502D01*
X119579494Y-119980537D01*
X119676185Y-119901185D01*
X119755537Y-119804494D01*
X119814502Y-119694180D01*
X119850812Y-119574482D01*
X119863072Y-119450000D01*
X119860000Y-119035750D01*
X119701250Y-118877000D01*
X118864500Y-118877000D01*
X118610500Y-118877000D01*
X118590500Y-118877000D01*
X118590500Y-118623000D01*
X118610500Y-118623000D01*
X118610500Y-118008161D01*
X118631185Y-117991185D01*
X118710537Y-117894494D01*
X118769502Y-117784180D01*
X118805812Y-117664482D01*
X118814748Y-117573750D01*
X118864500Y-117573750D01*
X118864500Y-118623000D01*
X119701250Y-118623000D01*
X119860000Y-118464250D01*
X119863072Y-118050000D01*
X119850812Y-117925518D01*
X119814502Y-117805820D01*
X119755537Y-117695506D01*
X119676185Y-117598815D01*
X119579494Y-117519463D01*
X119469180Y-117460498D01*
X119349482Y-117424188D01*
X119225000Y-117411928D01*
X119023250Y-117415000D01*
X118864500Y-117573750D01*
X118814748Y-117573750D01*
X118818072Y-117540000D01*
X118815000Y-117505750D01*
X118656250Y-117347000D01*
X118012000Y-117347000D01*
X118012000Y-117367000D01*
X117848072Y-117367000D01*
X117848072Y-117073000D01*
X118012000Y-117073000D01*
X118012000Y-117093000D01*
X118656250Y-117093000D01*
X118791178Y-116958072D01*
X118925000Y-116958072D01*
X119064113Y-116944371D01*
X119197881Y-116903793D01*
X119321162Y-116837898D01*
X119429218Y-116749218D01*
X119517898Y-116641162D01*
X119583793Y-116517881D01*
X119624371Y-116384113D01*
X119638072Y-116245000D01*
X119638072Y-114958072D01*
X120925000Y-114958072D01*
X121064113Y-114944371D01*
X121197881Y-114903793D01*
X121321162Y-114837898D01*
X121429218Y-114749218D01*
X121517898Y-114641162D01*
X121583793Y-114517881D01*
X121624371Y-114384113D01*
X121638072Y-114245000D01*
X121638072Y-114095000D01*
X121624371Y-113955887D01*
X121613485Y-113920000D01*
X121624371Y-113884113D01*
X121638072Y-113745000D01*
X121638072Y-113595000D01*
X121624371Y-113455887D01*
X121613485Y-113420000D01*
X121624371Y-113384113D01*
X121638072Y-113245000D01*
X121638072Y-113095000D01*
X121624371Y-112955887D01*
X121613485Y-112920000D01*
X121618035Y-112905000D01*
X123133895Y-112905000D01*
X123170000Y-112908556D01*
X123206105Y-112905000D01*
X123314085Y-112894365D01*
X123452633Y-112852337D01*
X123580320Y-112784087D01*
X123692238Y-112692238D01*
X123715258Y-112664188D01*
X124365000Y-112014447D01*
X124365000Y-124826974D01*
X124236974Y-124955000D01*
X115500000Y-124955000D01*
X115376118Y-124967201D01*
X115256996Y-125003336D01*
X115147213Y-125062017D01*
X115050987Y-125140987D01*
X115013521Y-125178453D01*
X114955506Y-125209463D01*
X114858815Y-125288815D01*
X114779463Y-125385506D01*
X114748453Y-125443521D01*
X114550987Y-125640987D01*
X114472017Y-125737213D01*
X114413336Y-125846996D01*
X114377201Y-125966118D01*
X114365000Y-126090000D01*
X114365000Y-126990000D01*
X114377201Y-127113882D01*
X114413336Y-127233004D01*
X114472017Y-127342787D01*
X114550987Y-127439013D01*
X114787584Y-127675610D01*
X114779463Y-127685506D01*
X114720498Y-127795820D01*
X114684188Y-127915518D01*
X114671928Y-128040000D01*
X114675000Y-128504250D01*
X114833750Y-128663000D01*
X116183000Y-128663000D01*
X116183000Y-128643000D01*
X116437000Y-128643000D01*
X116437000Y-128663000D01*
X116457000Y-128663000D01*
X116457000Y-128917000D01*
X116437000Y-128917000D01*
X116437000Y-128937000D01*
X116183000Y-128937000D01*
X116183000Y-128917000D01*
X114833750Y-128917000D01*
X114675000Y-129075750D01*
X114673152Y-129355000D01*
X111645531Y-129355000D01*
X111645000Y-129075750D01*
X111486250Y-128917000D01*
X110137000Y-128917000D01*
X110137000Y-128937000D01*
X109883000Y-128937000D01*
X109883000Y-128917000D01*
X108533750Y-128917000D01*
X108375000Y-129075750D01*
X108374469Y-129355000D01*
X101660000Y-129355000D01*
X101660000Y-126890000D01*
X108371928Y-126890000D01*
X108375000Y-128504250D01*
X108533750Y-128663000D01*
X109883000Y-128663000D01*
X109883000Y-126413750D01*
X110137000Y-126413750D01*
X110137000Y-128663000D01*
X111486250Y-128663000D01*
X111645000Y-128504250D01*
X111648072Y-126890000D01*
X111635812Y-126765518D01*
X111599502Y-126645820D01*
X111540537Y-126535506D01*
X111461185Y-126438815D01*
X111364494Y-126359463D01*
X111254180Y-126300498D01*
X111134482Y-126264188D01*
X111010000Y-126251928D01*
X110295750Y-126255000D01*
X110137000Y-126413750D01*
X109883000Y-126413750D01*
X109724250Y-126255000D01*
X109010000Y-126251928D01*
X108885518Y-126264188D01*
X108765820Y-126300498D01*
X108655506Y-126359463D01*
X108558815Y-126438815D01*
X108479463Y-126535506D01*
X108420498Y-126645820D01*
X108384188Y-126765518D01*
X108371928Y-126890000D01*
X101660000Y-126890000D01*
X101660000Y-114695000D01*
X107156928Y-114695000D01*
X107160000Y-115034250D01*
X107318750Y-115193000D01*
X108543000Y-115193000D01*
X108543000Y-114218750D01*
X108384250Y-114060000D01*
X107795000Y-114056928D01*
X107670518Y-114069188D01*
X107550820Y-114105498D01*
X107440506Y-114164463D01*
X107343815Y-114243815D01*
X107264463Y-114340506D01*
X107205498Y-114450820D01*
X107169188Y-114570518D01*
X107156928Y-114695000D01*
X101660000Y-114695000D01*
X101660000Y-100013110D01*
X104558524Y-100013110D01*
X104679845Y-100243000D01*
X105873000Y-100243000D01*
X105873000Y-99049186D01*
X106127000Y-99049186D01*
X106127000Y-100243000D01*
X107320155Y-100243000D01*
X107441476Y-100013110D01*
X107396825Y-99865901D01*
X107271641Y-99603080D01*
X107097588Y-99369731D01*
X106881355Y-99174822D01*
X106631252Y-99025843D01*
X106356891Y-98928519D01*
X106127000Y-99049186D01*
X105873000Y-99049186D01*
X105643109Y-98928519D01*
X105368748Y-99025843D01*
X105118645Y-99174822D01*
X104902412Y-99369731D01*
X104728359Y-99603080D01*
X104603175Y-99865901D01*
X104558524Y-100013110D01*
X101660000Y-100013110D01*
X101660000Y-58019392D01*
X101731173Y-57221917D01*
X101934656Y-56478109D01*
X101974297Y-56395000D01*
X112329928Y-56395000D01*
X112342188Y-56519482D01*
X112378498Y-56639180D01*
X112437463Y-56749494D01*
X112516815Y-56846185D01*
X112613506Y-56925537D01*
X112723820Y-56984502D01*
X112843518Y-57020812D01*
X112968000Y-57033072D01*
X113444250Y-57030000D01*
X113603000Y-56871250D01*
X113603000Y-55022000D01*
X112491750Y-55022000D01*
X112333000Y-55180750D01*
X112329928Y-56395000D01*
X101974297Y-56395000D01*
X102266638Y-55782095D01*
X102716626Y-55155870D01*
X103270403Y-54619223D01*
X103910451Y-54189129D01*
X104616553Y-53879171D01*
X105371457Y-53697935D01*
X106024207Y-53650000D01*
X112330573Y-53650000D01*
X112333000Y-54609250D01*
G37*
X112333000Y-54609250D02*
X112491750Y-54768000D01*
X113603000Y-54768000D01*
X113603000Y-54748000D01*
X113857000Y-54748000D01*
X113857000Y-54768000D01*
X113877000Y-54768000D01*
X113877000Y-55022000D01*
X113857000Y-55022000D01*
X113857000Y-56871250D01*
X114015750Y-57030000D01*
X114492000Y-57033072D01*
X114616482Y-57020812D01*
X114736180Y-56984502D01*
X114846494Y-56925537D01*
X114943185Y-56846185D01*
X115022537Y-56749494D01*
X115081502Y-56639180D01*
X115083824Y-56631527D01*
X115168407Y-56734593D01*
X115322834Y-56861327D01*
X115499018Y-56955500D01*
X115690189Y-57013491D01*
X115889000Y-57033072D01*
X116651000Y-57033072D01*
X116849811Y-57013491D01*
X117040982Y-56955500D01*
X117217166Y-56861327D01*
X117371593Y-56734593D01*
X117498327Y-56580166D01*
X117592500Y-56403982D01*
X117650491Y-56212811D01*
X117670072Y-56014000D01*
X117670072Y-55630000D01*
X122100554Y-55630000D01*
X122565001Y-56094448D01*
X122565000Y-104121928D01*
X122337500Y-104121928D01*
X122184243Y-104137023D01*
X122036875Y-104181726D01*
X122000000Y-104201436D01*
X121963125Y-104181726D01*
X121815757Y-104137023D01*
X121662500Y-104121928D01*
X121367500Y-104121928D01*
X121214243Y-104137023D01*
X121066875Y-104181726D01*
X120972408Y-104232220D01*
X120872729Y-104190932D01*
X120692089Y-104155000D01*
X120507911Y-104155000D01*
X120327271Y-104190932D01*
X120157111Y-104261414D01*
X120003972Y-104363738D01*
X119873738Y-104493972D01*
X119771414Y-104647111D01*
X119700932Y-104817271D01*
X119665000Y-104997911D01*
X119665000Y-105182089D01*
X119700932Y-105362729D01*
X119771414Y-105532889D01*
X119873738Y-105686028D01*
X120003972Y-105816262D01*
X120157111Y-105918586D01*
X120327271Y-105989068D01*
X120507911Y-106025000D01*
X120692089Y-106025000D01*
X120872729Y-105989068D01*
X120993489Y-105939048D01*
X121066875Y-105978274D01*
X121214243Y-106022977D01*
X121367500Y-106038072D01*
X121662500Y-106038072D01*
X121815757Y-106022977D01*
X121963125Y-105978274D01*
X122000000Y-105958564D01*
X122036875Y-105978274D01*
X122184243Y-106022977D01*
X122337500Y-106038072D01*
X122565001Y-106038072D01*
X122565001Y-107659119D01*
X122504494Y-107609463D01*
X122394180Y-107550498D01*
X122274482Y-107514188D01*
X122150000Y-107501928D01*
X122115750Y-107505000D01*
X121957000Y-107663750D01*
X121957000Y-108308000D01*
X121977000Y-108308000D01*
X121977000Y-108471928D01*
X121825762Y-108471928D01*
X121739085Y-108445635D01*
X121683000Y-108440111D01*
X121683000Y-108308000D01*
X121703000Y-108308000D01*
X121703000Y-107663750D01*
X121544250Y-107505000D01*
X121510000Y-107501928D01*
X121385518Y-107514188D01*
X121265820Y-107550498D01*
X121155506Y-107609463D01*
X121058815Y-107688815D01*
X120979463Y-107785506D01*
X120927658Y-107882426D01*
X120548250Y-107885000D01*
X120389500Y-108043750D01*
X120389500Y-108381928D01*
X120135500Y-108381928D01*
X120135500Y-108043750D01*
X119976750Y-107885000D01*
X119638072Y-107882702D01*
X119638072Y-106595000D01*
X119624371Y-106455887D01*
X119583793Y-106322119D01*
X119517898Y-106198838D01*
X119429218Y-106090782D01*
X119321162Y-106002102D01*
X119197881Y-105936207D01*
X119064113Y-105895629D01*
X118925000Y-105881928D01*
X118775000Y-105881928D01*
X118635887Y-105895629D01*
X118600000Y-105906515D01*
X118564113Y-105895629D01*
X118425000Y-105881928D01*
X118275000Y-105881928D01*
X118135887Y-105895629D01*
X118100000Y-105906515D01*
X118064113Y-105895629D01*
X117925000Y-105881928D01*
X117775000Y-105881928D01*
X117635887Y-105895629D01*
X117600000Y-105906515D01*
X117585000Y-105901965D01*
X117585000Y-103876105D01*
X117588556Y-103840000D01*
X117574365Y-103695915D01*
X117572195Y-103688762D01*
X117532337Y-103557367D01*
X117464087Y-103429680D01*
X117404693Y-103357309D01*
X117395253Y-103345806D01*
X117395250Y-103345803D01*
X117372237Y-103317762D01*
X117344197Y-103294750D01*
X116145258Y-102095812D01*
X116122238Y-102067762D01*
X116010320Y-101975913D01*
X116008612Y-101975000D01*
X117575299Y-101975000D01*
X117579188Y-102014482D01*
X117615498Y-102134180D01*
X117674463Y-102244494D01*
X117753815Y-102341185D01*
X117850506Y-102420537D01*
X117960820Y-102479502D01*
X118080518Y-102515812D01*
X118205000Y-102528072D01*
X119755000Y-102528072D01*
X119879482Y-102515812D01*
X119999180Y-102479502D01*
X120109494Y-102420537D01*
X120206185Y-102341185D01*
X120285537Y-102244494D01*
X120344502Y-102134180D01*
X120380812Y-102014482D01*
X120384701Y-101975000D01*
X120417049Y-101975000D01*
X120557111Y-102068586D01*
X120727271Y-102139068D01*
X120907911Y-102175000D01*
X121092089Y-102175000D01*
X121272729Y-102139068D01*
X121442889Y-102068586D01*
X121596028Y-101966262D01*
X121726262Y-101836028D01*
X121828586Y-101682889D01*
X121899068Y-101512729D01*
X121935000Y-101332089D01*
X121935000Y-101147911D01*
X121899068Y-100967271D01*
X121828586Y-100797111D01*
X121726262Y-100643972D01*
X121596028Y-100513738D01*
X121442889Y-100411414D01*
X121272729Y-100340932D01*
X121092089Y-100305000D01*
X120907911Y-100305000D01*
X120727271Y-100340932D01*
X120557111Y-100411414D01*
X120417049Y-100505000D01*
X120384701Y-100505000D01*
X120380812Y-100465518D01*
X120344502Y-100345820D01*
X120285537Y-100235506D01*
X120206185Y-100138815D01*
X120109494Y-100059463D01*
X119999180Y-100000498D01*
X119879482Y-99964188D01*
X119755000Y-99951928D01*
X118205000Y-99951928D01*
X118080518Y-99964188D01*
X117960820Y-100000498D01*
X117850506Y-100059463D01*
X117753815Y-100138815D01*
X117674463Y-100235506D01*
X117615498Y-100345820D01*
X117579188Y-100465518D01*
X117575299Y-100505000D01*
X112424701Y-100505000D01*
X112420812Y-100465518D01*
X112384502Y-100345820D01*
X112325537Y-100235506D01*
X112246185Y-100138815D01*
X112149494Y-100059463D01*
X112039180Y-100000498D01*
X111919482Y-99964188D01*
X111795000Y-99951928D01*
X110245000Y-99951928D01*
X110235000Y-99952913D01*
X110235000Y-98027087D01*
X110245000Y-98028072D01*
X111795000Y-98028072D01*
X111919482Y-98015812D01*
X112039180Y-97979502D01*
X112149494Y-97920537D01*
X112246185Y-97841185D01*
X112325537Y-97744494D01*
X112384502Y-97634180D01*
X112420812Y-97514482D01*
X112424701Y-97475000D01*
X117575299Y-97475000D01*
X117579188Y-97514482D01*
X117615498Y-97634180D01*
X117674463Y-97744494D01*
X117753815Y-97841185D01*
X117850506Y-97920537D01*
X117960820Y-97979502D01*
X118080518Y-98015812D01*
X118205000Y-98028072D01*
X119755000Y-98028072D01*
X119879482Y-98015812D01*
X119999180Y-97979502D01*
X120109494Y-97920537D01*
X120206185Y-97841185D01*
X120285537Y-97744494D01*
X120344502Y-97634180D01*
X120380812Y-97514482D01*
X120393072Y-97390000D01*
X120393072Y-96090000D01*
X120380812Y-95965518D01*
X120344502Y-95845820D01*
X120285537Y-95735506D01*
X120206185Y-95638815D01*
X120109494Y-95559463D01*
X119999180Y-95500498D01*
X119879482Y-95464188D01*
X119755000Y-95451928D01*
X118205000Y-95451928D01*
X118080518Y-95464188D01*
X117960820Y-95500498D01*
X117850506Y-95559463D01*
X117753815Y-95638815D01*
X117674463Y-95735506D01*
X117615498Y-95845820D01*
X117579188Y-95965518D01*
X117575299Y-96005000D01*
X112424701Y-96005000D01*
X112420812Y-95965518D01*
X112384502Y-95845820D01*
X112325537Y-95735506D01*
X112246185Y-95638815D01*
X112149494Y-95559463D01*
X112039180Y-95500498D01*
X111919482Y-95464188D01*
X111795000Y-95451928D01*
X110245000Y-95451928D01*
X110120518Y-95464188D01*
X110000820Y-95500498D01*
X109890506Y-95559463D01*
X109834990Y-95605024D01*
X109834990Y-82374976D01*
X109890506Y-82420537D01*
X110000820Y-82479502D01*
X110120518Y-82515812D01*
X110245000Y-82528072D01*
X111795000Y-82528072D01*
X111919482Y-82515812D01*
X112039180Y-82479502D01*
X112149494Y-82420537D01*
X112246185Y-82341185D01*
X112325537Y-82244494D01*
X112384502Y-82134180D01*
X112420812Y-82014482D01*
X112424701Y-81975000D01*
X117575299Y-81975000D01*
X117579188Y-82014482D01*
X117615498Y-82134180D01*
X117674463Y-82244494D01*
X117753815Y-82341185D01*
X117850506Y-82420537D01*
X117960820Y-82479502D01*
X118080518Y-82515812D01*
X118205000Y-82528072D01*
X119755000Y-82528072D01*
X119879482Y-82515812D01*
X119999180Y-82479502D01*
X120109494Y-82420537D01*
X120206185Y-82341185D01*
X120285537Y-82244494D01*
X120344502Y-82134180D01*
X120380812Y-82014482D01*
X120384701Y-81975000D01*
X120417049Y-81975000D01*
X120557111Y-82068586D01*
X120727271Y-82139068D01*
X120907911Y-82175000D01*
X121092089Y-82175000D01*
X121272729Y-82139068D01*
X121442889Y-82068586D01*
X121596028Y-81966262D01*
X121726262Y-81836028D01*
X121828586Y-81682889D01*
X121899068Y-81512729D01*
X121935000Y-81332089D01*
X121935000Y-81147911D01*
X121899068Y-80967271D01*
X121828586Y-80797111D01*
X121726262Y-80643972D01*
X121596028Y-80513738D01*
X121442889Y-80411414D01*
X121272729Y-80340932D01*
X121092089Y-80305000D01*
X120907911Y-80305000D01*
X120727271Y-80340932D01*
X120557111Y-80411414D01*
X120417049Y-80505000D01*
X120384701Y-80505000D01*
X120380812Y-80465518D01*
X120344502Y-80345820D01*
X120285537Y-80235506D01*
X120206185Y-80138815D01*
X120109494Y-80059463D01*
X119999180Y-80000498D01*
X119879482Y-79964188D01*
X119755000Y-79951928D01*
X118205000Y-79951928D01*
X118080518Y-79964188D01*
X117960820Y-80000498D01*
X117850506Y-80059463D01*
X117753815Y-80138815D01*
X117674463Y-80235506D01*
X117615498Y-80345820D01*
X117579188Y-80465518D01*
X117575299Y-80505000D01*
X112424701Y-80505000D01*
X112420812Y-80465518D01*
X112384502Y-80345820D01*
X112325537Y-80235506D01*
X112246185Y-80138815D01*
X112149494Y-80059463D01*
X112039180Y-80000498D01*
X111919482Y-79964188D01*
X111795000Y-79951928D01*
X110245000Y-79951928D01*
X110120518Y-79964188D01*
X110000820Y-80000498D01*
X109890506Y-80059463D01*
X109834990Y-80105024D01*
X109834990Y-77874976D01*
X109890506Y-77920537D01*
X110000820Y-77979502D01*
X110120518Y-78015812D01*
X110245000Y-78028072D01*
X111795000Y-78028072D01*
X111919482Y-78015812D01*
X112039180Y-77979502D01*
X112149494Y-77920537D01*
X112246185Y-77841185D01*
X112325537Y-77744494D01*
X112384502Y-77634180D01*
X112420812Y-77514482D01*
X112424701Y-77475000D01*
X117575299Y-77475000D01*
X117579188Y-77514482D01*
X117615498Y-77634180D01*
X117674463Y-77744494D01*
X117753815Y-77841185D01*
X117850506Y-77920537D01*
X117960820Y-77979502D01*
X118080518Y-78015812D01*
X118205000Y-78028072D01*
X119755000Y-78028072D01*
X119879482Y-78015812D01*
X119999180Y-77979502D01*
X120109494Y-77920537D01*
X120206185Y-77841185D01*
X120285537Y-77744494D01*
X120344502Y-77634180D01*
X120380812Y-77514482D01*
X120393072Y-77390000D01*
X120393072Y-76090000D01*
X120380812Y-75965518D01*
X120344502Y-75845820D01*
X120285537Y-75735506D01*
X120206185Y-75638815D01*
X120109494Y-75559463D01*
X119999180Y-75500498D01*
X119879482Y-75464188D01*
X119755000Y-75451928D01*
X118205000Y-75451928D01*
X118080518Y-75464188D01*
X117960820Y-75500498D01*
X117850506Y-75559463D01*
X117753815Y-75638815D01*
X117674463Y-75735506D01*
X117615498Y-75845820D01*
X117579188Y-75965518D01*
X117575299Y-76005000D01*
X112424701Y-76005000D01*
X112420812Y-75965518D01*
X112384502Y-75845820D01*
X112325537Y-75735506D01*
X112246185Y-75638815D01*
X112149494Y-75559463D01*
X112039180Y-75500498D01*
X111919482Y-75464188D01*
X111795000Y-75451928D01*
X110245000Y-75451928D01*
X110120518Y-75464188D01*
X110000820Y-75500498D01*
X109890506Y-75559463D01*
X109793815Y-75638815D01*
X109714463Y-75735506D01*
X109655498Y-75845820D01*
X109619188Y-75965518D01*
X109615299Y-76005000D01*
X109434980Y-76005000D01*
X109434980Y-71269872D01*
X112765000Y-71269872D01*
X112765000Y-71710128D01*
X112850890Y-72141925D01*
X113019369Y-72548669D01*
X113263962Y-72914729D01*
X113575271Y-73226038D01*
X113941331Y-73470631D01*
X114348075Y-73639110D01*
X114779872Y-73725000D01*
X115220128Y-73725000D01*
X115651925Y-73639110D01*
X116058669Y-73470631D01*
X116424729Y-73226038D01*
X116736038Y-72914729D01*
X116980631Y-72548669D01*
X117149110Y-72141925D01*
X117235000Y-71710128D01*
X117235000Y-71269872D01*
X117149110Y-70838075D01*
X116980631Y-70431331D01*
X116736038Y-70065271D01*
X116424729Y-69753962D01*
X116058669Y-69509369D01*
X115651925Y-69340890D01*
X115220128Y-69255000D01*
X114779872Y-69255000D01*
X114348075Y-69340890D01*
X113941331Y-69509369D01*
X113575271Y-69753962D01*
X113263962Y-70065271D01*
X113019369Y-70431331D01*
X112850890Y-70838075D01*
X112765000Y-71269872D01*
X109434980Y-71269872D01*
X109434980Y-65590000D01*
X109606928Y-65590000D01*
X109606928Y-66890000D01*
X109619188Y-67014482D01*
X109655498Y-67134180D01*
X109714463Y-67244494D01*
X109793815Y-67341185D01*
X109890506Y-67420537D01*
X110000820Y-67479502D01*
X110120518Y-67515812D01*
X110245000Y-67528072D01*
X111795000Y-67528072D01*
X111919482Y-67515812D01*
X112039180Y-67479502D01*
X112149494Y-67420537D01*
X112246185Y-67341185D01*
X112325537Y-67244494D01*
X112384502Y-67134180D01*
X112420812Y-67014482D01*
X112424701Y-66975000D01*
X117575299Y-66975000D01*
X117579188Y-67014482D01*
X117615498Y-67134180D01*
X117674463Y-67244494D01*
X117753815Y-67341185D01*
X117850506Y-67420537D01*
X117960820Y-67479502D01*
X118080518Y-67515812D01*
X118205000Y-67528072D01*
X119755000Y-67528072D01*
X119879482Y-67515812D01*
X119999180Y-67479502D01*
X120109494Y-67420537D01*
X120206185Y-67341185D01*
X120285537Y-67244494D01*
X120344502Y-67134180D01*
X120380812Y-67014482D01*
X120384701Y-66975000D01*
X120417049Y-66975000D01*
X120557111Y-67068586D01*
X120727271Y-67139068D01*
X120907911Y-67175000D01*
X121092089Y-67175000D01*
X121272729Y-67139068D01*
X121442889Y-67068586D01*
X121596028Y-66966262D01*
X121726262Y-66836028D01*
X121828586Y-66682889D01*
X121899068Y-66512729D01*
X121935000Y-66332089D01*
X121935000Y-66147911D01*
X121899068Y-65967271D01*
X121828586Y-65797111D01*
X121726262Y-65643972D01*
X121596028Y-65513738D01*
X121442889Y-65411414D01*
X121272729Y-65340932D01*
X121092089Y-65305000D01*
X120907911Y-65305000D01*
X120727271Y-65340932D01*
X120557111Y-65411414D01*
X120417049Y-65505000D01*
X120384701Y-65505000D01*
X120380812Y-65465518D01*
X120344502Y-65345820D01*
X120285537Y-65235506D01*
X120206185Y-65138815D01*
X120109494Y-65059463D01*
X119999180Y-65000498D01*
X119879482Y-64964188D01*
X119755000Y-64951928D01*
X118205000Y-64951928D01*
X118080518Y-64964188D01*
X117960820Y-65000498D01*
X117850506Y-65059463D01*
X117753815Y-65138815D01*
X117674463Y-65235506D01*
X117615498Y-65345820D01*
X117579188Y-65465518D01*
X117575299Y-65505000D01*
X112424701Y-65505000D01*
X112420812Y-65465518D01*
X112384502Y-65345820D01*
X112325537Y-65235506D01*
X112246185Y-65138815D01*
X112149494Y-65059463D01*
X112039180Y-65000498D01*
X111919482Y-64964188D01*
X111795000Y-64951928D01*
X110245000Y-64951928D01*
X110120518Y-64964188D01*
X110000820Y-65000498D01*
X109890506Y-65059463D01*
X109793815Y-65138815D01*
X109714463Y-65235506D01*
X109655498Y-65345820D01*
X109619188Y-65465518D01*
X109606928Y-65590000D01*
X109434980Y-65590000D01*
X109434980Y-62694466D01*
X109618809Y-62510637D01*
X109619188Y-62514482D01*
X109655498Y-62634180D01*
X109714463Y-62744494D01*
X109793815Y-62841185D01*
X109890506Y-62920537D01*
X110000820Y-62979502D01*
X110120518Y-63015812D01*
X110245000Y-63028072D01*
X111795000Y-63028072D01*
X111919482Y-63015812D01*
X112039180Y-62979502D01*
X112149494Y-62920537D01*
X112246185Y-62841185D01*
X112325537Y-62744494D01*
X112384502Y-62634180D01*
X112420812Y-62514482D01*
X112424701Y-62475000D01*
X117575299Y-62475000D01*
X117579188Y-62514482D01*
X117615498Y-62634180D01*
X117674463Y-62744494D01*
X117753815Y-62841185D01*
X117850506Y-62920537D01*
X117960820Y-62979502D01*
X118080518Y-63015812D01*
X118205000Y-63028072D01*
X119755000Y-63028072D01*
X119879482Y-63015812D01*
X119999180Y-62979502D01*
X120109494Y-62920537D01*
X120206185Y-62841185D01*
X120285537Y-62744494D01*
X120344502Y-62634180D01*
X120380812Y-62514482D01*
X120393072Y-62390000D01*
X120393072Y-61090000D01*
X120380812Y-60965518D01*
X120344502Y-60845820D01*
X120285537Y-60735506D01*
X120206185Y-60638815D01*
X120109494Y-60559463D01*
X119999180Y-60500498D01*
X119879482Y-60464188D01*
X119755000Y-60451928D01*
X118205000Y-60451928D01*
X118080518Y-60464188D01*
X117960820Y-60500498D01*
X117850506Y-60559463D01*
X117753815Y-60638815D01*
X117674463Y-60735506D01*
X117615498Y-60845820D01*
X117579188Y-60965518D01*
X117575299Y-61005000D01*
X112424701Y-61005000D01*
X112420812Y-60965518D01*
X112384502Y-60845820D01*
X112325537Y-60735506D01*
X112246185Y-60638815D01*
X112149494Y-60559463D01*
X112039180Y-60500498D01*
X111919482Y-60464188D01*
X111795000Y-60451928D01*
X110245000Y-60451928D01*
X110120518Y-60464188D01*
X110000820Y-60500498D01*
X109890506Y-60559463D01*
X109793815Y-60638815D01*
X109714463Y-60735506D01*
X109655498Y-60845820D01*
X109619188Y-60965518D01*
X109615299Y-61005000D01*
X109386096Y-61005000D01*
X109349999Y-61001445D01*
X109313902Y-61005000D01*
X109313895Y-61005000D01*
X109220132Y-61014235D01*
X109205914Y-61015635D01*
X109163886Y-61028384D01*
X109067367Y-61057663D01*
X108939680Y-61125913D01*
X108827762Y-61217762D01*
X108804746Y-61245807D01*
X108205788Y-61844766D01*
X108177742Y-61867783D01*
X108085893Y-61979701D01*
X108017643Y-62107388D01*
X108004620Y-62150320D01*
X107975615Y-62245935D01*
X107961424Y-62390020D01*
X107964980Y-62426125D01*
X107964981Y-102485262D01*
X107961424Y-102521377D01*
X107975615Y-102665462D01*
X108009127Y-102775933D01*
X108017644Y-102804010D01*
X108085894Y-102931697D01*
X108177743Y-103043615D01*
X108205788Y-103066631D01*
X109023369Y-103884213D01*
X109046385Y-103912258D01*
X109110651Y-103965000D01*
X109158303Y-104004107D01*
X109285989Y-104072357D01*
X109424538Y-104114385D01*
X109568623Y-104128576D01*
X109604728Y-104125020D01*
X113852992Y-104125020D01*
X113771414Y-104247111D01*
X113700932Y-104417271D01*
X113668068Y-104582485D01*
X113590808Y-104659746D01*
X113562763Y-104682762D01*
X113506413Y-104751424D01*
X113410000Y-104741928D01*
X113400750Y-104745000D01*
X113242000Y-104903750D01*
X113242000Y-105170237D01*
X113211726Y-105226875D01*
X113167023Y-105374243D01*
X113151928Y-105527500D01*
X113151928Y-105704240D01*
X113125635Y-105790915D01*
X113120111Y-105847000D01*
X112988000Y-105847000D01*
X112988000Y-105827000D01*
X112343750Y-105827000D01*
X112185000Y-105985750D01*
X112181928Y-106020000D01*
X112194188Y-106144482D01*
X112230498Y-106264180D01*
X112289463Y-106374494D01*
X112368815Y-106471185D01*
X112465506Y-106550537D01*
X112562494Y-106602379D01*
X112565000Y-106971750D01*
X112723748Y-107130498D01*
X112565000Y-107130498D01*
X112565000Y-107154891D01*
X112563895Y-107155000D01*
X111284447Y-107155000D01*
X109509447Y-105380000D01*
X112181928Y-105380000D01*
X112185000Y-105414250D01*
X112343750Y-105573000D01*
X112988000Y-105573000D01*
X112988000Y-104903750D01*
X112829250Y-104745000D01*
X112820000Y-104741928D01*
X112695518Y-104754188D01*
X112575820Y-104790498D01*
X112465506Y-104849463D01*
X112368815Y-104928815D01*
X112289463Y-105025506D01*
X112230498Y-105135820D01*
X112194188Y-105255518D01*
X112181928Y-105380000D01*
X109509447Y-105380000D01*
X107435344Y-103305897D01*
X107485000Y-103056260D01*
X107485000Y-102763740D01*
X107427932Y-102476842D01*
X107315990Y-102206589D01*
X107153475Y-101963368D01*
X106946632Y-101756525D01*
X106764466Y-101634805D01*
X106881355Y-101565178D01*
X107097588Y-101370269D01*
X107271641Y-101136920D01*
X107396825Y-100874099D01*
X107441476Y-100726890D01*
X107320155Y-100497000D01*
X106127000Y-100497000D01*
X106127000Y-100517000D01*
X105873000Y-100517000D01*
X105873000Y-100497000D01*
X104679845Y-100497000D01*
X104558524Y-100726890D01*
X104603175Y-100874099D01*
X104728359Y-101136920D01*
X104902412Y-101370269D01*
X105118645Y-101565178D01*
X105235534Y-101634805D01*
X105053368Y-101756525D01*
X104846525Y-101963368D01*
X104684010Y-102206589D01*
X104572068Y-102476842D01*
X104515000Y-102763740D01*
X104515000Y-103056260D01*
X104572068Y-103343158D01*
X104684010Y-103613411D01*
X104846525Y-103856632D01*
X105053368Y-104063475D01*
X105227760Y-104180000D01*
X105053368Y-104296525D01*
X104846525Y-104503368D01*
X104684010Y-104746589D01*
X104572068Y-105016842D01*
X104515000Y-105303740D01*
X104515000Y-105596260D01*
X104572068Y-105883158D01*
X104684010Y-106153411D01*
X104846525Y-106396632D01*
X104978380Y-106528487D01*
X104905820Y-106550498D01*
X104795506Y-106609463D01*
X104698815Y-106688815D01*
X104619463Y-106785506D01*
X104560498Y-106895820D01*
X104524188Y-107015518D01*
X104511928Y-107140000D01*
X104511928Y-108840000D01*
X104524188Y-108964482D01*
X104560498Y-109084180D01*
X104619463Y-109194494D01*
X104698815Y-109291185D01*
X104795506Y-109370537D01*
X104905820Y-109429502D01*
X105025518Y-109465812D01*
X105150000Y-109478072D01*
X106850000Y-109478072D01*
X106974482Y-109465812D01*
X107094180Y-109429502D01*
X107204494Y-109370537D01*
X107301185Y-109291185D01*
X107380537Y-109194494D01*
X107439502Y-109084180D01*
X107475812Y-108964482D01*
X107488072Y-108840000D01*
X107488072Y-107140000D01*
X107475812Y-107015518D01*
X107439502Y-106895820D01*
X107380537Y-106785506D01*
X107301185Y-106688815D01*
X107204494Y-106609463D01*
X107094180Y-106550498D01*
X107021620Y-106528487D01*
X107153475Y-106396632D01*
X107239076Y-106268522D01*
X110134746Y-109164193D01*
X110157762Y-109192238D01*
X110227192Y-109249218D01*
X110269680Y-109284087D01*
X110397366Y-109352337D01*
X110535915Y-109394365D01*
X110580058Y-109398713D01*
X110586515Y-109420000D01*
X110575629Y-109455887D01*
X110561928Y-109595000D01*
X110561928Y-109745000D01*
X110575629Y-109884113D01*
X110586515Y-109920000D01*
X110575629Y-109955887D01*
X110561928Y-110095000D01*
X110561928Y-110245000D01*
X110575629Y-110384113D01*
X110586515Y-110420000D01*
X110575629Y-110455887D01*
X110561928Y-110595000D01*
X110561928Y-110745000D01*
X110575629Y-110884113D01*
X110586515Y-110920000D01*
X110575629Y-110955887D01*
X110561928Y-111095000D01*
X110561928Y-111245000D01*
X110575629Y-111384113D01*
X110586515Y-111420000D01*
X110575629Y-111455887D01*
X110573581Y-111476677D01*
X110537366Y-111487663D01*
X110409680Y-111555913D01*
X110297762Y-111647762D01*
X110274741Y-111675813D01*
X110122438Y-111828116D01*
X110115472Y-111805150D01*
X110033405Y-111651614D01*
X109922962Y-111517038D01*
X109788386Y-111406595D01*
X109634850Y-111324528D01*
X109468254Y-111273992D01*
X109295000Y-111256928D01*
X108045000Y-111256928D01*
X107871746Y-111273992D01*
X107705150Y-111324528D01*
X107551614Y-111406595D01*
X107417038Y-111517038D01*
X107358592Y-111588256D01*
X107317089Y-111580000D01*
X107132911Y-111580000D01*
X106952271Y-111615932D01*
X106782111Y-111686414D01*
X106628972Y-111788738D01*
X106498738Y-111918972D01*
X106396414Y-112072111D01*
X106325932Y-112242271D01*
X106290000Y-112422911D01*
X106290000Y-112607089D01*
X106325932Y-112787729D01*
X106396414Y-112957889D01*
X106498738Y-113111028D01*
X106628972Y-113241262D01*
X106782111Y-113343586D01*
X106952271Y-113414068D01*
X107132911Y-113450000D01*
X107317089Y-113450000D01*
X107351537Y-113443148D01*
X107417038Y-113522962D01*
X107551614Y-113633405D01*
X107705150Y-113715472D01*
X107871746Y-113766008D01*
X108045000Y-113783072D01*
X109295000Y-113783072D01*
X109325610Y-113780057D01*
X109472082Y-113926529D01*
X109454188Y-113985518D01*
X109447105Y-114057438D01*
X108955750Y-114060000D01*
X108797000Y-114218750D01*
X108797000Y-115193000D01*
X109679767Y-115193000D01*
X109725506Y-115230537D01*
X109835820Y-115289502D01*
X109955518Y-115325812D01*
X110080000Y-115338072D01*
X110114250Y-115335000D01*
X110273000Y-115176250D01*
X110273000Y-114532000D01*
X110253000Y-114532000D01*
X110253000Y-114368072D01*
X110404238Y-114368072D01*
X110457119Y-114384113D01*
X110490914Y-114394365D01*
X110505132Y-114395765D01*
X110547000Y-114399889D01*
X110547000Y-114532000D01*
X110527000Y-114532000D01*
X110527000Y-115176250D01*
X110685750Y-115335000D01*
X110720000Y-115338072D01*
X110844482Y-115325812D01*
X110964180Y-115289502D01*
X111074494Y-115230537D01*
X111171185Y-115151185D01*
X111250537Y-115054494D01*
X111302452Y-114957370D01*
X111651750Y-114955000D01*
X111810500Y-114796250D01*
X111810500Y-114458072D01*
X112064500Y-114458072D01*
X112064500Y-114796250D01*
X112223250Y-114955000D01*
X112561928Y-114957298D01*
X112561928Y-116245000D01*
X112572760Y-116354980D01*
X110030001Y-116354980D01*
X110075537Y-116299494D01*
X110134502Y-116189180D01*
X110170812Y-116069482D01*
X110183072Y-115945000D01*
X110180000Y-115605750D01*
X110021250Y-115447000D01*
X108797000Y-115447000D01*
X108797000Y-115467000D01*
X108543000Y-115467000D01*
X108543000Y-115447000D01*
X107318750Y-115447000D01*
X107160000Y-115605750D01*
X107156928Y-115945000D01*
X107169188Y-116069482D01*
X107205498Y-116189180D01*
X107264463Y-116299494D01*
X107309999Y-116354980D01*
X106536125Y-116354980D01*
X106500020Y-116351424D01*
X106355935Y-116365615D01*
X106217386Y-116407643D01*
X106166108Y-116435052D01*
X106089700Y-116475893D01*
X105977782Y-116567742D01*
X105954766Y-116595787D01*
X105455808Y-117094746D01*
X105427762Y-117117763D01*
X105335913Y-117229681D01*
X105267663Y-117357368D01*
X105246812Y-117426105D01*
X105225635Y-117495915D01*
X105222734Y-117525367D01*
X105205820Y-117530498D01*
X105095506Y-117589463D01*
X104998815Y-117668815D01*
X104919463Y-117765506D01*
X104860498Y-117875820D01*
X104824188Y-117995518D01*
X104811928Y-118120000D01*
X104811928Y-119920000D01*
X104824188Y-120044482D01*
X104860498Y-120164180D01*
X104899939Y-120237967D01*
X104841726Y-120346875D01*
X104797023Y-120494243D01*
X104781928Y-120647500D01*
X104781928Y-120992500D01*
X104797023Y-121145757D01*
X104841726Y-121293125D01*
X104914321Y-121428940D01*
X105012017Y-121547983D01*
X105131060Y-121645679D01*
X105266875Y-121718274D01*
X105414243Y-121762977D01*
X105567500Y-121778072D01*
X105862500Y-121778072D01*
X106015757Y-121762977D01*
X106163125Y-121718274D01*
X106200000Y-121698564D01*
X106236875Y-121718274D01*
X106285050Y-121732888D01*
X106300932Y-121812729D01*
X106371414Y-121982889D01*
X106473738Y-122136028D01*
X106603972Y-122266262D01*
X106757111Y-122368586D01*
X106927271Y-122439068D01*
X107107911Y-122475000D01*
X107292089Y-122475000D01*
X107472729Y-122439068D01*
X107642889Y-122368586D01*
X107796028Y-122266262D01*
X107926262Y-122136028D01*
X108028586Y-121982889D01*
X108099068Y-121812729D01*
X108114950Y-121732888D01*
X108163125Y-121718274D01*
X108200000Y-121698564D01*
X108236875Y-121718274D01*
X108384243Y-121762977D01*
X108537500Y-121778072D01*
X108832500Y-121778072D01*
X108985757Y-121762977D01*
X109133125Y-121718274D01*
X109268940Y-121645679D01*
X109387983Y-121547983D01*
X109396891Y-121537128D01*
X109425518Y-121545812D01*
X109550000Y-121558072D01*
X109680000Y-121558072D01*
X109680000Y-121631030D01*
X109614321Y-121711060D01*
X109541726Y-121846875D01*
X109497023Y-121994243D01*
X109481928Y-122147500D01*
X109481928Y-122492500D01*
X109497023Y-122645757D01*
X109541726Y-122793125D01*
X109614321Y-122928940D01*
X109712017Y-123047983D01*
X109831060Y-123145679D01*
X109966875Y-123218274D01*
X110114243Y-123262977D01*
X110267500Y-123278072D01*
X110562500Y-123278072D01*
X110715757Y-123262977D01*
X110863125Y-123218274D01*
X110900000Y-123198564D01*
X110936875Y-123218274D01*
X111084243Y-123262977D01*
X111237500Y-123278072D01*
X111532500Y-123278072D01*
X111685757Y-123262977D01*
X111833125Y-123218274D01*
X111943322Y-123159372D01*
X111957111Y-123168586D01*
X112127271Y-123239068D01*
X112307911Y-123275000D01*
X112492089Y-123275000D01*
X112672729Y-123239068D01*
X112842889Y-123168586D01*
X112856678Y-123159372D01*
X112966875Y-123218274D01*
X113114243Y-123262977D01*
X113267500Y-123278072D01*
X113562500Y-123278072D01*
X113715757Y-123262977D01*
X113863125Y-123218274D01*
X113900000Y-123198564D01*
X113936875Y-123218274D01*
X114084243Y-123262977D01*
X114237500Y-123278072D01*
X114532500Y-123278072D01*
X114685757Y-123262977D01*
X114833125Y-123218274D01*
X114968940Y-123145679D01*
X115087983Y-123047983D01*
X115185679Y-122928940D01*
X115258274Y-122793125D01*
X115302977Y-122645757D01*
X115318072Y-122492500D01*
X115318072Y-122147500D01*
X115302977Y-121994243D01*
X115258274Y-121846875D01*
X115185679Y-121711060D01*
X115121358Y-121632685D01*
X115116390Y-121582238D01*
X115114010Y-121558072D01*
X115250000Y-121558072D01*
X115374482Y-121545812D01*
X115494180Y-121509502D01*
X115604494Y-121450537D01*
X115701185Y-121371185D01*
X115780537Y-121274494D01*
X115803008Y-121232455D01*
X116057813Y-121487260D01*
X116071726Y-121533125D01*
X116144321Y-121668940D01*
X116183414Y-121716575D01*
X116179808Y-121718502D01*
X116098309Y-121772958D01*
X116001618Y-121852310D01*
X115932310Y-121921618D01*
X115852958Y-122018309D01*
X115798502Y-122099808D01*
X115739536Y-122210125D01*
X115702027Y-122300681D01*
X115665718Y-122420377D01*
X115646596Y-122516510D01*
X115634336Y-122640991D01*
X115634336Y-122665550D01*
X115631928Y-122690000D01*
X115631928Y-123190000D01*
X115634336Y-123214450D01*
X115634336Y-123239009D01*
X115646596Y-123363490D01*
X115665718Y-123459623D01*
X115702027Y-123579319D01*
X115739536Y-123669875D01*
X115798502Y-123780192D01*
X115852958Y-123861691D01*
X115932310Y-123958382D01*
X116001618Y-124027690D01*
X116098309Y-124107042D01*
X116179808Y-124161498D01*
X116290125Y-124220464D01*
X116380681Y-124257973D01*
X116500377Y-124294282D01*
X116596510Y-124313404D01*
X116720991Y-124325664D01*
X116745550Y-124325664D01*
X116770000Y-124328072D01*
X117270000Y-124328072D01*
X117394482Y-124315812D01*
X117420000Y-124308071D01*
X117445518Y-124315812D01*
X117570000Y-124328072D01*
X118070000Y-124328072D01*
X118094450Y-124325664D01*
X118119009Y-124325664D01*
X118243490Y-124313404D01*
X118339623Y-124294282D01*
X118459319Y-124257973D01*
X118549875Y-124220464D01*
X118660192Y-124161498D01*
X118741691Y-124107042D01*
X118838382Y-124027690D01*
X118907690Y-123958382D01*
X118987042Y-123861691D01*
X119029279Y-123798479D01*
X119127271Y-123839068D01*
X119307911Y-123875000D01*
X119492089Y-123875000D01*
X119672729Y-123839068D01*
X119842889Y-123768586D01*
X119996028Y-123666262D01*
X120126262Y-123536028D01*
X120228586Y-123382889D01*
X120299068Y-123212729D01*
X120335000Y-123032089D01*
X120335000Y-122847911D01*
X120299068Y-122667271D01*
X120228586Y-122497111D01*
X120126262Y-122343972D01*
X119996028Y-122213738D01*
X119842889Y-122111414D01*
X119672729Y-122040932D01*
X119492089Y-122005000D01*
X119307911Y-122005000D01*
X119127271Y-122040932D01*
X119029279Y-122081521D01*
X118987042Y-122018309D01*
X118907690Y-121921618D01*
X118838382Y-121852310D01*
X118741691Y-121772958D01*
X118720559Y-121758838D01*
X118740537Y-121734494D01*
X118799502Y-121624180D01*
X118835812Y-121504482D01*
X118848072Y-121380000D01*
X118845000Y-121345750D01*
X118686250Y-121187000D01*
X118042000Y-121187000D01*
X118042000Y-121207000D01*
X117878072Y-121207000D01*
X117878072Y-120913000D01*
X118042000Y-120913000D01*
X118042000Y-120933000D01*
X118686250Y-120933000D01*
X118845000Y-120774250D01*
X118848072Y-120740000D01*
X118835812Y-120615518D01*
X118799502Y-120495820D01*
X118740537Y-120385506D01*
X118661185Y-120288815D01*
X118564494Y-120209463D01*
X118454180Y-120150498D01*
X118334482Y-120114188D01*
X118210000Y-120101928D01*
X118200750Y-120105000D01*
X118042002Y-120263748D01*
X118042002Y-120105000D01*
X118030443Y-120105000D01*
X118035000Y-120082089D01*
X118035000Y-120048354D01*
X118125518Y-120075812D01*
X118250000Y-120088072D01*
X118451750Y-120085000D01*
X118610500Y-119926250D01*
X118610500Y-118877000D01*
X118864500Y-118877000D01*
X118864500Y-119926250D01*
X119023250Y-120085000D01*
X119225000Y-120088072D01*
X119349482Y-120075812D01*
X119469180Y-120039502D01*
X119579494Y-119980537D01*
X119676185Y-119901185D01*
X119755537Y-119804494D01*
X119814502Y-119694180D01*
X119850812Y-119574482D01*
X119863072Y-119450000D01*
X119860000Y-119035750D01*
X119701250Y-118877000D01*
X118864500Y-118877000D01*
X118610500Y-118877000D01*
X118590500Y-118877000D01*
X118590500Y-118623000D01*
X118610500Y-118623000D01*
X118610500Y-118008161D01*
X118631185Y-117991185D01*
X118710537Y-117894494D01*
X118769502Y-117784180D01*
X118805812Y-117664482D01*
X118814748Y-117573750D01*
X118864500Y-117573750D01*
X118864500Y-118623000D01*
X119701250Y-118623000D01*
X119860000Y-118464250D01*
X119863072Y-118050000D01*
X119850812Y-117925518D01*
X119814502Y-117805820D01*
X119755537Y-117695506D01*
X119676185Y-117598815D01*
X119579494Y-117519463D01*
X119469180Y-117460498D01*
X119349482Y-117424188D01*
X119225000Y-117411928D01*
X119023250Y-117415000D01*
X118864500Y-117573750D01*
X118814748Y-117573750D01*
X118818072Y-117540000D01*
X118815000Y-117505750D01*
X118656250Y-117347000D01*
X118012000Y-117347000D01*
X118012000Y-117367000D01*
X117848072Y-117367000D01*
X117848072Y-117073000D01*
X118012000Y-117073000D01*
X118012000Y-117093000D01*
X118656250Y-117093000D01*
X118791178Y-116958072D01*
X118925000Y-116958072D01*
X119064113Y-116944371D01*
X119197881Y-116903793D01*
X119321162Y-116837898D01*
X119429218Y-116749218D01*
X119517898Y-116641162D01*
X119583793Y-116517881D01*
X119624371Y-116384113D01*
X119638072Y-116245000D01*
X119638072Y-114958072D01*
X120925000Y-114958072D01*
X121064113Y-114944371D01*
X121197881Y-114903793D01*
X121321162Y-114837898D01*
X121429218Y-114749218D01*
X121517898Y-114641162D01*
X121583793Y-114517881D01*
X121624371Y-114384113D01*
X121638072Y-114245000D01*
X121638072Y-114095000D01*
X121624371Y-113955887D01*
X121613485Y-113920000D01*
X121624371Y-113884113D01*
X121638072Y-113745000D01*
X121638072Y-113595000D01*
X121624371Y-113455887D01*
X121613485Y-113420000D01*
X121624371Y-113384113D01*
X121638072Y-113245000D01*
X121638072Y-113095000D01*
X121624371Y-112955887D01*
X121613485Y-112920000D01*
X121618035Y-112905000D01*
X123133895Y-112905000D01*
X123170000Y-112908556D01*
X123206105Y-112905000D01*
X123314085Y-112894365D01*
X123452633Y-112852337D01*
X123580320Y-112784087D01*
X123692238Y-112692238D01*
X123715258Y-112664188D01*
X124365000Y-112014447D01*
X124365000Y-124826974D01*
X124236974Y-124955000D01*
X115500000Y-124955000D01*
X115376118Y-124967201D01*
X115256996Y-125003336D01*
X115147213Y-125062017D01*
X115050987Y-125140987D01*
X115013521Y-125178453D01*
X114955506Y-125209463D01*
X114858815Y-125288815D01*
X114779463Y-125385506D01*
X114748453Y-125443521D01*
X114550987Y-125640987D01*
X114472017Y-125737213D01*
X114413336Y-125846996D01*
X114377201Y-125966118D01*
X114365000Y-126090000D01*
X114365000Y-126990000D01*
X114377201Y-127113882D01*
X114413336Y-127233004D01*
X114472017Y-127342787D01*
X114550987Y-127439013D01*
X114787584Y-127675610D01*
X114779463Y-127685506D01*
X114720498Y-127795820D01*
X114684188Y-127915518D01*
X114671928Y-128040000D01*
X114675000Y-128504250D01*
X114833750Y-128663000D01*
X116183000Y-128663000D01*
X116183000Y-128643000D01*
X116437000Y-128643000D01*
X116437000Y-128663000D01*
X116457000Y-128663000D01*
X116457000Y-128917000D01*
X116437000Y-128917000D01*
X116437000Y-128937000D01*
X116183000Y-128937000D01*
X116183000Y-128917000D01*
X114833750Y-128917000D01*
X114675000Y-129075750D01*
X114673152Y-129355000D01*
X111645531Y-129355000D01*
X111645000Y-129075750D01*
X111486250Y-128917000D01*
X110137000Y-128917000D01*
X110137000Y-128937000D01*
X109883000Y-128937000D01*
X109883000Y-128917000D01*
X108533750Y-128917000D01*
X108375000Y-129075750D01*
X108374469Y-129355000D01*
X101660000Y-129355000D01*
X101660000Y-126890000D01*
X108371928Y-126890000D01*
X108375000Y-128504250D01*
X108533750Y-128663000D01*
X109883000Y-128663000D01*
X109883000Y-126413750D01*
X110137000Y-126413750D01*
X110137000Y-128663000D01*
X111486250Y-128663000D01*
X111645000Y-128504250D01*
X111648072Y-126890000D01*
X111635812Y-126765518D01*
X111599502Y-126645820D01*
X111540537Y-126535506D01*
X111461185Y-126438815D01*
X111364494Y-126359463D01*
X111254180Y-126300498D01*
X111134482Y-126264188D01*
X111010000Y-126251928D01*
X110295750Y-126255000D01*
X110137000Y-126413750D01*
X109883000Y-126413750D01*
X109724250Y-126255000D01*
X109010000Y-126251928D01*
X108885518Y-126264188D01*
X108765820Y-126300498D01*
X108655506Y-126359463D01*
X108558815Y-126438815D01*
X108479463Y-126535506D01*
X108420498Y-126645820D01*
X108384188Y-126765518D01*
X108371928Y-126890000D01*
X101660000Y-126890000D01*
X101660000Y-114695000D01*
X107156928Y-114695000D01*
X107160000Y-115034250D01*
X107318750Y-115193000D01*
X108543000Y-115193000D01*
X108543000Y-114218750D01*
X108384250Y-114060000D01*
X107795000Y-114056928D01*
X107670518Y-114069188D01*
X107550820Y-114105498D01*
X107440506Y-114164463D01*
X107343815Y-114243815D01*
X107264463Y-114340506D01*
X107205498Y-114450820D01*
X107169188Y-114570518D01*
X107156928Y-114695000D01*
X101660000Y-114695000D01*
X101660000Y-100013110D01*
X104558524Y-100013110D01*
X104679845Y-100243000D01*
X105873000Y-100243000D01*
X105873000Y-99049186D01*
X106127000Y-99049186D01*
X106127000Y-100243000D01*
X107320155Y-100243000D01*
X107441476Y-100013110D01*
X107396825Y-99865901D01*
X107271641Y-99603080D01*
X107097588Y-99369731D01*
X106881355Y-99174822D01*
X106631252Y-99025843D01*
X106356891Y-98928519D01*
X106127000Y-99049186D01*
X105873000Y-99049186D01*
X105643109Y-98928519D01*
X105368748Y-99025843D01*
X105118645Y-99174822D01*
X104902412Y-99369731D01*
X104728359Y-99603080D01*
X104603175Y-99865901D01*
X104558524Y-100013110D01*
X101660000Y-100013110D01*
X101660000Y-58019392D01*
X101731173Y-57221917D01*
X101934656Y-56478109D01*
X101974297Y-56395000D01*
X112329928Y-56395000D01*
X112342188Y-56519482D01*
X112378498Y-56639180D01*
X112437463Y-56749494D01*
X112516815Y-56846185D01*
X112613506Y-56925537D01*
X112723820Y-56984502D01*
X112843518Y-57020812D01*
X112968000Y-57033072D01*
X113444250Y-57030000D01*
X113603000Y-56871250D01*
X113603000Y-55022000D01*
X112491750Y-55022000D01*
X112333000Y-55180750D01*
X112329928Y-56395000D01*
X101974297Y-56395000D01*
X102266638Y-55782095D01*
X102716626Y-55155870D01*
X103270403Y-54619223D01*
X103910451Y-54189129D01*
X104616553Y-53879171D01*
X105371457Y-53697935D01*
X106024207Y-53650000D01*
X112330573Y-53650000D01*
X112333000Y-54609250D01*
G36*
X119807000Y-128325500D02*
G01*
X119827000Y-128325500D01*
X119827000Y-128579500D01*
X119807000Y-128579500D01*
X119807000Y-128599500D01*
X119553000Y-128599500D01*
X119553000Y-128579500D01*
X119533000Y-128579500D01*
X119533000Y-128325500D01*
X119553000Y-128325500D01*
X119553000Y-128305500D01*
X119807000Y-128305500D01*
X119807000Y-128325500D01*
G37*
X119807000Y-128325500D02*
X119827000Y-128325500D01*
X119827000Y-128579500D01*
X119807000Y-128579500D01*
X119807000Y-128599500D01*
X119553000Y-128599500D01*
X119553000Y-128579500D01*
X119533000Y-128579500D01*
X119533000Y-128325500D01*
X119553000Y-128325500D01*
X119553000Y-128305500D01*
X119807000Y-128305500D01*
X119807000Y-128325500D01*
%TO.N,GND*%
G36*
X122627000Y-128800500D02*
G01*
X122647000Y-128800500D01*
X122647000Y-129054500D01*
X122627000Y-129054500D01*
X122627000Y-129891250D01*
X122785750Y-130050000D01*
X123200000Y-130053072D01*
X123324482Y-130040812D01*
X123444180Y-130004502D01*
X123554494Y-129945537D01*
X123651185Y-129866185D01*
X123730537Y-129769494D01*
X123789502Y-129659180D01*
X123825812Y-129539482D01*
X123838072Y-129415000D01*
X123835000Y-129213250D01*
X123676252Y-129054502D01*
X123835000Y-129054502D01*
X123835000Y-129004606D01*
X123873000Y-129042606D01*
X123873000Y-135437394D01*
X123447394Y-135863000D01*
X116934974Y-135863000D01*
X116736038Y-135565271D01*
X116424729Y-135253962D01*
X116058669Y-135009369D01*
X115651925Y-134840890D01*
X115220128Y-134755000D01*
X114779872Y-134755000D01*
X114348075Y-134840890D01*
X113941331Y-135009369D01*
X113575271Y-135253962D01*
X113263962Y-135565271D01*
X113019369Y-135931331D01*
X112850890Y-136338075D01*
X112765000Y-136769872D01*
X112765000Y-137210128D01*
X112850890Y-137641925D01*
X113019369Y-138048669D01*
X113263962Y-138414729D01*
X113575271Y-138726038D01*
X113941331Y-138970631D01*
X114348075Y-139139110D01*
X114373000Y-139144068D01*
X114373000Y-142852696D01*
X114015750Y-142855000D01*
X113857000Y-143013750D01*
X113857000Y-144863000D01*
X113877000Y-144863000D01*
X113877000Y-145117000D01*
X113857000Y-145117000D01*
X113857000Y-145137000D01*
X113603000Y-145137000D01*
X113603000Y-145117000D01*
X112491750Y-145117000D01*
X112333000Y-145275750D01*
X112330333Y-146330000D01*
X106029392Y-146330000D01*
X105231917Y-146258827D01*
X104488110Y-146055344D01*
X103792096Y-145723363D01*
X103165870Y-145273374D01*
X102629223Y-144719597D01*
X102199129Y-144079549D01*
X101940335Y-143490000D01*
X112329928Y-143490000D01*
X112333000Y-144704250D01*
X112491750Y-144863000D01*
X113603000Y-144863000D01*
X113603000Y-143013750D01*
X113444250Y-142855000D01*
X112968000Y-142851928D01*
X112843518Y-142864188D01*
X112723820Y-142900498D01*
X112613506Y-142959463D01*
X112516815Y-143038815D01*
X112437463Y-143135506D01*
X112378498Y-143245820D01*
X112342188Y-143365518D01*
X112329928Y-143490000D01*
X101940335Y-143490000D01*
X101889171Y-143373447D01*
X101707935Y-142618543D01*
X101660000Y-141965793D01*
X101660000Y-131840000D01*
X114671928Y-131840000D01*
X114684188Y-131964482D01*
X114720498Y-132084180D01*
X114779463Y-132194494D01*
X114858815Y-132291185D01*
X114955506Y-132370537D01*
X115065820Y-132429502D01*
X115185518Y-132465812D01*
X115310000Y-132478072D01*
X116024250Y-132475000D01*
X116183000Y-132316250D01*
X116183000Y-131217000D01*
X114833750Y-131217000D01*
X114675000Y-131375750D01*
X114671928Y-131840000D01*
X101660000Y-131840000D01*
X101660000Y-130117000D01*
X108371928Y-130117000D01*
X108371928Y-130690000D01*
X108384188Y-130814482D01*
X108420498Y-130934180D01*
X108479463Y-131044494D01*
X108558815Y-131141185D01*
X108655506Y-131220537D01*
X108765820Y-131279502D01*
X108885518Y-131315812D01*
X109010000Y-131328072D01*
X111010000Y-131328072D01*
X111134482Y-131315812D01*
X111254180Y-131279502D01*
X111364494Y-131220537D01*
X111461185Y-131141185D01*
X111540537Y-131044494D01*
X111599502Y-130934180D01*
X111635812Y-130814482D01*
X111648072Y-130690000D01*
X111648072Y-130117000D01*
X114714073Y-130117000D01*
X114684188Y-130215518D01*
X114671928Y-130340000D01*
X114675000Y-130804250D01*
X114833750Y-130963000D01*
X116183000Y-130963000D01*
X116183000Y-130943000D01*
X116437000Y-130943000D01*
X116437000Y-130963000D01*
X116457000Y-130963000D01*
X116457000Y-131217000D01*
X116437000Y-131217000D01*
X116437000Y-132316250D01*
X116595750Y-132475000D01*
X117310000Y-132478072D01*
X117434482Y-132465812D01*
X117554180Y-132429502D01*
X117664494Y-132370537D01*
X117761185Y-132291185D01*
X117840537Y-132194494D01*
X117867300Y-132144425D01*
X117866928Y-132190000D01*
X117879188Y-132314482D01*
X117915498Y-132434180D01*
X117974463Y-132544494D01*
X118053815Y-132641185D01*
X118150506Y-132720537D01*
X118260820Y-132779502D01*
X118380518Y-132815812D01*
X118505000Y-132828072D01*
X119394250Y-132825000D01*
X119553000Y-132666250D01*
X119553000Y-131654500D01*
X119807000Y-131654500D01*
X119807000Y-132666250D01*
X119965750Y-132825000D01*
X120855000Y-132828072D01*
X120979482Y-132815812D01*
X121099180Y-132779502D01*
X121209494Y-132720537D01*
X121306185Y-132641185D01*
X121385537Y-132544494D01*
X121444502Y-132434180D01*
X121480812Y-132314482D01*
X121493072Y-132190000D01*
X121490000Y-131813250D01*
X121331250Y-131654500D01*
X119807000Y-131654500D01*
X119553000Y-131654500D01*
X119533000Y-131654500D01*
X119533000Y-131400500D01*
X119553000Y-131400500D01*
X119553000Y-130388750D01*
X119807000Y-130388750D01*
X119807000Y-131400500D01*
X121331250Y-131400500D01*
X121490000Y-131241750D01*
X121493072Y-130865000D01*
X121480812Y-130740518D01*
X121444502Y-130620820D01*
X121385537Y-130510506D01*
X121306185Y-130413815D01*
X121209494Y-130334463D01*
X121099180Y-130275498D01*
X120979482Y-130239188D01*
X120855000Y-130226928D01*
X119965750Y-130230000D01*
X119807000Y-130388750D01*
X119553000Y-130388750D01*
X119394250Y-130230000D01*
X118505000Y-130226928D01*
X118380518Y-130239188D01*
X118260820Y-130275498D01*
X118150506Y-130334463D01*
X118053815Y-130413815D01*
X117974463Y-130510506D01*
X117946599Y-130562635D01*
X117948072Y-130340000D01*
X117935812Y-130215518D01*
X117905927Y-130117000D01*
X120500000Y-130117000D01*
X120524776Y-130114560D01*
X120548601Y-130107333D01*
X120570557Y-130095597D01*
X120589803Y-130079803D01*
X121029242Y-129640364D01*
X121098387Y-129603405D01*
X121174604Y-129540855D01*
X121210498Y-129659180D01*
X121269463Y-129769494D01*
X121348815Y-129866185D01*
X121445506Y-129945537D01*
X121555820Y-130004502D01*
X121675518Y-130040812D01*
X121800000Y-130053072D01*
X122214250Y-130050000D01*
X122373000Y-129891250D01*
X122373000Y-129054500D01*
X122353000Y-129054500D01*
X122353000Y-128800500D01*
X122373000Y-128800500D01*
X122373000Y-128780500D01*
X122627000Y-128780500D01*
X122627000Y-128800500D01*
G37*
X122627000Y-128800500D02*
X122647000Y-128800500D01*
X122647000Y-129054500D01*
X122627000Y-129054500D01*
X122627000Y-129891250D01*
X122785750Y-130050000D01*
X123200000Y-130053072D01*
X123324482Y-130040812D01*
X123444180Y-130004502D01*
X123554494Y-129945537D01*
X123651185Y-129866185D01*
X123730537Y-129769494D01*
X123789502Y-129659180D01*
X123825812Y-129539482D01*
X123838072Y-129415000D01*
X123835000Y-129213250D01*
X123676252Y-129054502D01*
X123835000Y-129054502D01*
X123835000Y-129004606D01*
X123873000Y-129042606D01*
X123873000Y-135437394D01*
X123447394Y-135863000D01*
X116934974Y-135863000D01*
X116736038Y-135565271D01*
X116424729Y-135253962D01*
X116058669Y-135009369D01*
X115651925Y-134840890D01*
X115220128Y-134755000D01*
X114779872Y-134755000D01*
X114348075Y-134840890D01*
X113941331Y-135009369D01*
X113575271Y-135253962D01*
X113263962Y-135565271D01*
X113019369Y-135931331D01*
X112850890Y-136338075D01*
X112765000Y-136769872D01*
X112765000Y-137210128D01*
X112850890Y-137641925D01*
X113019369Y-138048669D01*
X113263962Y-138414729D01*
X113575271Y-138726038D01*
X113941331Y-138970631D01*
X114348075Y-139139110D01*
X114373000Y-139144068D01*
X114373000Y-142852696D01*
X114015750Y-142855000D01*
X113857000Y-143013750D01*
X113857000Y-144863000D01*
X113877000Y-144863000D01*
X113877000Y-145117000D01*
X113857000Y-145117000D01*
X113857000Y-145137000D01*
X113603000Y-145137000D01*
X113603000Y-145117000D01*
X112491750Y-145117000D01*
X112333000Y-145275750D01*
X112330333Y-146330000D01*
X106029392Y-146330000D01*
X105231917Y-146258827D01*
X104488110Y-146055344D01*
X103792096Y-145723363D01*
X103165870Y-145273374D01*
X102629223Y-144719597D01*
X102199129Y-144079549D01*
X101940335Y-143490000D01*
X112329928Y-143490000D01*
X112333000Y-144704250D01*
X112491750Y-144863000D01*
X113603000Y-144863000D01*
X113603000Y-143013750D01*
X113444250Y-142855000D01*
X112968000Y-142851928D01*
X112843518Y-142864188D01*
X112723820Y-142900498D01*
X112613506Y-142959463D01*
X112516815Y-143038815D01*
X112437463Y-143135506D01*
X112378498Y-143245820D01*
X112342188Y-143365518D01*
X112329928Y-143490000D01*
X101940335Y-143490000D01*
X101889171Y-143373447D01*
X101707935Y-142618543D01*
X101660000Y-141965793D01*
X101660000Y-131840000D01*
X114671928Y-131840000D01*
X114684188Y-131964482D01*
X114720498Y-132084180D01*
X114779463Y-132194494D01*
X114858815Y-132291185D01*
X114955506Y-132370537D01*
X115065820Y-132429502D01*
X115185518Y-132465812D01*
X115310000Y-132478072D01*
X116024250Y-132475000D01*
X116183000Y-132316250D01*
X116183000Y-131217000D01*
X114833750Y-131217000D01*
X114675000Y-131375750D01*
X114671928Y-131840000D01*
X101660000Y-131840000D01*
X101660000Y-130117000D01*
X108371928Y-130117000D01*
X108371928Y-130690000D01*
X108384188Y-130814482D01*
X108420498Y-130934180D01*
X108479463Y-131044494D01*
X108558815Y-131141185D01*
X108655506Y-131220537D01*
X108765820Y-131279502D01*
X108885518Y-131315812D01*
X109010000Y-131328072D01*
X111010000Y-131328072D01*
X111134482Y-131315812D01*
X111254180Y-131279502D01*
X111364494Y-131220537D01*
X111461185Y-131141185D01*
X111540537Y-131044494D01*
X111599502Y-130934180D01*
X111635812Y-130814482D01*
X111648072Y-130690000D01*
X111648072Y-130117000D01*
X114714073Y-130117000D01*
X114684188Y-130215518D01*
X114671928Y-130340000D01*
X114675000Y-130804250D01*
X114833750Y-130963000D01*
X116183000Y-130963000D01*
X116183000Y-130943000D01*
X116437000Y-130943000D01*
X116437000Y-130963000D01*
X116457000Y-130963000D01*
X116457000Y-131217000D01*
X116437000Y-131217000D01*
X116437000Y-132316250D01*
X116595750Y-132475000D01*
X117310000Y-132478072D01*
X117434482Y-132465812D01*
X117554180Y-132429502D01*
X117664494Y-132370537D01*
X117761185Y-132291185D01*
X117840537Y-132194494D01*
X117867300Y-132144425D01*
X117866928Y-132190000D01*
X117879188Y-132314482D01*
X117915498Y-132434180D01*
X117974463Y-132544494D01*
X118053815Y-132641185D01*
X118150506Y-132720537D01*
X118260820Y-132779502D01*
X118380518Y-132815812D01*
X118505000Y-132828072D01*
X119394250Y-132825000D01*
X119553000Y-132666250D01*
X119553000Y-131654500D01*
X119807000Y-131654500D01*
X119807000Y-132666250D01*
X119965750Y-132825000D01*
X120855000Y-132828072D01*
X120979482Y-132815812D01*
X121099180Y-132779502D01*
X121209494Y-132720537D01*
X121306185Y-132641185D01*
X121385537Y-132544494D01*
X121444502Y-132434180D01*
X121480812Y-132314482D01*
X121493072Y-132190000D01*
X121490000Y-131813250D01*
X121331250Y-131654500D01*
X119807000Y-131654500D01*
X119553000Y-131654500D01*
X119533000Y-131654500D01*
X119533000Y-131400500D01*
X119553000Y-131400500D01*
X119553000Y-130388750D01*
X119807000Y-130388750D01*
X119807000Y-131400500D01*
X121331250Y-131400500D01*
X121490000Y-131241750D01*
X121493072Y-130865000D01*
X121480812Y-130740518D01*
X121444502Y-130620820D01*
X121385537Y-130510506D01*
X121306185Y-130413815D01*
X121209494Y-130334463D01*
X121099180Y-130275498D01*
X120979482Y-130239188D01*
X120855000Y-130226928D01*
X119965750Y-130230000D01*
X119807000Y-130388750D01*
X119553000Y-130388750D01*
X119394250Y-130230000D01*
X118505000Y-130226928D01*
X118380518Y-130239188D01*
X118260820Y-130275498D01*
X118150506Y-130334463D01*
X118053815Y-130413815D01*
X117974463Y-130510506D01*
X117946599Y-130562635D01*
X117948072Y-130340000D01*
X117935812Y-130215518D01*
X117905927Y-130117000D01*
X120500000Y-130117000D01*
X120524776Y-130114560D01*
X120548601Y-130107333D01*
X120570557Y-130095597D01*
X120589803Y-130079803D01*
X121029242Y-129640364D01*
X121098387Y-129603405D01*
X121174604Y-129540855D01*
X121210498Y-129659180D01*
X121269463Y-129769494D01*
X121348815Y-129866185D01*
X121445506Y-129945537D01*
X121555820Y-130004502D01*
X121675518Y-130040812D01*
X121800000Y-130053072D01*
X122214250Y-130050000D01*
X122373000Y-129891250D01*
X122373000Y-129054500D01*
X122353000Y-129054500D01*
X122353000Y-128800500D01*
X122373000Y-128800500D01*
X122373000Y-128780500D01*
X122627000Y-128780500D01*
X122627000Y-128800500D01*
G36*
X128340000Y-95051070D02*
G01*
X127731750Y-95053000D01*
X127573000Y-95211750D01*
X127573000Y-96077000D01*
X127593000Y-96077000D01*
X127593000Y-96823000D01*
X127573000Y-96823000D01*
X127573000Y-96843000D01*
X126827000Y-96843000D01*
X126827000Y-96823000D01*
X125223750Y-96823000D01*
X125065000Y-96981750D01*
X125063249Y-97113000D01*
X124552606Y-97113000D01*
X124127000Y-96687394D01*
X124127000Y-95688000D01*
X125061928Y-95688000D01*
X125065000Y-95918250D01*
X125223750Y-96077000D01*
X126827000Y-96077000D01*
X126827000Y-95211750D01*
X126668250Y-95053000D01*
X125700000Y-95049928D01*
X125575518Y-95062188D01*
X125455820Y-95098498D01*
X125345506Y-95157463D01*
X125248815Y-95236815D01*
X125169463Y-95333506D01*
X125110498Y-95443820D01*
X125074188Y-95563518D01*
X125061928Y-95688000D01*
X124127000Y-95688000D01*
X124127000Y-91792606D01*
X124552606Y-91367000D01*
X128340000Y-91367000D01*
X128340000Y-95051070D01*
G37*
X128340000Y-95051070D02*
X127731750Y-95053000D01*
X127573000Y-95211750D01*
X127573000Y-96077000D01*
X127593000Y-96077000D01*
X127593000Y-96823000D01*
X127573000Y-96823000D01*
X127573000Y-96843000D01*
X126827000Y-96843000D01*
X126827000Y-96823000D01*
X125223750Y-96823000D01*
X125065000Y-96981750D01*
X125063249Y-97113000D01*
X124552606Y-97113000D01*
X124127000Y-96687394D01*
X124127000Y-95688000D01*
X125061928Y-95688000D01*
X125065000Y-95918250D01*
X125223750Y-96077000D01*
X126827000Y-96077000D01*
X126827000Y-95211750D01*
X126668250Y-95053000D01*
X125700000Y-95049928D01*
X125575518Y-95062188D01*
X125455820Y-95098498D01*
X125345506Y-95157463D01*
X125248815Y-95236815D01*
X125169463Y-95333506D01*
X125110498Y-95443820D01*
X125074188Y-95563518D01*
X125061928Y-95688000D01*
X124127000Y-95688000D01*
X124127000Y-91792606D01*
X124552606Y-91367000D01*
X128340000Y-91367000D01*
X128340000Y-95051070D01*
%TD*%
M02*
